<svg version="1.1" xmlns="http://www.w3.org/2000/svg" xmlns:xlink="http://www.w3.org/1999/xlink" width="56" height="215.73871" viewBox="0,0,56,215.73871"><defs><linearGradient x1="240.00005" y1="69.26131" x2="240.00005" y2="169.85775" gradientUnits="userSpaceOnUse" id="color-1"><stop offset="0" stop-color="#e4f6aa" stop-opacity="0"/><stop offset="1" stop-color="#e4f6aa" stop-opacity="0.5932"/></linearGradient><linearGradient x1="240.00006" y1="165.75" x2="240.00006" y2="194.25007" gradientUnits="userSpaceOnUse" id="color-2"><stop offset="0" stop-color="#0092ac"/><stop offset="1" stop-color="#00313f"/></linearGradient><linearGradient x1="240.00006" y1="165.75" x2="240.00006" y2="194.25007" gradientUnits="userSpaceOnUse" id="color-3"><stop offset="0" stop-color="#edfbb0"/><stop offset="1" stop-color="#c3f8b0"/></linearGradient><linearGradient x1="240.00006" y1="165.75" x2="240.00006" y2="194.25004" gradientUnits="userSpaceOnUse" id="color-4"><stop offset="0" stop-color="#edfbb0"/><stop offset="1" stop-color="#c3f8b0"/></linearGradient><linearGradient x1="240.00006" y1="165.75" x2="240.00006" y2="194.25007" gradientUnits="userSpaceOnUse" id="color-5"><stop offset="0" stop-color="#9ef77e" stop-opacity="0.38546"/><stop offset="1" stop-color="#9ef77e" stop-opacity="0"/></linearGradient><linearGradient x1="240.00006" y1="165.75" x2="240.00006" y2="194.25007" gradientUnits="userSpaceOnUse" id="color-6"><stop offset="0" stop-color="#9ef77e" stop-opacity="0.38546"/><stop offset="1" stop-color="#9ef77e" stop-opacity="0"/></linearGradient><linearGradient x1="240.00006" y1="165.75" x2="240.00006" y2="194.25004" gradientUnits="userSpaceOnUse" id="color-7"><stop offset="0" stop-color="#9ef77e" stop-opacity="0.38546"/><stop offset="1" stop-color="#9ef77e" stop-opacity="0"/></linearGradient><linearGradient x1="234.38583" y1="175.20006" x2="234.38583" y2="181.90007" gradientUnits="userSpaceOnUse" id="color-8"><stop offset="0" stop-color="#73ddff" stop-opacity="0"/><stop offset="1" stop-color="#73ddff" stop-opacity="0.49735"/></linearGradient><linearGradient x1="234.38583" y1="188.60005" x2="234.38583" y2="181.90007" gradientUnits="userSpaceOnUse" id="color-9"><stop offset="0" stop-color="#73ddff" stop-opacity="0"/><stop offset="1" stop-color="#73ddff" stop-opacity="0.49735"/></linearGradient><linearGradient x1="245.61427" y1="175.20006" x2="245.61427" y2="181.90007" gradientUnits="userSpaceOnUse" id="color-10"><stop offset="0" stop-color="#73ddff" stop-opacity="0"/><stop offset="1" stop-color="#73ddff" stop-opacity="0.49735"/></linearGradient><linearGradient x1="245.61427" y1="188.60005" x2="245.61427" y2="181.90007" gradientUnits="userSpaceOnUse" id="color-11"><stop offset="0" stop-color="#73ddff" stop-opacity="0"/><stop offset="1" stop-color="#73ddff" stop-opacity="0.49735"/></linearGradient></defs><g transform="translate(-212.00005,-69.26135)"><g data-paper-data="{&quot;isPaintingLayer&quot;:true}" stroke="none" stroke-linecap="butt" stroke-linejoin="miter" stroke-miterlimit="10" stroke-dasharray="" stroke-dashoffset="0" style="mix-blend-mode: normal"><path d="M232.98197,169.85775l-8.96778,-100.59639h31.97167l-8.96778,100.5964z" fill="url(#color-1)" fill-rule="nonzero" stroke-width="0"/><path d="M232.94974,169.39472c0,-2.01289 1.63177,-3.64465 3.64465,-3.64465h6.81132c2.01286,0 3.64465,1.63177 3.64465,3.64465v0.71698v6.09434v7.88679v4.95912v1.55346c0,2.01286 -1.63179,3.64465 -3.64465,3.64465h-6.81132c-2.01289,0 -3.64465,-1.63179 -3.64465,-3.64465v-1.55346v-4.95912v-7.88679v-6.09434z" fill="url(#color-2)" fill-rule="evenodd" stroke-width="1"/><path d="M232.94976,169.39473c0,-2.01289 1.63176,-3.64465 3.64465,-3.64465c0,0 -0.19636,1.86302 -1.30004,2.80004c-0.83851,0.71189 -2.34461,0.84461 -2.34461,0.84461z" fill="url(#color-3)" fill-rule="evenodd" stroke-width="1"/><path d="M244.70574,168.55009c-1.10368,-0.93702 -1.30004,-2.80004 -1.30004,-2.80004c2.01289,0 3.64465,1.63176 3.64465,3.64465c0,0 -1.5061,-0.13272 -2.34461,-0.84461z" data-paper-data="{&quot;index&quot;:null}" fill="url(#color-4)" fill-rule="evenodd" stroke-width="1"/><path d="M232.94976,169.39473c0,-2.01289 1.63176,-3.64465 3.64465,-3.64465c0,0 -0.19636,1.86302 -1.30004,2.80004c-0.83851,0.71189 -2.34461,0.84461 -2.34461,0.84461z" fill="url(#color-5)" fill-rule="evenodd" stroke-width="1"/><path d="M232.94976,169.39473c0,-2.01289 1.63176,-3.64465 3.64465,-3.64465c0,0 -0.19636,1.86302 -1.30004,2.80004c-0.83851,0.71189 -2.34461,0.84461 -2.34461,0.84461z" fill="url(#color-6)" fill-rule="evenodd" stroke-width="1"/><path d="M244.70574,168.55009c-1.10368,-0.93702 -1.30004,-2.80004 -1.30004,-2.80004c2.01289,0 3.64465,1.63176 3.64465,3.64465c0,0 -1.5061,-0.13272 -2.34461,-0.84461z" data-paper-data="{&quot;index&quot;:null}" fill="url(#color-7)" fill-rule="evenodd" stroke-width="1"/><path d="M240.00004,169.39466c2.2396,0 4.05513,1.55245 4.05513,3.46749v17.74321h-8.11026v-17.74321c0,-1.91504 1.81555,-3.46749 4.05513,-3.46749z" fill-opacity="0.34166" fill="#ffffff" fill-rule="evenodd" stroke-width="1"/><path d="M240.00006,170.35005c1.74254,0 3.15513,1.4126 3.15513,3.15513v16.14486h-6.31026v-16.14486c0,-1.74253 1.4126,-3.15513 3.15513,-3.15513z" fill="#062832" fill-rule="evenodd" stroke-width="1"/><g fill-rule="nonzero" stroke-width="0"><g><path d="M233.52773,181.90007v-6.7h1.71627v6.7z" fill="url(#color-8)"/><path d="M235.24398,181.90007v6.7h-1.71627v-6.7z" data-paper-data="{&quot;index&quot;:null}" fill="url(#color-9)"/></g><g><path d="M244.75612,181.90007v-6.7h1.71627v6.7z" fill="url(#color-10)"/><path d="M246.47239,181.90007v6.7h-1.71627v-6.7z" data-paper-data="{&quot;index&quot;:null}" fill="url(#color-11)"/></g></g><path d="M228.00005,198.25003v-128.98868h24v128.98868z" fill="none" fill-rule="nonzero" stroke-width="0"/><path d="M212.00005,285.00005v-210h56v210z" fill="none" fill-rule="nonzero" stroke-width="0"/></g></g></svg>