<svg version="1.1" xmlns="http://www.w3.org/2000/svg" xmlns:xlink="http://www.w3.org/1999/xlink" width="15.4121" height="9.50089" viewBox="0,0,15.4121,9.50089"><g transform="translate(-232.29395,-175.24956)"><g data-paper-data="{&quot;isPaintingLayer&quot;:true}" fill="#60838a" fill-rule="nonzero" stroke="none" stroke-width="1" stroke-linecap="square" stroke-linejoin="miter" stroke-miterlimit="10" stroke-dasharray="" stroke-dashoffset="0" style="mix-blend-mode: normal"><path d="M232.29395,181.58973v-1.39497h6.71722v1.39497zM234.85768,184.10948v-6.50357h1.57719v6.50357z"/><path d="M244.28773,184.75041c-0.64931,0 -1.23788,-0.14033 -1.7657,-0.421c-0.52782,-0.28067 -0.96559,-0.68911 -1.31328,-1.22531l0.9614,-1.04936c0.39378,0.43986 0.74776,0.74357 1.06193,0.91113c0.31418,0.16338 0.65769,0.24506 1.03052,0.24506c0.33932,0 0.64303,-0.07331 0.91113,-0.21993c0.26811,-0.15081 0.48174,-0.35188 0.64093,-0.60323c0.16338,-0.25553 0.24506,-0.5362 0.24506,-0.84201c0,-0.33094 -0.0775,-0.62208 -0.23249,-0.87342c-0.15081,-0.25553 -0.35607,-0.4587 -0.6158,-0.60952c-0.25553,-0.155 -0.54877,-0.23249 -0.87971,-0.23249c-0.18013,0 -0.35188,0.01466 -0.51526,0.04399c-0.15919,0.02513 -0.34351,0.0775 -0.55296,0.1571c-0.20946,0.07959 -0.47546,0.20527 -0.79802,0.37702l-0.82944,-1.12477l0.54668,-4.0341h5.19029v1.5395h-4.21004l0.38959,-0.42729l-0.43986,2.97217l-0.49641,-0.3456c0.11311,-0.10892 0.28277,-0.21155 0.50898,-0.30789c0.2304,-0.10054 0.47965,-0.18222 0.74776,-0.24506c0.26811,-0.06284 0.53201,-0.09426 0.79174,-0.09426c0.58228,0 1.09964,0.13405 1.55206,0.40215c0.45661,0.26811 0.81897,0.63674 1.08707,1.10592c0.26811,0.46918 0.40215,1.00748 0.40215,1.6149c0,0.61999 -0.15081,1.17714 -0.45242,1.67145c-0.29742,0.49432 -0.70586,0.88809 -1.22531,1.18133c-0.51526,0.28905 -1.09545,0.43357 -1.74056,0.43357z"/></g></g></svg>