<svg version="1.1" xmlns="http://www.w3.org/2000/svg" xmlns:xlink="http://www.w3.org/1999/xlink" width="21.55556" height="21.55556" viewBox="0,0,21.55556,21.55556"><g transform="translate(-229.22234,-169.22222)"><g data-paper-data="{&quot;isPaintingLayer&quot;:true}" fill-rule="nonzero" stroke="none" stroke-linejoin="miter" stroke-miterlimit="10" stroke-dasharray="" stroke-dashoffset="0" style="mix-blend-mode: normal"><path d="M229.22235,190.77778v-21.55556h21.55556v21.55556z" fill="none" stroke-width="0" stroke-linecap="butt"/><path d="M239.71238,188.05601c-1.10114,0 -2.09926,-0.23799 -2.99438,-0.71396c-0.89512,-0.47598 -1.6375,-1.16863 -2.22714,-2.07795l1.6304,-1.77958c0.66779,0.74593 1.26809,1.26098 1.8009,1.54515c0.53281,0.27706 1.11535,0.41559 1.74761,0.41559c0.57543,0 1.09048,-0.12432 1.54515,-0.37296c0.45467,-0.25575 0.81698,-0.59675 1.08693,-1.02299c0.27706,-0.43335 0.41559,-0.90932 0.41559,-1.42793c0,-0.56123 -0.13143,-1.05496 -0.39427,-1.4812c-0.25575,-0.43335 -0.60385,-0.7779 -1.0443,-1.03365c-0.43335,-0.26285 -0.93064,-0.39427 -1.49186,-0.39427c-0.30548,0 -0.59675,0.02487 -0.87381,0.0746c-0.26995,0.04262 -0.58254,0.13143 -0.93774,0.26641c-0.3552,0.13498 -0.80632,0.3481 -1.35333,0.63937l-1.40661,-1.90745l0.92709,-6.84126h8.802v2.61077h-7.13964l0.66068,-0.72462l-0.74593,5.04037l-0.84183,-0.58609c0.19181,-0.1847 0.47953,-0.35876 0.86315,-0.52215c0.39073,-0.1705 0.81342,-0.30903 1.26809,-0.41559c0.45467,-0.10656 0.90222,-0.15984 1.34268,-0.15984c0.98747,0 1.86483,0.22733 2.63208,0.68199c0.77435,0.45467 1.38886,1.07982 1.84352,1.87549c0.45467,0.79566 0.68199,1.70854 0.68199,2.73864c0,1.05141 -0.25575,1.99625 -0.76724,2.83454c-0.50439,0.83829 -1.19704,1.50607 -2.07795,2.00336c-0.87381,0.49018 -1.85773,0.73528 -2.95176,0.73528z" fill="#60838a" stroke-width="1" stroke-linecap="square"/></g></g></svg>