<svg version="1.1" xmlns="http://www.w3.org/2000/svg" xmlns:xlink="http://www.w3.org/1999/xlink" width="244" height="49" viewBox="0,0,244,49"><g transform="translate(-118,-155.5)"><g data-paper-data="{&quot;isPaintingLayer&quot;:true}" fill-rule="nonzero" stroke="none" stroke-width="0" stroke-linecap="butt" stroke-linejoin="miter" stroke-miterlimit="10" stroke-dasharray="" stroke-dashoffset="0" style="mix-blend-mode: normal"><path d="M269.55612,160.82739l0.15863,38.61796l-59.30256,-0.09529l-0.12694,-38.79541z" fill-opacity="0.00392" fill="#ffffff"/><path d="M118,204.5v-49h244v49z" fill="none"/><g fill="#dcf9ff"><path d="M231.05775,189.06586c0,-2.74492 2.2252,-4.97012 4.97012,-4.97012c2.74492,0 4.97012,2.2252 4.97012,4.97012c0,2.74492 -2.2252,4.97012 -4.97012,4.97012c-2.74492,0 -4.97012,-2.2252 -4.97012,-4.97012z"/><path d="M231.05775,170.93414c0,-2.74492 2.2252,-4.97012 4.97012,-4.97012c2.74492,0 4.97012,2.2252 4.97012,4.97012c0,2.74492 -2.2252,4.97012 -4.97012,4.97012c-2.74492,0 -4.97012,-2.2252 -4.97012,-4.97012z"/><path d="M218.85597,180.14963c0,-2.74492 2.2252,-4.97012 4.97012,-4.97012c2.74492,0 4.97012,2.2252 4.97012,4.97012c0,2.74492 -2.2252,4.97012 -4.97012,4.97012c-2.74492,0 -4.97012,-2.2252 -4.97012,-4.97012z"/><g><path d="M251.20379,180.04442c0,-2.74492 2.2252,-4.97012 4.97012,-4.97012c2.74492,0 4.97012,2.2252 4.97012,4.97012c0,2.74492 -2.2252,4.97012 -4.97012,4.97012c-2.74492,0 -4.97012,-2.2252 -4.97012,-4.97012z"/><path d="M221.07922,184.21609l-0.10519,-8.18407l11.93096,-8.88357l8.10044,3.52128v4.40722h14.7423l0.05545,9.92862l-14.79773,0.10767v3.32408l-7.20536,5.08213z"/></g></g></g></g></svg>