<svg version="1.1" xmlns="http://www.w3.org/2000/svg" xmlns:xlink="http://www.w3.org/1999/xlink" width="244" height="49" viewBox="0,0,244,49"><g transform="translate(-118,-155.5)"><g data-paper-data="{&quot;isPaintingLayer&quot;:true}" fill-rule="nonzero" stroke="none" stroke-linejoin="miter" stroke-miterlimit="10" stroke-dasharray="" stroke-dashoffset="0" style="mix-blend-mode: normal"><path d="M185.25,180c0,-7.99195 6.47876,-14.47071 14.47071,-14.47071c7.99195,0 14.47071,6.47876 14.47071,14.47071c0,7.99195 -6.47876,14.47071 -14.47071,14.47071c-7.99195,0 -14.47071,-6.47876 -14.47071,-14.47071z" fill="#60838a" stroke-width="0" stroke-linecap="butt"/><path d="M199.72071,194.47071v-28.94142h80.55858v28.94142z" fill="#60838a" stroke-width="0" stroke-linecap="butt"/><path d="M265.80858,180c0,-7.99195 6.47876,-14.47071 14.47071,-14.47071c7.99195,0 14.47071,6.47876 14.47071,14.47071c0,7.99195 -6.47876,14.47071 -14.47071,14.47071c-7.99195,0 -14.47071,-6.47876 -14.47071,-14.47071z" fill="#60838a" stroke-width="0" stroke-linecap="butt"/><g fill="#ffffff" stroke-width="1" stroke-linecap="square"><path d="M216.42285,185.85155v-1.91406h1.91407v-7.83594h-1.91406v-1.91406h6v1.91406h-1.92187v7.83594h1.92188v1.91407z"/><path d="M226.55587,185.85155v-11.66406h1.94531l6.76563,9.11719l-0.36718,0.0625c-0.04166,-0.3125 -0.08073,-0.63021 -0.11719,-0.95312c-0.03125,-0.32812 -0.0625,-0.66927 -0.09375,-1.02344c-0.02604,-0.35937 -0.04687,-0.73177 -0.0625,-1.11719c-0.01562,-0.39062 -0.03125,-0.79948 -0.04687,-1.22656c-0.01041,-0.42709 -0.01562,-0.88021 -0.01562,-1.35937v-3.5h2.15625v11.66407h-1.98437l-6.79687,-8.98437l0.42969,-0.11719c0.05729,0.625 0.10416,1.15625 0.14063,1.59375c0.04166,0.4375 0.07291,0.8151 0.09375,1.13281c0.02084,0.31771 0.03906,0.58334 0.05469,0.79688c0.02084,0.20834 0.03386,0.39844 0.03907,0.57031c0.00521,0.17188 0.00781,0.33594 0.00781,0.49219v4.51563z"/><path d="M241.21991,185.85155v-11.66406h2.16406v11.66406zM242.2121,181.0703v-1.96875h6.01563v1.96875zM242.2121,176.18749v-2h6.73438v2z"/><path d="M257.74901,186.01561c-0.83334,0 -1.60677,-0.14844 -2.32031,-0.44531c-0.70834,-0.30209 -1.32812,-0.72135 -1.85937,-1.25781c-0.52604,-0.54166 -0.93489,-1.17709 -1.22656,-1.90625c-0.28646,-0.73437 -0.42969,-1.53646 -0.42969,-2.40625c0,-0.86459 0.14323,-1.66406 0.42969,-2.39844c0.29166,-0.73437 0.70052,-1.36979 1.22656,-1.90625c0.53125,-0.54166 1.15104,-0.96094 1.85938,-1.25781c0.71354,-0.30209 1.48698,-0.45312 2.32032,-0.45312c0.84375,0 1.61979,0.15104 2.32813,0.45313c0.71354,0.29688 1.33073,0.71875 1.85156,1.26563c0.52083,0.54688 0.92448,1.18489 1.21094,1.91406c0.29166,0.72396 0.4375,1.51823 0.4375,2.38281c0,0.85938 -0.14584,1.65625 -0.4375,2.39063c-0.28646,0.72916 -0.69011,1.36719 -1.21094,1.91407c-0.52083,0.54166 -1.13802,0.96354 -1.85156,1.26563c-0.70834,0.29688 -1.48437,0.44531 -2.32812,0.44531zM257.74901,183.95311c0.53125,0 1.01563,-0.09636 1.45313,-0.28906c0.44271,-0.19791 0.82292,-0.47656 1.14063,-0.83593c0.32292,-0.35937 0.57552,-0.77865 0.75781,-1.25781c0.1875,-0.47916 0.28125,-1.00261 0.28125,-1.57031c0,-0.5625 -0.09375,-1.08334 -0.28125,-1.5625c-0.18229,-0.47916 -0.43489,-0.89844 -0.75781,-1.25781c-0.31771,-0.36459 -0.69792,-0.64323 -1.14062,-0.83594c-0.4375,-0.19271 -0.92188,-0.28906 -1.45313,-0.28906c-0.52604,0 -1.01041,0.09635 -1.45312,0.28906c-0.44271,0.19271 -0.82552,0.46875 -1.14843,0.82813c-0.32291,0.35416 -0.57291,0.77084 -0.75,1.25c-0.17709,0.47396 -0.26562,1 -0.26562,1.57813c0,0.56771 0.08854,1.09375 0.26563,1.57813c0.17709,0.48438 0.42709,0.90364 0.75,1.25781c0.32291,0.35416 0.70573,0.63021 1.14844,0.82813c0.44271,0.19271 0.92709,0.28906 1.45313,0.28906z"/></g><path d="M118,204.5v-49h244v49z" fill="none" stroke-width="0" stroke-linecap="butt"/></g></g></svg>