<svg version="1.1" xmlns="http://www.w3.org/2000/svg" xmlns:xlink="http://www.w3.org/1999/xlink" width="21.55556" height="21.55556" viewBox="0,0,21.55556,21.55556"><g transform="translate(-229.22227,-169.22222)"><g data-paper-data="{&quot;isPaintingLayer&quot;:true}" fill-rule="nonzero" stroke="none" stroke-linejoin="miter" stroke-miterlimit="10" stroke-dasharray="" stroke-dashoffset="0" style="mix-blend-mode: normal"><path d="M229.22227,190.77778v-21.55556h21.55556v21.55556z" fill="none" stroke-width="0" stroke-linecap="butt"/><path d="M239.9094,188.08799c-1.17929,0 -2.20938,-0.2593 -3.09029,-0.7779c-0.88091,-0.5257 -1.69078,-1.41727 -2.42961,-2.6747l2.22714,-1.40661c0.3481,0.56123 0.70686,1.01234 1.07628,1.35334c0.36942,0.341 0.74593,0.59319 1.12955,0.75659c0.39073,0.15629 0.80632,0.23444 1.24678,0.23444c0.49729,0 0.9555,-0.12077 1.37465,-0.36231c0.41914,-0.24864 0.75304,-0.58254 1.00168,-1.00168c0.24864,-0.42625 0.37297,-0.91288 0.37297,-1.45989c0,-0.54701 -0.10301,-1.00879 -0.30903,-1.3853c-0.19892,-0.37652 -0.49374,-0.66779 -0.88446,-0.87381c-0.38362,-0.20602 -0.84894,-0.30903 -1.39596,-0.30903c-0.24154,0 -0.50084,0.02842 -0.7779,0.08525c-0.26995,0.04973 -0.55767,0.12432 -0.86315,0.22378c-0.29837,0.09946 -0.62871,0.21668 -0.99102,0.35166l-0.73527,-1.92876l4.52888,-5.0084l0.68199,0.66068l-6.70273,-0.04262v-2.61076h9.33481l0.54347,1.08693l-5.22152,5.70106l-0.68199,-0.74593c0.12077,-0.06394 0.31969,-0.12077 0.59675,-0.1705c0.28417,-0.04973 0.53281,-0.07459 0.74593,-0.07459c0.66068,0 1.29295,0.12432 1.8968,0.37297c0.61095,0.24864 1.14021,0.6003 1.58777,1.05496c0.44756,0.45467 0.79922,0.98037 1.05496,1.57711c0.25575,0.59675 0.38362,1.24678 0.38362,1.95008c0,1.0443 -0.25219,1.9714 -0.75658,2.78126c-0.50439,0.80987 -1.18994,1.45279 -2.05664,1.92877c-0.8667,0.47598 -1.82931,0.71397 -2.88782,0.71397z" fill="#60838a" stroke-width="1" stroke-linecap="square"/></g></g></svg>