<svg version="1.1" xmlns="http://www.w3.org/2000/svg" xmlns:xlink="http://www.w3.org/1999/xlink" width="244" height="49" viewBox="0,0,244,49"><g transform="translate(-118,-155.5)"><g data-paper-data="{&quot;isPaintingLayer&quot;:true}" fill-rule="nonzero" stroke="none" stroke-width="0" stroke-linecap="butt" stroke-linejoin="miter" stroke-miterlimit="10" stroke-dasharray="" stroke-dashoffset="0" style="mix-blend-mode: normal"><path d="M118,204.5v-49h244v49z" fill="none"/><path d="M220.88577,180c0,-5.09553 4.13075,-9.22629 9.22629,-9.22629c5.09553,0 9.22628,4.13075 9.22628,9.22629c0,5.09553 -4.13074,9.22629 -9.22628,9.22629c-5.09553,0 -9.22629,-4.13075 -9.22629,-9.22629z" fill="#60838a"/><path d="M229.18196,189.22629v-18.45258h20.70599v18.45258z" fill="#60838a"/><path d="M240.66166,180c0,-5.09553 4.13074,-9.22629 9.22628,-9.22629c5.09553,0 9.22628,4.13075 9.22628,9.22629c0,5.09553 -4.13075,9.22629 -9.22628,9.22629c-5.09553,0 -9.22628,-4.13075 -9.22628,-9.22629z" fill="#60838a"/><path d="M244.36885,180c0,-3.04811 2.47098,-5.51909 5.51911,-5.51909c3.04811,0 5.51909,2.47098 5.51909,5.51909c0,3.04811 -2.47098,5.51911 -5.51909,5.51911c-3.04811,0 -5.51911,-2.47098 -5.51911,-5.51911z" fill="#ffffff"/></g></g></svg>