<svg version="1.1" xmlns="http://www.w3.org/2000/svg" xmlns:xlink="http://www.w3.org/1999/xlink" width="192.41667" height="36.65079" viewBox="0,0,192.41667,36.65079"><g transform="translate(-143.79167,-161.67461)"><g data-paper-data="{&quot;isPaintingLayer&quot;:true}" fill-rule="nonzero" stroke="none" stroke-linejoin="miter" stroke-miterlimit="10" stroke-dasharray="" stroke-dashoffset="0" style="mix-blend-mode: normal"><path d="M207.14162,186.49309c-0.73082,0 -1.40263,-0.09276 -2.01538,-0.27828c-0.61277,-0.18551 -1.1665,-0.46379 -1.66121,-0.83482c-0.48908,-0.37103 -0.92477,-0.82077 -1.30705,-1.34921l1.52629,-1.72867c0.59028,0.81515 1.1665,1.38014 1.72867,1.69495c0.5678,0.3092 1.20305,0.46379 1.90576,0.46379c0.41039,0 0.78142,-0.06184 1.1131,-0.18551c0.3373,-0.12368 0.60152,-0.29513 0.79267,-0.51438c0.19676,-0.22486 0.29513,-0.48347 0.29513,-0.77579c0,-0.20238 -0.03935,-0.39071 -0.11805,-0.56498c-0.07871,-0.17427 -0.19676,-0.32887 -0.35417,-0.46379c-0.1574,-0.14053 -0.35136,-0.26984 -0.58184,-0.3879c-0.22486,-0.11805 -0.48066,-0.21925 -0.76736,-0.30357c-0.28671,-0.08433 -0.60433,-0.16303 -0.95287,-0.23611c-0.65774,-0.13492 -1.23396,-0.312 -1.72867,-0.53125c-0.48908,-0.21925 -0.90229,-0.49471 -1.23959,-0.82638c-0.3373,-0.33168 -0.58466,-0.70272 -0.74208,-1.1131c-0.15179,-0.41601 -0.22767,-0.88823 -0.22767,-1.41667c0,-0.52845 0.11524,-1.01472 0.34574,-1.45884c0.23611,-0.44412 0.55654,-0.82638 0.96132,-1.14683c0.41039,-0.32607 0.88541,-0.57904 1.42511,-0.75892c0.53968,-0.1799 1.12154,-0.26984 1.74554,-0.26984c0.70833,0 1.34078,0.08433 1.89733,0.25297c0.55654,0.16865 1.04845,0.41882 1.4757,0.75049c0.42725,0.32607 0.7786,0.7252 1.05408,1.19743l-1.55159,1.52629c-0.23611,-0.37103 -0.50595,-0.68023 -0.80954,-0.92759c-0.29796,-0.24735 -0.6212,-0.43288 -0.96975,-0.55654c-0.34855,-0.1293 -0.71396,-0.19395 -1.09624,-0.19395c-0.43288,0 -0.80954,0.06184 -1.12997,0.18551c-0.31481,0.11805 -0.56217,0.28952 -0.74208,0.51438c-0.1799,0.21925 -0.26984,0.48628 -0.26984,0.80109c0,0.23611 0.0534,0.44692 0.16021,0.63244c0.11244,0.18551 0.26704,0.35136 0.46379,0.49752c0.19676,0.14053 0.44973,0.26704 0.75892,0.37946c0.31481,0.10681 0.66898,0.20238 1.06251,0.28671c0.66336,0.1293 1.25646,0.30639 1.77928,0.53125c0.52845,0.21925 0.97818,0.48347 1.34921,0.79267c0.37666,0.30357 0.66055,0.65212 0.8517,1.04564c0.19115,0.3879 0.28671,0.82077 0.28671,1.29862c0,0.82638 -0.19676,1.53755 -0.59028,2.13344c-0.3879,0.59028 -0.93602,1.04564 -1.64436,1.36608c-0.70272,0.31481 -1.52911,0.47222 -2.47917,0.47222z" data-paper-data="{&quot;index&quot;:null}" fill="#60838a" stroke-width="1" stroke-linecap="square"/><path d="M223.97517,186.316v-12.58985h2.34425v12.58985zM215.9052,186.316v-12.58985h2.33582v12.58985zM216.87494,181.1384v-2.2009h8.23863v2.2009z" data-paper-data="{&quot;index&quot;:null}" fill="#60838a" stroke-width="1" stroke-linecap="square"/><path d="M230.81405,186.316v-2.06598h2.06598v-8.45788h-2.06598v-2.06598h6.47623v2.06598h-2.07441v8.45788h2.07441v2.06598z" data-paper-data="{&quot;index&quot;:null}" fill="#60838a" stroke-width="1" stroke-linecap="square"/><path d="M241.75134,186.316v-12.58985h8.23019v2.125h-5.92811v8.33982h6.004v2.125zM242.82227,180.91914v-2.08284h6.24854v2.08284z" data-paper-data="{&quot;index&quot;:null}" fill="#60838a" stroke-width="1" stroke-linecap="square"/><path d="M254.46755,186.316v-12.58985h2.33582v10.4311h5.81002v2.15874z" data-paper-data="{&quot;index&quot;:null}" fill="#60838a" stroke-width="1" stroke-linecap="square"/><path d="M266.77005,186.316v-12.58985h5.05111c0.91071,0 1.7343,0.15179 2.47074,0.45536c0.73644,0.29796 1.3717,0.72801 1.90576,1.29019c0.53406,0.56217 0.94164,1.22835 1.22272,1.99852c0.28109,0.76456 0.42162,1.61343 0.42162,2.54665c0,0.93883 -0.14053,1.79613 -0.42162,2.57195c-0.28109,0.77018 -0.68585,1.43354 -1.21429,1.99008c-0.52845,0.55654 -1.1637,0.98662 -1.90576,1.29019c-0.74208,0.29796 -1.56846,0.44692 -2.47917,0.44692zM269.10588,184.50299l-0.18551,-0.34574h2.80805c0.59028,0 1.11591,-0.09557 1.5769,-0.28671c0.46099,-0.19115 0.8517,-0.4666 1.17213,-0.82638c0.32607,-0.35978 0.57341,-0.79267 0.74208,-1.29862c0.16865,-0.51158 0.25297,-1.0878 0.25297,-1.72867c0,-0.63526 -0.08433,-1.20587 -0.25297,-1.71182c-0.16865,-0.51158 -0.41882,-0.94726 -0.75049,-1.30705c-0.32607,-0.35978 -0.71677,-0.63526 -1.17213,-0.82638c-0.45536,-0.19115 -0.97818,-0.28671 -1.56846,-0.28671h-2.85865l0.23611,-0.30357z" data-paper-data="{&quot;index&quot;:null}" fill="#60838a" stroke-width="1" stroke-linecap="square"/><path d="M143.79167,198.3254v-36.65079h192.41667v36.65079z" fill="none" stroke-width="0" stroke-linecap="butt"/></g></g></svg>