<svg version="1.1" xmlns="http://www.w3.org/2000/svg" xmlns:xlink="http://www.w3.org/1999/xlink" width="112.33333" height="25.33333" viewBox="0,0,112.33333,25.33333"><g transform="translate(-183.83333,-167.33333)"><g data-paper-data="{&quot;isPaintingLayer&quot;:true}" fill-rule="nonzero" stroke="none" stroke-linejoin="miter" stroke-miterlimit="10" stroke-dasharray="" stroke-dashoffset="0" style="mix-blend-mode: normal"><path d="M197.15303,185.2776v-10.51996h1.7545l6.102,8.2229l-0.33117,0.05637c-0.03758,-0.28185 -0.07281,-0.56839 -0.10569,-0.85963c-0.02819,-0.29594 -0.05637,-0.60363 -0.08455,-0.92305c-0.02349,-0.32413 -0.04228,-0.65999 -0.05637,-1.00761c-0.01409,-0.35231 -0.02819,-0.72106 -0.04228,-1.10625c-0.00939,-0.38519 -0.01409,-0.79387 -0.01409,-1.22604v-3.15669h1.94475v10.51996h-1.78973l-6.13018,-8.10311l0.38754,-0.10569c0.05167,0.56369 0.09395,1.04284 0.12683,1.43742c0.03758,0.39459 0.06577,0.73515 0.08455,1.0217c0.01879,0.28655 0.03523,0.52611 0.04933,0.71871c0.01879,0.1879 0.03053,0.35935 0.03523,0.51437c0.0047,0.15501 0.00705,0.30299 0.00705,0.44391v4.07269z" fill="#dcfaff" stroke-width="1" stroke-linecap="square"/><path d="M210.37869,185.2776v-10.51996h6.87708v1.77564h-4.95347v6.96868h5.01689v1.77564zM211.27356,180.76804v-1.74041h5.22123v1.74041z" fill="#dcfaff" stroke-width="1" stroke-linecap="square"/><path d="M223.11808,185.2776l-3.27648,-10.51996h2.0434l1.86724,6.20769c0.06107,0.1879 0.11509,0.39693 0.16206,0.62711c0.05167,0.23017 0.0963,0.458 0.13388,0.68348c0.04228,0.22548 0.07751,0.43451 0.10569,0.62711c0.03288,0.19259 0.06341,0.35231 0.0916,0.47914l-0.40163,-0.01409c0.11743,-0.46975 0.21139,-0.85024 0.28185,-1.14148c0.07046,-0.29124 0.13388,-0.53316 0.19025,-0.72576c0.05637,-0.19729 0.11274,-0.38049 0.16911,-0.54961l1.77564,-4.53775h1.66994l1.72632,4.53775c0.09865,0.27715 0.1879,0.54491 0.26775,0.80327c0.08455,0.25366 0.15267,0.50498 0.20434,0.75394c0.05637,0.24427 0.11039,0.49558 0.16206,0.75394l-0.35935,0.07751c0.03758,-0.23957 0.06577,-0.43451 0.08455,-0.58483c0.02349,-0.15032 0.04463,-0.28655 0.06341,-0.40868c0.01879,-0.12213 0.03758,-0.23957 0.05637,-0.35231c0.02349,-0.11743 0.05637,-0.25836 0.09865,-0.42277c0.04697,-0.16441 0.10569,-0.3758 0.17615,-0.63416l1.8461,-6.1795h2.0293l-3.29057,10.51996h-1.41628l-2.6705,-6.40498l0.17615,0.06341l-2.53663,6.34157z" fill="#dcfaff" stroke-width="1" stroke-linecap="square"/><path d="M242.8415,185.2776v-10.51996h4.47433c0.69053,0 1.27301,0.10099 1.74746,0.30299c0.47914,0.19729 0.84085,0.49558 1.08511,0.89487c0.24427,0.39459 0.3664,0.87138 0.3664,1.43038c0,0.58249 -0.15501,1.07572 -0.46505,1.4797c-0.31003,0.39929 -0.74455,0.67409 -1.30354,0.82441l-0.01409,-0.30299c0.46975,0.09865 0.87843,0.27715 1.22604,0.53551c0.35231,0.25366 0.62476,0.56839 0.81736,0.94419c0.19729,0.3758 0.29594,0.80327 0.29594,1.2824c0,0.51203 -0.08221,0.96298 -0.24662,1.35287c-0.16441,0.38989 -0.40868,0.71637 -0.73281,0.97942c-0.31943,0.25836 -0.69992,0.45565 -1.14148,0.59188c-0.43687,0.13623 -0.93245,0.20434 -1.48674,0.20434zM244.74397,183.51605h2.63528c0.3711,0 0.68348,-0.05402 0.93715,-0.16206c0.25366,-0.10804 0.44861,-0.27011 0.58483,-0.48619c0.13623,-0.21609 0.20434,-0.47445 0.20434,-0.77508c0,-0.28185 -0.07281,-0.52142 -0.21843,-0.71871c-0.14562,-0.20199 -0.35466,-0.35466 -0.62711,-0.458c-0.26775,-0.10804 -0.58718,-0.16206 -0.95828,-0.16206h-2.55777zM244.74397,179.06991h2.3957c0.28655,0 0.53786,-0.05402 0.75394,-0.16206c0.21609,-0.11274 0.38285,-0.26306 0.50028,-0.45096c0.12213,-0.19259 0.1832,-0.41338 0.1832,-0.66234c0,-0.40398 -0.13623,-0.71871 -0.40868,-0.94419c-0.26775,-0.22548 -0.66234,-0.33822 -1.18376,-0.33822h-2.24069z" fill="#dcfaff" stroke-width="1" stroke-linecap="square"/><path d="M254.41393,185.2776v-10.51996h6.87708v1.77564h-4.95347v6.96868h5.01689v1.77564zM255.3088,180.76804v-1.74041h5.22123v1.74041z" fill="#dcfaff" stroke-width="1" stroke-linecap="square"/><path d="M268.37231,185.42557c-0.61067,0 -1.17202,-0.07751 -1.68404,-0.23253c-0.51203,-0.15501 -0.97472,-0.38754 -1.3881,-0.69757c-0.40868,-0.31003 -0.77273,-0.68583 -1.09216,-1.12739l1.27536,-1.44447c0.49323,0.68113 0.97472,1.15322 1.44447,1.41628c0.47445,0.25836 1.00526,0.38754 1.59244,0.38754c0.34291,0 0.65295,-0.05167 0.9301,-0.15501c0.28185,-0.10335 0.50263,-0.24662 0.66234,-0.42982c0.16441,-0.1879 0.24662,-0.40398 0.24662,-0.64825c0,-0.16911 -0.03288,-0.32647 -0.09865,-0.47209c-0.06577,-0.14562 -0.16441,-0.2748 -0.29594,-0.38754c-0.13153,-0.11743 -0.29359,-0.22548 -0.48619,-0.32413c-0.1879,-0.09865 -0.40163,-0.1832 -0.64121,-0.25366c-0.23957,-0.07046 -0.50498,-0.13623 -0.79622,-0.19729c-0.54961,-0.11274 -1.03109,-0.26071 -1.44447,-0.44391c-0.40868,-0.1832 -0.75394,-0.41338 -1.03579,-0.69053c-0.28185,-0.27715 -0.48853,-0.58718 -0.62007,-0.9301c-0.12683,-0.34761 -0.19025,-0.7422 -0.19025,-1.18376c0,-0.44156 0.0963,-0.84789 0.28889,-1.21899c0.19729,-0.3711 0.46505,-0.69053 0.80327,-0.95828c0.34291,-0.27245 0.73985,-0.48384 1.1908,-0.63416c0.45096,-0.15032 0.93715,-0.22548 1.45856,-0.22548c0.59188,0 1.12034,0.07046 1.58539,0.21139c0.46505,0.14093 0.87608,0.34996 1.23308,0.62711c0.35701,0.27245 0.6506,0.60597 0.88077,1.00056l-1.2965,1.27536c-0.19729,-0.31003 -0.42277,-0.56839 -0.67643,-0.77508c-0.24897,-0.20669 -0.51907,-0.36171 -0.81031,-0.46505c-0.29124,-0.10804 -0.59658,-0.16206 -0.91601,-0.16206c-0.36171,0 -0.67643,0.05167 -0.94419,0.15501c-0.26306,0.09865 -0.46975,0.24192 -0.62007,0.42982c-0.15032,0.1832 -0.22548,0.40633 -0.22548,0.66939c0,0.19729 0.04463,0.37345 0.13388,0.52847c0.09395,0.15501 0.22313,0.29359 0.38754,0.41573c0.16441,0.11743 0.3758,0.22313 0.63416,0.31708c0.26306,0.08925 0.559,0.16911 0.88782,0.23957c0.5543,0.10804 1.04988,0.25601 1.48674,0.44391c0.44156,0.1832 0.81736,0.40398 1.12739,0.66234c0.31473,0.25366 0.55195,0.54491 0.71167,0.87373c0.15971,0.32413 0.23957,0.68583 0.23957,1.08511c0,0.69053 -0.16441,1.28476 -0.49323,1.78268c-0.32413,0.49323 -0.78213,0.87373 -1.374,1.14148c-0.58718,0.26306 -1.27771,0.39459 -2.07158,0.39459z" fill="#dcfaff" stroke-width="1" stroke-linecap="square"/><path d="M277.79485,185.2776v-8.71613h-3.00168v-1.80382h8.05379v1.80382h-3.10032v8.71613z" fill="#dcfaff" stroke-width="1" stroke-linecap="square"/><path d="M183.83333,192.66667v-25.33333h112.33333v25.33333z" fill="none" stroke-width="0" stroke-linecap="butt"/></g></g></svg>