<svg version="1.1" xmlns="http://www.w3.org/2000/svg" xmlns:xlink="http://www.w3.org/1999/xlink" width="479.9777" height="362" viewBox="0,0,479.9777,362"><defs><linearGradient x1="239.90285" y1="-1" x2="239.90285" y2="359" gradientUnits="userSpaceOnUse" id="color-1"><stop offset="0" stop-color="#000000"/><stop offset="1" stop-color="#005d6f"/></linearGradient><linearGradient x1="171.54219" y1="1" x2="171.54219" y2="361" gradientUnits="userSpaceOnUse" id="color-2"><stop offset="0" stop-color="#11dbe7" stop-opacity="0"/><stop offset="1" stop-color="#11dbe7"/></linearGradient><linearGradient x1="308.26351" y1="1" x2="308.26351" y2="361" gradientUnits="userSpaceOnUse" id="color-3"><stop offset="0" stop-color="#11dbe7" stop-opacity="0"/><stop offset="1" stop-color="#11dbe7"/></linearGradient><linearGradient x1="70.00557" y1="181" x2="209.00558" y2="181" gradientUnits="userSpaceOnUse" id="color-4"><stop offset="0" stop-color="#000000" stop-opacity="0.70805"/><stop offset="1" stop-color="#000000" stop-opacity="0"/></linearGradient><linearGradient x1="409.99443" y1="181" x2="270.99443" y2="181" gradientUnits="userSpaceOnUse" id="color-5"><stop offset="0" stop-color="#000000" stop-opacity="0.70805"/><stop offset="1" stop-color="#000000" stop-opacity="0"/></linearGradient><linearGradient x1="126.01115" y1="181" x2="219.21686" y2="181" gradientUnits="userSpaceOnUse" id="color-6"><stop offset="0" stop-color="#000000" stop-opacity="0.70805"/><stop offset="1" stop-color="#000000" stop-opacity="0"/></linearGradient><linearGradient x1="353.98885" y1="181" x2="260.78315" y2="181" gradientUnits="userSpaceOnUse" id="color-7"><stop offset="0" stop-color="#000000" stop-opacity="0.70805"/><stop offset="1" stop-color="#000000" stop-opacity="0"/></linearGradient><linearGradient x1="126.01115" y1="181" x2="219.21686" y2="181" gradientUnits="userSpaceOnUse" id="color-8"><stop offset="0" stop-color="#000000" stop-opacity="0.70805"/><stop offset="1" stop-color="#000000" stop-opacity="0"/></linearGradient><linearGradient x1="353.98885" y1="181" x2="260.78315" y2="181" gradientUnits="userSpaceOnUse" id="color-9"><stop offset="0" stop-color="#000000" stop-opacity="0.70805"/><stop offset="1" stop-color="#000000" stop-opacity="0"/></linearGradient></defs><g transform="translate(-0.01115,1)"><g data-paper-data="{&quot;isPaintingLayer&quot;:true}" fill-rule="nonzero" stroke="none" stroke-linecap="butt" stroke-linejoin="miter" stroke-miterlimit="10" stroke-dasharray="" stroke-dashoffset="0" style="mix-blend-mode: normal"><path d="M0.01115,0h479.9777v360h-479.9777z" fill="#000000" stroke-width="1.00207"/><path d="M125.914,-1h227.9777v360h-227.9777z" fill="url(#color-1)" stroke-width="1.00207"/><g stroke-width="0"><path d="M170.40285,361v-360h2.27869v360z" fill="url(#color-2)"/><path d="M307.12416,361v-360h2.27869v360z" fill="url(#color-3)"/></g><g stroke-width="0"><path d="M70.00557,361v-360h139v360z" fill="url(#color-4)"/><path d="M270.99443,361v-360h139v360z" data-paper-data="{&quot;index&quot;:null}" fill="url(#color-5)"/></g><g stroke-width="0"><path d="M126.01115,361v-360h93.2057v360z" fill="url(#color-6)"/><path d="M260.78315,361v-360h93.2057v360z" data-paper-data="{&quot;index&quot;:null}" fill="url(#color-7)"/></g><g stroke-width="0"><path d="M126.01115,361v-360h93.2057v360z" fill="url(#color-8)"/><path d="M260.78315,361v-360h93.2057v360z" data-paper-data="{&quot;index&quot;:null}" fill="url(#color-9)"/></g></g></g></svg>