<svg version="1.1" xmlns="http://www.w3.org/2000/svg" xmlns:xlink="http://www.w3.org/1999/xlink" width="139.15228" height="396.164" viewBox="0,0,139.15228,396.164"><defs><linearGradient x1="240.00004" y1="163.15723" x2="240.00004" y2="173.83155" gradientUnits="userSpaceOnUse" id="color-1"><stop offset="0" stop-color="#2f7888"/><stop offset="1" stop-color="#2f7888" stop-opacity="0"/></linearGradient><linearGradient x1="240.00004" y1="163.24275" x2="240.00004" y2="152.56845" gradientUnits="userSpaceOnUse" id="color-2"><stop offset="0" stop-color="#2f7888"/><stop offset="1" stop-color="#2f7888" stop-opacity="0"/></linearGradient><linearGradient x1="239.97061" y1="216.85724" x2="239.97061" y2="227.53155" gradientUnits="userSpaceOnUse" id="color-3"><stop offset="0" stop-color="#2f7888"/><stop offset="1" stop-color="#2f7888" stop-opacity="0"/></linearGradient><linearGradient x1="239.97061" y1="216.94276" x2="239.97061" y2="206.26845" gradientUnits="userSpaceOnUse" id="color-4"><stop offset="0" stop-color="#2f7888"/><stop offset="1" stop-color="#2f7888" stop-opacity="0"/></linearGradient><linearGradient x1="240.31506" y1="109.65724" x2="240.31506" y2="120.33155" gradientUnits="userSpaceOnUse" id="color-5"><stop offset="0" stop-color="#2f7888"/><stop offset="1" stop-color="#2f7888" stop-opacity="0"/></linearGradient><linearGradient x1="240.31506" y1="109.74276" x2="240.31506" y2="99.06845" gradientUnits="userSpaceOnUse" id="color-6"><stop offset="0" stop-color="#2f7888"/><stop offset="1" stop-color="#2f7888" stop-opacity="0"/></linearGradient><linearGradient x1="240.31506" y1="56.3239" x2="240.31506" y2="66.99821" gradientUnits="userSpaceOnUse" id="color-7"><stop offset="0" stop-color="#2f7888"/><stop offset="1" stop-color="#2f7888" stop-opacity="0"/></linearGradient><linearGradient x1="240.31506" y1="56.40942" x2="240.31506" y2="45.73511" gradientUnits="userSpaceOnUse" id="color-8"><stop offset="0" stop-color="#2f7888"/><stop offset="1" stop-color="#2f7888" stop-opacity="0"/></linearGradient><linearGradient x1="240.31506" y1="2.65724" x2="240.31506" y2="13.33155" gradientUnits="userSpaceOnUse" id="color-9"><stop offset="0" stop-color="#2f7888"/><stop offset="1" stop-color="#2f7888" stop-opacity="0"/></linearGradient><linearGradient x1="240.31506" y1="2.74276" x2="240.31506" y2="-7.93155" gradientUnits="userSpaceOnUse" id="color-10"><stop offset="0" stop-color="#2f7888"/><stop offset="1" stop-color="#2f7888" stop-opacity="0"/></linearGradient><linearGradient x1="240.31506" y1="270.49057" x2="240.31506" y2="281.16488" gradientUnits="userSpaceOnUse" id="color-11"><stop offset="0" stop-color="#2f7888"/><stop offset="1" stop-color="#2f7888" stop-opacity="0"/></linearGradient><linearGradient x1="240.31506" y1="270.57609" x2="240.31506" y2="259.90178" gradientUnits="userSpaceOnUse" id="color-12"><stop offset="0" stop-color="#2f7888"/><stop offset="1" stop-color="#2f7888" stop-opacity="0"/></linearGradient><linearGradient x1="240.31506" y1="323.99057" x2="240.31506" y2="334.66488" gradientUnits="userSpaceOnUse" id="color-13"><stop offset="0" stop-color="#2f7888"/><stop offset="1" stop-color="#2f7888" stop-opacity="0"/></linearGradient><linearGradient x1="240.31506" y1="324.07609" x2="240.31506" y2="313.40178" gradientUnits="userSpaceOnUse" id="color-14"><stop offset="0" stop-color="#2f7888"/><stop offset="1" stop-color="#2f7888" stop-opacity="0"/></linearGradient><linearGradient x1="240.31506" y1="377.55813" x2="240.31506" y2="388.23244" gradientUnits="userSpaceOnUse" id="color-15"><stop offset="0" stop-color="#2f7888"/><stop offset="1" stop-color="#2f7888" stop-opacity="0"/></linearGradient><linearGradient x1="240.31506" y1="377.64365" x2="240.31506" y2="366.96934" gradientUnits="userSpaceOnUse" id="color-16"><stop offset="0" stop-color="#2f7888"/><stop offset="1" stop-color="#2f7888" stop-opacity="0"/></linearGradient></defs><g transform="translate(-170.59608,7.93156)"><g data-paper-data="{&quot;isPaintingLayer&quot;:true}" fill-rule="nonzero" stroke="none" stroke-width="0" stroke-linecap="butt" stroke-linejoin="miter" stroke-miterlimit="10" stroke-dasharray="" stroke-dashoffset="0" style="mix-blend-mode: normal"><g><path d="M307.41113,166.45926v-6.51852h2.02222v6.51852z" data-paper-data="{&quot;index&quot;:null}" fill="#295962"/><path d="M170.62551,166.45926v-6.51852h2.02222v6.51852z" data-paper-data="{&quot;index&quot;:null}" fill="#295962"/><path d="M237.46095,173.83155v-10.67432h5.07816v10.67432z" fill="url(#color-1)"/><path d="M242.53911,152.56845v10.67432h-5.07818v-10.67432z" fill="url(#color-2)"/></g><g><path d="M307.38171,220.15926v-6.51852h2.02222v6.51852z" data-paper-data="{&quot;index&quot;:null}" fill="#295962"/><path d="M170.59609,220.15926v-6.51852h2.02222v6.51852z" data-paper-data="{&quot;index&quot;:null}" fill="#295962"/><path d="M237.43153,227.53155v-10.67432h5.07816v10.67432z" fill="url(#color-3)"/><path d="M242.50969,206.26845v10.67432h-5.07818v-10.67432z" fill="url(#color-4)"/></g><g><path d="M307.72614,112.95926v-6.51852h2.02222v6.51852z" data-paper-data="{&quot;index&quot;:null}" fill="#295962"/><path d="M170.94053,112.95926v-6.51852h2.02222v6.51852z" data-paper-data="{&quot;index&quot;:null}" fill="#295962"/><path d="M237.77597,120.33155v-10.67432h5.07816v10.67432z" fill="url(#color-5)"/><path d="M242.85413,99.06845v10.67432h-5.07818v-10.67432z" fill="url(#color-6)"/></g><g><path d="M307.72614,59.62592v-6.51852h2.02222v6.51852z" data-paper-data="{&quot;index&quot;:null}" fill="#295962"/><path d="M170.94053,59.62592v-6.51852h2.02222v6.51852z" data-paper-data="{&quot;index&quot;:null}" fill="#295962"/><path d="M237.77597,66.99821v-10.67432h5.07816v10.67432z" fill="url(#color-7)"/><path d="M242.85413,45.73511v10.67432h-5.07818v-10.67432z" fill="url(#color-8)"/></g><g><path d="M307.72614,5.95926v-6.51852h2.02222v6.51852z" data-paper-data="{&quot;index&quot;:null}" fill="#295962"/><path d="M170.94053,5.95926v-6.51852h2.02222v6.51852z" data-paper-data="{&quot;index&quot;:null}" fill="#295962"/><path d="M237.77597,13.33155v-10.67432h5.07816v10.67432z" fill="url(#color-9)"/><path d="M242.85413,-7.93155v10.67432h-5.07818v-10.67432z" fill="url(#color-10)"/></g><g><path d="M307.72614,273.79259v-6.51852h2.02222v6.51852z" data-paper-data="{&quot;index&quot;:null}" fill="#295962"/><path d="M170.94053,273.79259v-6.51852h2.02222v6.51852z" data-paper-data="{&quot;index&quot;:null}" fill="#295962"/><path d="M237.77597,281.16488v-10.67432h5.07816v10.67432z" fill="url(#color-11)"/><path d="M242.85413,259.90178v10.67432h-5.07818v-10.67432z" fill="url(#color-12)"/></g><g><path d="M307.72614,327.29259v-6.51852h2.02222v6.51852z" data-paper-data="{&quot;index&quot;:null}" fill="#295962"/><path d="M170.94053,327.29259v-6.51852h2.02222v6.51852z" data-paper-data="{&quot;index&quot;:null}" fill="#295962"/><path d="M237.77597,334.66488v-10.67432h5.07816v10.67432z" fill="url(#color-13)"/><path d="M242.85413,313.40178v10.67432h-5.07818v-10.67432z" fill="url(#color-14)"/></g><g><path d="M307.72614,380.86015v-6.51852h2.02222v6.51852z" data-paper-data="{&quot;index&quot;:null}" fill="#295962"/><path d="M170.94053,380.86015v-6.51852h2.02222v6.51852z" data-paper-data="{&quot;index&quot;:null}" fill="#295962"/><path d="M237.77597,388.23244v-10.67432h5.07816v10.67432z" fill="url(#color-15)"/><path d="M242.85413,366.96934v10.67432h-5.07818v-10.67432z" fill="url(#color-16)"/></g></g></g></svg>