<svg version="1.1" xmlns="http://www.w3.org/2000/svg" xmlns:xlink="http://www.w3.org/1999/xlink" width="244" height="49" viewBox="0,0,244,49"><g transform="translate(-118,-155.5)"><g data-paper-data="{&quot;isPaintingLayer&quot;:true}" fill-rule="nonzero" stroke="none" stroke-linejoin="miter" stroke-miterlimit="10" stroke-dasharray="" stroke-dashoffset="0" style="mix-blend-mode: normal"><path d="M185.25,180c0,-7.99195 6.47876,-14.47071 14.47071,-14.47071c7.99195,0 14.47071,6.47876 14.47071,14.47071c0,7.99195 -6.47876,14.47071 -14.47071,14.47071c-7.99195,0 -14.47071,-6.47876 -14.47071,-14.47071z" fill="#60838a" stroke-width="0" stroke-linecap="butt"/><path d="M199.72071,194.47071v-28.94142h80.55858v28.94142z" fill="#60838a" stroke-width="0" stroke-linecap="butt"/><path d="M265.80858,180c0,-7.99195 6.47876,-14.47071 14.47071,-14.47071c7.99195,0 14.47071,6.47876 14.47071,14.47071c0,7.99195 -6.47876,14.47071 -14.47071,14.47071c-7.99195,0 -14.47071,-6.47876 -14.47071,-14.47071z" fill="#60838a" stroke-width="0" stroke-linecap="butt"/><g fill="#ffffff" stroke-width="1" stroke-linecap="square"><path d="M215.50426,186.01559c-0.67708,0 -1.29948,-0.08593 -1.86718,-0.25781c-0.56771,-0.17187 -1.08073,-0.42968 -1.53906,-0.77343c-0.45312,-0.34375 -0.85677,-0.76041 -1.21093,-1.25l1.41406,-1.60156c0.54687,0.75521 1.08073,1.27864 1.60156,1.57031c0.52604,0.28646 1.11458,0.42969 1.76562,0.42969c0.38021,0 0.72396,-0.05729 1.03125,-0.17187c0.3125,-0.11458 0.55729,-0.27343 0.73437,-0.47656c0.18229,-0.20833 0.27344,-0.44791 0.27344,-0.71875c0,-0.1875 -0.03646,-0.36198 -0.10937,-0.52343c-0.07291,-0.16146 -0.18229,-0.30468 -0.32812,-0.42968c-0.14583,-0.13021 -0.32552,-0.25 -0.53906,-0.35937c-0.20833,-0.10937 -0.44531,-0.20312 -0.71093,-0.28125c-0.26562,-0.07812 -0.55989,-0.15104 -0.88281,-0.21875c-0.60937,-0.125 -1.14323,-0.28906 -1.60156,-0.49218c-0.45312,-0.20312 -0.83593,-0.45833 -1.14843,-0.76562c-0.3125,-0.30729 -0.54166,-0.65104 -0.6875,-1.03125c-0.14062,-0.38541 -0.21093,-0.82291 -0.21093,-1.3125c0,-0.48958 0.10677,-0.9401 0.32031,-1.35156c0.21875,-0.41146 0.51562,-0.76562 0.89062,-1.0625c0.38021,-0.30208 0.82031,-0.53646 1.32031,-0.70312c0.5,-0.16666 1.03906,-0.25 1.61719,-0.25c0.65625,0 1.24219,0.07812 1.75781,0.23437c0.51562,0.15625 0.97135,0.38802 1.36719,0.69531c0.39583,0.30208 0.72135,0.67187 0.97656,1.10937l-1.4375,1.41406c-0.21875,-0.34375 -0.46875,-0.63021 -0.75,-0.85937c-0.27604,-0.22916 -0.57552,-0.40104 -0.89843,-0.51562c-0.32291,-0.11979 -0.66146,-0.17968 -1.01562,-0.17968c-0.40104,0 -0.75,0.05729 -1.04687,0.17187c-0.29166,0.10937 -0.52083,0.26823 -0.6875,0.47656c-0.16666,0.20312 -0.25,0.45052 -0.25,0.74219c0,0.21875 0.04948,0.41406 0.14844,0.58594c0.10416,0.17187 0.24739,0.32552 0.42969,0.46094c0.18229,0.13021 0.41666,0.24739 0.70312,0.35156c0.29166,0.09896 0.61979,0.1875 0.98437,0.26562c0.61458,0.11979 1.16406,0.28385 1.64844,0.49219c0.48958,0.20312 0.90625,0.44791 1.25,0.73437c0.34896,0.28125 0.61198,0.60416 0.78906,0.96875c0.17708,0.35937 0.26562,0.76041 0.26562,1.20312c0,0.76562 -0.18229,1.42448 -0.54687,1.97656c-0.35937,0.54687 -0.86718,0.96875 -1.52343,1.26562c-0.65104,0.29166 -1.41666,0.4375 -2.29687,0.4375z"/><path d="M223.62342,185.85153v-11.66406h7.625v1.96875h-5.49218v7.72656h5.5625v1.96875zM224.61561,180.85153v-1.92968h5.78906v1.92969z"/><path d="M237.73268,185.85153v-9.66406h-3.32812v-2h8.92969v2h-3.4375v9.66406z"/><path d="M251.49981,185.95309c-0.92187,0 -1.74479,-0.19791 -2.46875,-0.59375c-0.72396,-0.39583 -1.29427,-0.9401 -1.71093,-1.63281c-0.41666,-0.69271 -0.625,-1.47916 -0.625,-2.35937v-7.19531h2.1875v7.04687c0,0.52083 0.11979,0.98437 0.35937,1.39062c0.23958,0.40625 0.55729,0.73177 0.95312,0.97656c0.40104,0.24479 0.83594,0.36719 1.30469,0.36719c0.51041,0 0.97135,-0.12239 1.38281,-0.36718c0.41146,-0.24479 0.73437,-0.57031 0.96875,-0.97656c0.23958,-0.40625 0.35937,-0.86979 0.35937,-1.39062v-7.04687h2.10156v7.19531c0,0.88021 -0.20833,1.66666 -0.625,2.35937c-0.41666,0.69271 -0.98698,1.23698 -1.71093,1.63281c-0.71875,0.39583 -1.54427,0.59375 -2.47656,0.59375z"/><path d="M260.68323,185.85153v-11.66406h4.84375c0.66666,0 1.26823,0.16146 1.80469,0.48437c0.54166,0.32291 0.97396,0.76302 1.29687,1.32031c0.32291,0.55208 0.48437,1.17187 0.48437,1.85937c0,0.70312 -0.16146,1.33594 -0.48437,1.89844c-0.32291,0.55729 -0.75521,1.0026 -1.29687,1.33594c-0.53646,0.33333 -1.13802,0.5 -1.80468,0.5h-2.67968v4.26562zM262.8473,179.5859h2.53125c0.27604,0 0.52864,-0.07812 0.75781,-0.23437c0.22916,-0.15625 0.41146,-0.36198 0.54687,-0.61718c0.14062,-0.25521 0.21094,-0.54427 0.21094,-0.86718c0,-0.32291 -0.07031,-0.60937 -0.21093,-0.85937c-0.13541,-0.25 -0.31771,-0.44791 -0.54687,-0.59375c-0.22916,-0.15104 -0.48177,-0.22656 -0.75781,-0.22656h-2.53125z"/></g><path d="M118,204.5v-49h244v49z" fill="none" stroke-width="0" stroke-linecap="butt"/></g></g></svg>