<svg version="1.1" xmlns="http://www.w3.org/2000/svg" xmlns:xlink="http://www.w3.org/1999/xlink" width="21.55556" height="21.55556" viewBox="0,0,21.55556,21.55556"><g transform="translate(-229.22236,-169.22222)"><g data-paper-data="{&quot;isPaintingLayer&quot;:true}" fill-rule="nonzero" stroke="none" stroke-linejoin="miter" stroke-miterlimit="10" stroke-dasharray="" stroke-dashoffset="0" style="mix-blend-mode: normal"><path d="M229.22236,190.77778v-21.55556h21.55556v21.55556z" fill="none" stroke-width="0" stroke-linecap="butt"/><path d="M239.98934,188.17859c-1.28585,0 -2.39054,-0.32679 -3.31407,-0.98037c-0.91643,-0.66068 -1.61974,-1.60198 -2.10992,-2.82388c-0.49018,-1.22191 -0.73527,-2.6818 -0.73527,-4.37968c0,-1.69078 0.2451,-3.14712 0.73528,-4.36903c0.49018,-1.22191 1.19349,-2.15965 2.10992,-2.81323c0.92354,-0.66068 2.02823,-0.99102 3.31407,-0.99102c1.28585,0 2.39054,0.33034 3.31407,0.99103c0.92354,0.65358 1.6304,1.59132 2.12058,2.81323c0.49729,1.22191 0.74593,2.67825 0.74593,4.36903c0,1.69788 -0.24864,3.15778 -0.74593,4.37969c-0.49018,1.22191 -1.19704,2.16321 -2.12057,2.82389c-0.92354,0.65358 -2.02823,0.98037 -3.31407,0.98037zM239.98934,185.58915c1.05851,0 1.87904,-0.48663 2.46158,-1.45989c0.58254,-0.98037 0.87381,-2.35856 0.87381,-4.13459c0,-1.78313 -0.29127,-3.16843 -0.87381,-4.15591c-0.58254,-0.98747 -1.40306,-1.4812 -2.46157,-1.4812c-1.05851,0 -1.88259,0.49374 -2.47223,1.48121c-0.58254,0.98747 -0.87381,2.37278 -0.87381,4.15591c0,1.77603 0.29127,3.15423 0.87381,4.13459c0.58964,0.97326 1.41372,1.4599 2.47223,1.4599z" fill="#60838a" stroke-width="1" stroke-linecap="square"/></g></g></svg>