<svg version="1.1" xmlns="http://www.w3.org/2000/svg" xmlns:xlink="http://www.w3.org/1999/xlink" width="187" height="209" viewBox="0,0,187,209"><g transform="translate(-146.5,-75.5)"><g data-paper-data="{&quot;isPaintingLayer&quot;:true}" fill-rule="nonzero" stroke="none" stroke-linejoin="miter" stroke-miterlimit="10" stroke-dasharray="" stroke-dashoffset="0" style="mix-blend-mode: normal"><path d="M318.95766,152.32982l0.42376,55.734l-158.42372,-0.13753l-0.33911,-55.9901z" fill-opacity="0.00392" fill="#ffffff" stroke-width="0" stroke-linecap="butt"/><path d="M146.5,284.5v-209h187v209z" fill="none" stroke-width="0" stroke-linecap="butt"/><g fill="#60838a" stroke-width="1" stroke-linecap="square"><path d="M195.14811,191.13166v-3.6412h3.64122v-14.90666h-3.6412v-3.6412h11.41407v3.6412h-3.65606v14.90666h3.65608v3.64122z"/><path d="M214.42462,191.13166v-22.18907h3.70065l12.87056,17.34404l-0.6985,0.1189c-0.07925,-0.59448 -0.15358,-1.19888 -0.22294,-1.81316c-0.05945,-0.6242 -0.1189,-1.27318 -0.17834,-1.94694c-0.04954,-0.68365 -0.08916,-1.39208 -0.1189,-2.12528c-0.02971,-0.74309 -0.05945,-1.52089 -0.08916,-2.33334c-0.0198,-0.81247 -0.02971,-1.67446 -0.02971,-2.58599v-6.65821h4.10193v22.18909h-3.77496l-12.92999,-17.09137l0.81742,-0.22294c0.10899,1.18897 0.19815,2.19959 0.26753,3.03186c0.07925,0.83228 0.1387,1.5506 0.17834,2.155c0.03964,0.60439 0.07431,1.10971 0.10404,1.51594c0.03964,0.39633 0.06441,0.75797 0.07432,1.08493c0.00991,0.32698 0.01486,0.63907 0.01486,0.93632v8.59029z"/><path d="M242.32069,191.13166v-22.18907h4.11679v22.18907zM244.20817,182.03608v-3.74524h11.44381v3.74524zM244.20817,172.74728v-3.80469h12.81112v3.80469z"/><path d="M273.76474,191.44376c-1.5853,0 -3.05663,-0.28238 -4.41403,-0.84713c-1.34751,-0.57468 -2.52654,-1.37226 -3.53716,-2.39279c-1.00071,-1.03042 -1.77848,-2.23923 -2.33334,-3.62635c-0.54495,-1.39703 -0.81742,-2.92288 -0.81742,-4.57752c0,-1.64475 0.27247,-3.16562 0.81742,-4.56266c0.55484,-1.39703 1.33263,-2.60581 2.33334,-3.62635c1.01062,-1.03042 2.18968,-1.82804 3.53718,-2.39279c1.3574,-0.57468 2.82875,-0.86199 4.41405,-0.86199c1.6051,0 3.0814,0.28733 4.42891,0.86201c1.3574,0.56477 2.53151,1.36731 3.52231,2.40767c0.9908,1.04035 1.75868,2.25407 2.30363,3.6412c0.55484,1.37722 0.83228,2.8882 0.83228,4.53293c0,1.63484 -0.27744,3.15076 -0.83228,4.5478c-0.54495,1.38711 -1.31283,2.60087 -2.30363,3.64122c-0.9908,1.03042 -2.16491,1.83299 -3.52231,2.40767c-1.34751,0.56477 -2.82378,0.84713 -4.42889,0.84713zM273.76474,187.52018c1.01062,0 1.93208,-0.18331 2.76436,-0.54989c0.84219,-0.37649 1.56548,-0.90658 2.16987,-1.59023c0.61431,-0.68365 1.09484,-1.48126 1.44162,-2.39279c0.35669,-0.91153 0.53503,-1.90731 0.53503,-2.98727c0,-1.07007 -0.17834,-2.06089 -0.53503,-2.97241c-0.34678,-0.91153 -0.82731,-1.70914 -1.44162,-2.39279c-0.60439,-0.69358 -1.32768,-1.22365 -2.16985,-1.59025c-0.83228,-0.3666 -1.75373,-0.54989 -2.76436,-0.54989c-1.00071,0 -1.92215,0.18329 -2.76434,0.54989c-0.84219,0.3666 -1.57042,0.89172 -2.18471,1.57539c-0.61429,0.67373 -1.08987,1.4664 -1.42676,2.37793c-0.33689,0.90164 -0.5053,1.90235 -0.5053,3.00215c0,1.07998 0.16843,2.08069 0.50532,3.00215c0.33689,0.92146 0.81247,1.71904 1.42676,2.39279c0.61429,0.67373 1.34254,1.19888 2.18473,1.57539c0.84219,0.3666 1.76365,0.54989 2.76436,0.54989z"/></g></g></g></svg>