<svg version="1.1" xmlns="http://www.w3.org/2000/svg" xmlns:xlink="http://www.w3.org/1999/xlink" width="21.55556" height="21.55556" viewBox="0,0,21.55556,21.55556"><g transform="translate(-229.22234,-169.22222)"><g data-paper-data="{&quot;isPaintingLayer&quot;:true}" fill-rule="nonzero" stroke="none" stroke-linejoin="miter" stroke-miterlimit="10" stroke-dasharray="" stroke-dashoffset="0" style="mix-blend-mode: normal"><path d="M229.22235,190.77778v-21.55556h21.55556v21.55556z" fill="none" stroke-width="0" stroke-linecap="butt"/><path d="M235.40728,188.09335l-0.75658,-1.86483l4.77396,-5.33874c0.27706,-0.27706 0.55767,-0.59319 0.84184,-0.9484c0.29127,-0.3552 0.56833,-0.72462 0.83118,-1.10824c0.26285,-0.39073 0.47598,-0.7708 0.63937,-1.14021c0.1705,-0.36942 0.25575,-0.71396 0.25575,-1.03365c0,-0.40493 -0.0888,-0.76014 -0.2664,-1.06562c-0.1705,-0.30548 -0.41559,-0.53991 -0.73527,-0.70331c-0.31258,-0.1705 -0.70331,-0.25575 -1.17218,-0.25575c-0.41204,0 -0.81342,0.11722 -1.20414,0.35166c-0.38362,0.23444 -0.73883,0.56833 -1.06562,1.00168c-0.32679,0.43335 -0.59319,0.94485 -0.79921,1.53449l-2.22714,-1.32137c0.26995,-0.87381 0.68199,-1.63394 1.23612,-2.28042c0.55412,-0.64648 1.20415,-1.14376 1.95008,-1.49186c0.75304,-0.3481 1.57001,-0.52215 2.45092,-0.52215c0.90932,0 1.71919,0.19181 2.42961,0.57543c0.71041,0.37652 1.27163,0.89867 1.68368,1.56646c0.41914,0.66779 0.62872,1.44924 0.62872,2.34436c0,0.32679 -0.03907,0.67134 -0.11721,1.03365c-0.07104,0.3552 -0.18826,0.72462 -0.35165,1.10824c-0.15629,0.38362 -0.36231,0.785 -0.61806,1.20415c-0.25575,0.41914 -0.56477,0.85605 -0.92708,1.31071c-0.3552,0.45467 -0.76014,0.93064 -1.2148,1.42793l-3.61244,3.93213l-0.44756,-1.0443h7.86425v2.72798z" fill="#60838a" stroke-width="1" stroke-linecap="square"/></g></g></svg>