<svg version="1.1" xmlns="http://www.w3.org/2000/svg" xmlns:xlink="http://www.w3.org/1999/xlink" width="219.9777" height="164.99094" viewBox="0,0,219.9777,164.99094"><defs><linearGradient x1="239.99999" y1="164.619" x2="239.99999" y2="195.38101" gradientUnits="userSpaceOnUse" id="color-1"><stop offset="0" stop-color="#00313f" stop-opacity="0"/><stop offset="1" stop-color="#00313f"/></linearGradient><linearGradient x1="240.00001" y1="165.75001" x2="240.00001" y2="194.25002" gradientUnits="userSpaceOnUse" id="color-2"><stop offset="0" stop-color="#0092ac"/><stop offset="1" stop-color="#00313f"/></linearGradient><linearGradient x1="234.3858" y1="175.2" x2="234.3858" y2="181.90001" gradientUnits="userSpaceOnUse" id="color-3"><stop offset="0" stop-color="#73ddff" stop-opacity="0"/><stop offset="1" stop-color="#73ddff" stop-opacity="0.49735"/></linearGradient><linearGradient x1="234.3858" y1="188.60001" x2="234.3858" y2="181.90001" gradientUnits="userSpaceOnUse" id="color-4"><stop offset="0" stop-color="#73ddff" stop-opacity="0"/><stop offset="1" stop-color="#73ddff" stop-opacity="0.49735"/></linearGradient><linearGradient x1="245.61421" y1="175.2" x2="245.61421" y2="181.90001" gradientUnits="userSpaceOnUse" id="color-5"><stop offset="0" stop-color="#73ddff" stop-opacity="0"/><stop offset="1" stop-color="#73ddff" stop-opacity="0.49735"/></linearGradient><linearGradient x1="245.61421" y1="188.60001" x2="245.61421" y2="181.90001" gradientUnits="userSpaceOnUse" id="color-6"><stop offset="0" stop-color="#73ddff" stop-opacity="0"/><stop offset="1" stop-color="#73ddff" stop-opacity="0.49735"/></linearGradient></defs><g transform="translate(-130.01115,-97.50453)"><g data-paper-data="{&quot;isPaintingLayer&quot;:true}" stroke="none" stroke-linecap="butt" stroke-linejoin="miter" stroke-miterlimit="10" stroke-dasharray="" stroke-dashoffset="0" style="mix-blend-mode: normal"><path d="M130.01115,97.50453h219.9777v164.99094h-219.9777z" fill="none" fill-rule="nonzero" stroke-width="1.00207"/><path d="M130.01115,97.50453h219.9777v164.99094h-219.9777z" fill="none" fill-rule="nonzero" stroke-width="1.00207"/><g><path d="M231.56551,168.55292c0,-2.17265 1.95212,-3.93393 4.3602,-3.93393h8.14858c2.40805,0 4.3602,1.76128 4.3602,3.93393v0.77389v6.57804v8.51275v5.35272v1.67676c0,2.17262 -1.95216,3.93393 -4.3602,3.93393h-8.14858c-2.40808,0 -4.3602,-1.7613 -4.3602,-3.93393v-1.67676v-5.35272v-8.51275v-6.57804z" fill="url(#color-1)" fill-rule="evenodd" stroke-width="1"/><path d="M232.94969,169.39466c0,-2.01289 1.63177,-3.64465 3.64465,-3.64465h6.81132c2.01286,0 3.64465,1.63177 3.64465,3.64465v0.71698v6.09434v7.88679v4.95912v1.55346c0,2.01286 -1.63179,3.64465 -3.64465,3.64465h-6.81132c-2.01289,0 -3.64465,-1.63179 -3.64465,-3.64465v-1.55346v-4.95912v-7.88679v-6.09434z" fill="url(#color-2)" fill-rule="evenodd" stroke-width="1"/><path d="M232.9497,169.39467c0,-2.01289 1.63176,-3.64465 3.64465,-3.64465c0,0 -0.19636,1.86302 -1.30004,2.80004c-0.83851,0.71189 -2.34461,0.84461 -2.34461,0.84461z" fill-opacity="0.74486" fill="#777777" fill-rule="evenodd" stroke-width="1"/><path d="M244.70569,168.55005c-1.10368,-0.93702 -1.30004,-2.80004 -1.30004,-2.80004c2.01289,0 3.64465,1.63176 3.64465,3.64465c0,0 -1.5061,-0.13272 -2.34461,-0.84461z" data-paper-data="{&quot;index&quot;:null}" fill-opacity="0.74486" fill="#777777" fill-rule="evenodd" stroke-width="1"/><path d="M240,169.39466c2.2396,0 4.05513,1.55245 4.05513,3.46749v17.74321h-8.11026v-17.74321c0,-1.91504 1.81555,-3.46749 4.05513,-3.46749z" fill-opacity="0.34166" fill="#ffffff" fill-rule="evenodd" stroke-width="1"/><path d="M240,170.35002c1.74254,0 3.15513,1.4126 3.15513,3.15513v16.14486h-6.31026v-16.14486c0,-1.74253 1.4126,-3.15513 3.15513,-3.15513z" fill="#062832" fill-rule="evenodd" stroke-width="1"/><g fill-rule="nonzero" stroke-width="0"><g><path d="M233.52767,181.90001v-6.7h1.71627v6.7z" fill="url(#color-3)"/><path d="M235.24393,181.90001v6.7h-1.71627v-6.7z" data-paper-data="{&quot;index&quot;:null}" fill="url(#color-4)"/></g><g><path d="M244.75607,181.90001v-6.7h1.71627v6.7z" fill="url(#color-5)"/><path d="M246.47234,181.90001v6.7h-1.71627v-6.7z" data-paper-data="{&quot;index&quot;:null}" fill="url(#color-6)"/></g></g></g><path d="M228,198.25v-36.5h24v36.5z" fill="none" fill-rule="nonzero" stroke-width="0"/></g></g></svg>