<svg version="1.1" xmlns="http://www.w3.org/2000/svg" xmlns:xlink="http://www.w3.org/1999/xlink" width="292.5" height="288.39226" viewBox="0,0,292.5,288.39226"><defs><radialGradient cx="239.79906" cy="182.75564" r="103.3366" gradientUnits="userSpaceOnUse" id="color-1"><stop offset="0" stop-color="#000000" stop-opacity="0"/><stop offset="1" stop-color="#000000"/></radialGradient><radialGradient cx="115.56551" cy="179.99999" r="105.34593" gradientUnits="userSpaceOnUse" id="color-2"><stop offset="0" stop-color="#000000"/><stop offset="1" stop-color="#000000"/></radialGradient><radialGradient cx="364.43449" cy="179.99999" r="105.34593" gradientUnits="userSpaceOnUse" id="color-3"><stop offset="0" stop-color="#000000"/><stop offset="1" stop-color="#000000"/></radialGradient><radialGradient cx="119.5655" cy="180" r="105.34593" gradientUnits="userSpaceOnUse" id="color-4"><stop offset="0" stop-color="#000000"/><stop offset="1" stop-color="#000000"/></radialGradient><radialGradient cx="360.4345" cy="180" r="105.34593" gradientUnits="userSpaceOnUse" id="color-5"><stop offset="0" stop-color="#000000"/><stop offset="1" stop-color="#000000"/></radialGradient><radialGradient cx="240" cy="62.95" r="146.25" gradientUnits="userSpaceOnUse" id="color-6"><stop offset="0" stop-color="#000000"/><stop offset="1" stop-color="#000000"/></radialGradient><radialGradient cx="240" cy="19.45" r="146.25" gradientUnits="userSpaceOnUse" id="color-7"><stop offset="0" stop-color="#000000"/><stop offset="1" stop-color="#000000"/></radialGradient></defs><g transform="translate(-93.75,2.3)"><g data-paper-data="{&quot;isPaintingLayer&quot;:true}" fill-rule="nonzero" stroke-linecap="butt" stroke-linejoin="miter" stroke-miterlimit="10" stroke-dasharray="" stroke-dashoffset="0" style="mix-blend-mode: normal"><path d="M124.75098,191.8837v0z" fill="#9966ff" stroke="#000000" stroke-width="2"/><path d="M136.46246,182.75564c0,-57.07123 46.26537,-103.3366 103.3366,-103.3366c57.07123,0 103.3366,46.26537 103.3366,103.3366c0,57.07123 -46.26537,103.3366 -103.3366,103.3366c-57.07123,0 -103.3366,-46.26537 -103.3366,-103.3366z" fill="url(#color-1)" stroke="none" stroke-width="0"/><path d="M93.75,286.09224v-212.18449h43.63101c0,0 -3.33022,61.27227 -0.64574,103.74559c0.57374,9.07766 0.14387,17.2966 1.50688,23.87511c14.06526,67.8859 97.02159,84.56379 97.02159,84.56379z" fill="url(#color-2)" stroke="none" stroke-width="0"/><path d="M244.73626,286.09224c0,0 82.95633,-16.67789 97.02159,-84.56379c1.363,-6.57852 0.93313,-14.79746 1.50688,-23.87511c2.68448,-42.47332 -0.64574,-103.74559 -0.64574,-103.74559h43.63101v212.1845z" data-paper-data="{&quot;index&quot;:null}" fill="url(#color-3)" stroke="none" stroke-width="0"/><path d="M239.26374,73.90775c0,0 -82.95633,16.67789 -97.02159,84.56379c-1.363,6.57851 -0.93314,14.79746 -1.50688,23.87512c-2.68448,42.47332 0.64574,103.74559 0.64574,103.74559h-43.63101v-212.18449z" data-paper-data="{&quot;index&quot;:null}" fill="url(#color-4)" stroke="none" stroke-width="0"/><path d="M382.25,73.90776v212.1845h-43.63101c0,0 3.33023,-61.27227 0.64574,-103.74559c-0.57374,-9.07766 -0.14388,-17.29661 -1.50688,-23.87512c-14.06526,-67.8859 -97.02159,-84.56379 -97.02159,-84.56379z" data-paper-data="{&quot;index&quot;:null}" fill="url(#color-5)" stroke="none" stroke-width="0"/><path d="M93.75,84.7v-43.5h292.5v43.5z" fill="url(#color-6)" stroke="none" stroke-width="0"/><path d="M93.75,41.2v-43.5h292.5v43.5z" fill="url(#color-7)" stroke="none" stroke-width="0"/></g></g></svg>