<svg version="1.1" xmlns="http://www.w3.org/2000/svg" xmlns:xlink="http://www.w3.org/1999/xlink" width="244" height="49" viewBox="0,0,244,49"><g transform="translate(-118.18742,-155.49998)"><g data-paper-data="{&quot;isPaintingLayer&quot;:true}" fill-rule="nonzero" stroke="none" stroke-linejoin="miter" stroke-miterlimit="10" stroke-dasharray="" stroke-dashoffset="0" style="mix-blend-mode: normal"><path d="M293.93335,165.26427l0.28947,29.68108l-108.214,-0.07324l-0.23163,-29.81746z" fill-opacity="0.00392" fill="#ffffff" stroke-width="0" stroke-linecap="butt"/><path d="M118.18742,204.49998v-49h244v49z" fill="none" stroke-width="0" stroke-linecap="butt"/><g fill="#60838a" stroke-width="1" stroke-linecap="square"><path d="M212.13888,187.35092v-14.65288h6.23214c0.96181,0 1.77313,0.14067 2.43397,0.42202c0.66738,0.2748 1.17118,0.69028 1.51142,1.24643c0.34023,0.54961 0.51035,1.21371 0.51035,1.99232c0,0.81132 -0.21592,1.49833 -0.64775,2.06102c-0.43183,0.55615 -1.03705,0.93891 -1.81566,1.14829l-0.01963,-0.42202c0.65429,0.1374 1.22353,0.38603 1.7077,0.74589c0.49072,0.35332 0.87021,0.7917 1.13847,1.31513c0.2748,0.52343 0.4122,1.11884 0.4122,1.78622c0,0.71318 -0.1145,1.3413 -0.3435,1.88436c-0.229,0.54306 -0.56923,0.9978 -1.0207,1.3642c-0.44492,0.35986 -0.97489,0.63467 -1.58993,0.82441c-0.60849,0.18974 -1.29877,0.28462 -2.07083,0.28462zM214.78877,184.89733h3.67058c0.51689,0 0.952,-0.07524 1.30532,-0.22573c0.35332,-0.15049 0.62485,-0.37622 0.8146,-0.67719c0.18974,-0.30098 0.28462,-0.66083 0.28462,-1.07958c0,-0.39258 -0.10142,-0.72626 -0.30424,-1.00107c-0.20283,-0.28135 -0.49399,-0.49399 -0.87348,-0.63793c-0.37295,-0.15049 -0.81786,-0.22573 -1.33476,-0.22573h-3.56262zM214.78877,178.70445h3.33689c0.39912,0 0.74917,-0.07524 1.05014,-0.22573c0.30098,-0.15703 0.53325,-0.3664 0.69682,-0.62812c0.17011,-0.26826 0.25517,-0.57578 0.25517,-0.92255c0,-0.56269 -0.18974,-1.00107 -0.56923,-1.31513c-0.37295,-0.31406 -0.92255,-0.47109 -1.64882,-0.47109h-3.12098z"/><path d="M228.2577,187.35092v-14.65288h9.57884v2.47323h-6.89951v9.70643h6.98784v2.47323zM229.50413,181.06971v-2.42415h7.27247v2.42416z"/><path d="M247.69987,187.55703c-0.85058,0 -1.63246,-0.10796 -2.34564,-0.32387c-0.71318,-0.21592 -1.35766,-0.53979 -1.93343,-0.97162c-0.56923,-0.43183 -1.07631,-0.95527 -1.52123,-1.5703l1.77641,-2.01195c0.68701,0.94873 1.35766,1.60629 2.01195,1.9727c0.66083,0.35986 1.40019,0.53979 2.21805,0.53979c0.47764,0 0.90947,-0.07197 1.2955,-0.21592c0.39258,-0.14395 0.70009,-0.3435 0.92255,-0.59867c0.229,-0.26172 0.34351,-0.56269 0.34351,-0.90292c0,-0.23555 -0.0458,-0.45473 -0.1374,-0.65756c-0.0916,-0.20283 -0.229,-0.38276 -0.4122,-0.53979c-0.1832,-0.16358 -0.40893,-0.31406 -0.67719,-0.45146c-0.26172,-0.1374 -0.55942,-0.25517 -0.89311,-0.35332c-0.33369,-0.09814 -0.70336,-0.18974 -1.10902,-0.2748c-0.76552,-0.15703 -1.43617,-0.36313 -2.01195,-0.6183c-0.56923,-0.25517 -1.05014,-0.57578 -1.44271,-0.96181c-0.39258,-0.38603 -0.68046,-0.81786 -0.86367,-1.2955c-0.17666,-0.48417 -0.26499,-1.03378 -0.26499,-1.64882c0,-0.61504 0.13413,-1.181 0.40239,-1.69789c0.2748,-0.51689 0.64775,-0.96181 1.11884,-1.33476c0.47764,-0.37949 1.03051,-0.67392 1.65863,-0.88329c0.62812,-0.20937 1.30532,-0.31406 2.03158,-0.31406c0.82441,0 1.56049,0.09814 2.20824,0.29443c0.64775,0.19629 1.22026,0.48745 1.71752,0.87348c0.49726,0.37949 0.9062,0.84404 1.2268,1.39364l-1.80585,1.77641c-0.2748,-0.43183 -0.58886,-0.7917 -0.94218,-1.07958c-0.34677,-0.28789 -0.72299,-0.5038 -1.12865,-0.64775c-0.40566,-0.15049 -0.83095,-0.22573 -1.27587,-0.22573c-0.5038,0 -0.94218,0.07197 -1.31513,0.21592c-0.3664,0.1374 -0.65429,0.33696 -0.86367,0.59868c-0.20937,0.25517 -0.31406,0.56596 -0.31406,0.93237c0,0.2748 0.06216,0.52017 0.18648,0.73608c0.13086,0.21592 0.31079,0.40893 0.53979,0.57905c0.229,0.16358 0.52343,0.31079 0.88329,0.44165c0.3664,0.12432 0.77861,0.23555 1.23661,0.33369c0.77207,0.15049 1.46235,0.35659 2.07084,0.61831c0.61504,0.25517 1.13847,0.56269 1.5703,0.92255c0.43838,0.35332 0.76879,0.75898 0.99126,1.21698c0.22246,0.45146 0.33369,0.95527 0.33369,1.51142c0,0.96181 -0.229,1.78949 -0.68701,2.48304c-0.45146,0.68701 -1.08939,1.21698 -1.9138,1.58993c-0.81786,0.3664 -1.77967,0.54961 -2.88543,0.54961z"/><path d="M260.82419,187.35092v-12.1404h-4.18093v-2.51248h11.21785v2.51248h-4.31833v12.1404z"/></g></g></g></svg>