<svg version="1.1" xmlns="http://www.w3.org/2000/svg" xmlns:xlink="http://www.w3.org/1999/xlink" width="244" height="49" viewBox="0,0,244,49"><g transform="translate(-118,-155.5)"><g data-paper-data="{&quot;isPaintingLayer&quot;:true}" fill-rule="nonzero" stroke="none" stroke-linejoin="miter" stroke-miterlimit="10" stroke-dasharray="" stroke-dashoffset="0" style="mix-blend-mode: normal"><path d="M278.28819,165.10637l0.20686,29.68108l-77.33215,-0.07324l-0.16553,-29.81746z" fill-opacity="0.00392" fill="#ffffff" stroke-width="0" stroke-linecap="butt"/><g fill="#60838a" stroke-width="1" stroke-linecap="square"><path d="M211.60316,186.98045v-14.29586h6.20477c0.85539,0 1.63736,0.20108 2.34593,0.60324c0.70857,0.40216 1.27032,0.94795 1.68525,1.63737c0.41493,0.68303 0.62239,1.45544 0.62239,2.31722c0,0.81709 -0.20746,1.57034 -0.62239,2.25976c-0.41493,0.68304 -0.97349,1.22564 -1.67567,1.62779c-0.70218,0.40216 -1.48736,0.60324 -2.35551,0.60324h-3.61945v5.24724zM219.88576,186.98045l-3.62902,-6.45372l2.73852,-0.50749l4.04076,6.98037zM214.18848,179.42558h3.6386c0.39577,0 0.74048,-0.09257 1.03412,-0.27769c0.29364,-0.18512 0.52025,-0.44046 0.67985,-0.76602c0.16597,-0.32556 0.24896,-0.68623 0.24896,-1.08201c0,-0.44684 -0.10214,-0.83304 -0.30641,-1.1586c-0.20427,-0.33194 -0.49153,-0.59366 -0.86178,-0.78517c-0.36386,-0.19151 -0.78517,-0.28726 -1.26393,-0.28726h-3.16941z"/><path d="M225.91399,186.98045l5.5728,-14.29586h2.49914l5.53449,14.29586h-2.75767l-3.06409,-8.12939c-0.07022,-0.16597 -0.16278,-0.4245 -0.27769,-0.7756c-0.1149,-0.35109 -0.24257,-0.7341 -0.38301,-1.14903c-0.13405,-0.42131 -0.25534,-0.81071 -0.36386,-1.16818c-0.10852,-0.36386 -0.18831,-0.62558 -0.23938,-0.78517l0.50749,-0.01915c-0.08299,0.2681 -0.17874,0.57451 -0.28726,0.91922c-0.10852,0.33832 -0.22342,0.69261 -0.34471,1.06286c-0.12129,0.36386 -0.24257,0.71814 -0.36386,1.06285c-0.1149,0.33832 -0.22023,0.64155 -0.31598,0.90965l-3.06409,8.07194zM228.45143,183.71529l0.91923,-2.30764h6.51117l0.97668,2.30764z"/><path d="M243.01248,186.98045v-2.34593h2.34594v-9.60399h-2.34594v-2.34594h7.3538v2.34594h-2.35551v9.60399h2.35551v2.34593z"/><path d="M255.43185,186.98045v-14.29586h2.38423l8.29218,11.17433l-0.45004,0.0766c-0.05107,-0.38301 -0.09894,-0.7724 -0.14362,-1.16818c-0.0383,-0.40216 -0.07661,-0.82028 -0.1149,-1.25436c-0.03192,-0.44046 -0.05744,-0.89688 -0.07659,-1.36926c-0.01915,-0.47877 -0.03831,-0.97987 -0.05746,-1.50332c-0.01277,-0.52345 -0.01916,-1.07881 -0.01916,-1.66609v-4.28972h2.64277v14.29586h-2.43211l-8.33048,-11.01154l0.52664,-0.14363c0.07022,0.76602 0.12767,1.41714 0.17236,1.95336c0.05107,0.53621 0.08937,0.99902 0.1149,1.38841c0.02553,0.38939 0.04788,0.71495 0.06703,0.97668c0.02553,0.25534 0.04149,0.48834 0.04787,0.69899c0.00639,0.21065 0.00958,0.41174 0.00958,0.60325v5.53449z"/></g><path d="M118,204.5v-49h244v49z" fill="none" stroke-width="0" stroke-linecap="butt"/></g></g></svg>