<svg version="1.1" xmlns="http://www.w3.org/2000/svg" xmlns:xlink="http://www.w3.org/1999/xlink" width="54.42402" height="9.33829" viewBox="0,0,54.42402,9.33829"><g transform="translate(-212.78799,-175.33085)"><g data-paper-data="{&quot;isPaintingLayer&quot;:true}" fill="#60838a" fill-rule="nonzero" stroke="none" stroke-width="1" stroke-linecap="square" stroke-linejoin="miter" stroke-miterlimit="10" stroke-dasharray="" stroke-dashoffset="0" style="mix-blend-mode: normal"><path d="M216.37171,184.66915c-0.52553,0 -1.00862,-0.0667 -1.44925,-0.20011c-0.44064,-0.1334 -0.83883,-0.33351 -1.19457,-0.60032c-0.3517,-0.26681 -0.665,-0.59021 -0.93989,-0.97021l1.09755,-1.24308c0.42447,0.58617 0.83883,0.99245 1.24308,1.21883c0.4083,0.22234 0.86511,0.33351 1.37042,0.33351c0.29511,0 0.56191,-0.04447 0.80042,-0.1334c0.24255,-0.08894 0.43255,-0.21223 0.57,-0.36989c0.14149,-0.1617 0.21223,-0.34766 0.21223,-0.55787c0,-0.14553 -0.0283,-0.28096 -0.08489,-0.40628c-0.0566,-0.12532 -0.14149,-0.23649 -0.25468,-0.33351c-0.11319,-0.10106 -0.25266,-0.19404 -0.4184,-0.27894c-0.1617,-0.08489 -0.34564,-0.15766 -0.55181,-0.2183c-0.20617,-0.06064 -0.43457,-0.11723 -0.68521,-0.16979c-0.47298,-0.09702 -0.88734,-0.22436 -1.24308,-0.38202c-0.3517,-0.15766 -0.64883,-0.35574 -0.89138,-0.59425c-0.24255,-0.23851 -0.42043,-0.50532 -0.53362,-0.80042c-0.10915,-0.29915 -0.16372,-0.63872 -0.16372,-1.01872c0,-0.38 0.08287,-0.72968 0.24862,-1.04904c0.16979,-0.31936 0.40021,-0.59425 0.69128,-0.82468c0.29511,-0.23447 0.6367,-0.41638 1.02479,-0.54574c0.38808,-0.12936 0.80649,-0.19404 1.25521,-0.19404c0.50936,0 0.96415,0.06064 1.36436,0.18191c0.40021,0.12128 0.75394,0.30117 1.06117,0.53968c0.30723,0.23447 0.55989,0.52149 0.75798,0.86106l-1.11574,1.09755c-0.16979,-0.26681 -0.36383,-0.48915 -0.58213,-0.66702c-0.21426,-0.17787 -0.4467,-0.31128 -0.69734,-0.40021c-0.25064,-0.09298 -0.5134,-0.13947 -0.7883,-0.13947c-0.31128,0 -0.58213,0.04447 -0.81255,0.1334c-0.22638,0.08489 -0.40425,0.20819 -0.53362,0.36989c-0.12936,0.15766 -0.19404,0.34968 -0.19404,0.57606c0,0.16979 0.0384,0.32138 0.11521,0.45479c0.08085,0.1334 0.19202,0.25266 0.33351,0.35777c0.14149,0.10106 0.3234,0.19202 0.54574,0.27287c0.22638,0.07681 0.48106,0.14553 0.76404,0.20617c0.47702,0.09298 0.90351,0.22032 1.27947,0.38202c0.38,0.15766 0.7034,0.34766 0.97021,0.57c0.27085,0.2183 0.475,0.46894 0.61245,0.75191c0.13745,0.27894 0.20617,0.59021 0.20617,0.93383c0,0.59425 -0.14149,1.10564 -0.42447,1.53415c-0.27894,0.42447 -0.67308,0.75191 -1.18245,0.98234c-0.50532,0.22638 -1.09957,0.33957 -1.78276,0.33957z" data-paper-data="{&quot;index&quot;:null}"/><path d="M228.47663,184.54181v-9.05329h1.68574v9.05329zM222.67355,184.54181v-9.05329h1.67968v9.05329zM223.37089,180.81862v-1.58266h5.92436v1.58266z" data-paper-data="{&quot;index&quot;:null}"/><path d="M233.39443,184.54181v-1.48564h1.48564v-6.08202h-1.48564v-1.48564h4.65702v1.48564h-1.4917v6.08202h1.4917v1.48564z" data-paper-data="{&quot;index&quot;:null}"/><path d="M241.25938,184.54181v-9.05329h5.91829v1.52808h-4.26287v5.99712h4.31744v1.52808zM242.02948,180.66096v-1.49776h4.49329v1.49776z" data-paper-data="{&quot;index&quot;:null}"/><path d="M250.40354,184.54181v-9.05329h1.67968v7.50095h4.17796v1.55234z" data-paper-data="{&quot;index&quot;:null}"/><path d="M259.25021,184.54181v-9.05329h3.63223c0.65489,0 1.24713,0.10915 1.7767,0.32745c0.52957,0.21426 0.98638,0.52351 1.37042,0.92777c0.38404,0.40425 0.67713,0.8833 0.87925,1.43713c0.20213,0.54979 0.30319,1.16021 0.30319,1.83128c0,0.67511 -0.10106,1.29159 -0.30319,1.84947c-0.20213,0.55383 -0.49319,1.03085 -0.87319,1.43106c-0.38,0.40021 -0.83681,0.70947 -1.37042,0.92777c-0.53362,0.21426 -1.12787,0.32138 -1.78276,0.32138zM260.92989,183.23808l-0.1334,-0.24862h2.01925c0.42447,0 0.80245,-0.06872 1.13394,-0.20617c0.33149,-0.13745 0.61245,-0.33553 0.84287,-0.59425c0.23447,-0.25872 0.41234,-0.57 0.53362,-0.93383c0.12128,-0.36787 0.18191,-0.78223 0.18191,-1.24308c0,-0.45681 -0.06064,-0.86713 -0.18191,-1.23096c-0.12128,-0.36787 -0.30117,-0.68117 -0.53968,-0.93989c-0.23447,-0.25872 -0.51543,-0.45681 -0.84287,-0.59425c-0.32745,-0.13745 -0.7034,-0.20617 -1.12787,-0.20617h-2.05564l0.16979,-0.2183z" data-paper-data="{&quot;index&quot;:null}"/></g></g></svg>