<svg version="1.1" xmlns="http://www.w3.org/2000/svg" xmlns:xlink="http://www.w3.org/1999/xlink" width="232.76283" height="209" viewBox="0,0,232.76283,209"><g transform="translate(-123.61859,-75.50001)"><g data-paper-data="{&quot;isPaintingLayer&quot;:true}" fill-rule="nonzero" stroke="none" stroke-linejoin="miter" stroke-miterlimit="10" stroke-dasharray="" stroke-dashoffset="0" style="mix-blend-mode: normal"><path d="M355.76015,152.32982l0.62128,55.734l-232.26566,-0.13753l-0.49717,-55.9901z" fill-opacity="0.00392" fill="#ffffff" stroke-width="0" stroke-linecap="butt"/><g fill="#60838a" stroke-width="1" stroke-linecap="square"><path d="M165.63531,188.94453c-1.30877,0 -2.51687,-0.22458 -3.62429,-0.67374c-1.10742,-0.4569 -2.07158,-1.08806 -2.89246,-1.89346c-0.81315,-0.81315 -1.4443,-1.75793 -1.89346,-2.83438c-0.44142,-1.08418 -0.66212,-2.26518 -0.66212,-3.54297c0,-1.25456 0.22458,-2.42007 0.67374,-3.4965c0.4569,-1.08418 1.09968,-2.02511 1.92831,-2.82276c0.82863,-0.80539 1.80053,-1.4288 2.9157,-1.87023c1.11517,-0.44917 2.31552,-0.67374 3.60106,-0.67374c0.90607,0 1.78116,0.12391 2.62529,0.37172c0.84412,0.24782 1.60305,0.5963 2.2768,1.04547c0.68149,0.44142 1.24294,0.94093 1.68438,1.49851l-2.02124,2.1374c-0.46465,-0.44917 -0.94092,-0.82089 -1.4288,-1.11517c-0.48788,-0.30202 -0.999,-0.53435 -1.53335,-0.69698c-0.5266,-0.16263 -1.0687,-0.24394 -1.62629,-0.24394c-0.82863,0 -1.59531,0.15102 -2.30003,0.45303c-0.69698,0.29428 -1.30489,0.70473 -1.82376,1.23133c-0.51886,0.5266 -0.9293,1.14615 -1.23133,1.85861c-0.29428,0.71246 -0.44142,1.48688 -0.44142,2.32326c0,0.81315 0.15102,1.5837 0.45303,2.31165c0.30978,0.72796 0.7357,1.36298 1.2778,1.90508c0.54983,0.5421 1.18099,0.96802 1.89347,1.27779c0.72022,0.30202 1.48688,0.45304 2.30003,0.45304c0.61179,0 1.18099,-0.08907 1.70759,-0.26718c0.5266,-0.18586 0.99513,-0.43755 1.40558,-0.75506c0.41818,-0.32525 0.73569,-0.70085 0.95253,-1.12678c0.22458,-0.43368 0.33687,-0.89833 0.33687,-1.39396v-0.54596l0.45304,0.52274h-5.13441v-2.86923h7.85262c0.03871,0.17811 0.06583,0.37947 0.08132,0.60405c0.01548,0.22458 0.02711,0.44142 0.03486,0.65051c0.00775,0.20135 0.01162,0.37559 0.01162,0.52274c0,1.1384 -0.19747,2.17612 -0.59243,3.11317c-0.39496,0.9293 -0.95254,1.7347 -1.67275,2.41619c-0.72022,0.67374 -1.55658,1.19649 -2.50913,1.56821c-0.94479,0.37172 -1.97091,0.55758 -3.07832,0.55758z"/><path d="M176.9543,188.70059l6.7607,-17.34315h3.03185l6.71424,17.34316h-3.3455l-3.71721,-9.86224c-0.08519,-0.20135 -0.19747,-0.51499 -0.33686,-0.94092c-0.1394,-0.42594 -0.29428,-0.89058 -0.46465,-1.39396c-0.16263,-0.51112 -0.30978,-0.98351 -0.44142,-1.41719c-0.13164,-0.44142 -0.22845,-0.75894 -0.2904,-0.95254l0.61568,-0.02323c-0.10068,0.32525 -0.21684,0.69698 -0.3485,1.11517c-0.13164,0.41045 -0.27104,0.84024 -0.41818,1.28941c-0.14713,0.44142 -0.29428,0.87123 -0.44142,1.28941c-0.13939,0.41045 -0.26718,0.7783 -0.38334,1.10356l-3.71721,9.79255zM180.03262,184.73943l1.11517,-2.79953h7.89909l1.18487,2.79953z"/><path d="M198.22022,188.70059v-17.34315h3.04347l6.31928,10.28044l-1.78892,-0.02324l6.40059,-10.2572h2.89247v17.34316h-3.19449v-6.51674c0,-1.48688 0.03486,-2.82276 0.10455,-4.00762c0.07745,-1.19261 0.20909,-2.37746 0.39496,-3.55459l0.39496,1.06869l-5.37834,8.30567h-1.63789l-5.20411,-8.22435l0.34849,-1.15001c0.17811,1.10742 0.3059,2.24582 0.38334,3.4152c0.07745,1.16163 0.11616,2.54397 0.11616,4.14703v6.51676z"/><path d="M221.78319,188.70059v-17.34315h11.33752v2.92731h-8.16626v11.48854h8.27081v2.92731zM223.25846,181.26615v-2.86923h8.60769v2.86923z"/><path d="M256.0972,188.94453c-1.23908,0 -2.38909,-0.2207 -3.45005,-0.66212c-1.05321,-0.44917 -1.97477,-1.07257 -2.76468,-1.87022c-0.78217,-0.80539 -1.39009,-1.7502 -1.82376,-2.83438c-0.42594,-1.09193 -0.6389,-2.28455 -0.6389,-3.57783c0,-1.28554 0.21297,-2.47427 0.6389,-3.5662c0.43368,-1.09193 1.0416,-2.03673 1.82376,-2.83438c0.78991,-0.80539 1.71147,-1.4288 2.76468,-1.87023c1.06094,-0.44917 2.21097,-0.67374 3.45005,-0.67374c1.25456,0 2.40844,0.22458 3.46166,0.67374c1.06094,0.44142 1.97865,1.06869 2.75307,1.88184c0.77443,0.81315 1.3746,1.76181 1.80053,2.84601c0.43368,1.07644 0.65051,2.25743 0.65051,3.54298c0,1.2778 -0.21684,2.46266 -0.65051,3.5546c-0.42594,1.08418 -1.02611,2.03286 -1.80053,2.846c-0.77443,0.80539 -1.6921,1.43267 -2.75307,1.88184c-1.05322,0.44142 -2.2071,0.66213 -3.46166,0.66213zM256.0972,185.87783c0.78991,0 1.51011,-0.14327 2.16064,-0.4298c0.65825,-0.29428 1.22358,-0.70859 1.69598,-1.24294c0.48013,-0.53435 0.85572,-1.15776 1.12678,-1.87022c0.2788,-0.71246 0.41818,-1.49077 0.41818,-2.33488c0,-0.83637 -0.13939,-1.6108 -0.41818,-2.32326c-0.27105,-0.71246 -0.64664,-1.33588 -1.12677,-1.87023c-0.47241,-0.5421 -1.03772,-0.95641 -1.69598,-1.24294c-0.65051,-0.28654 -1.37073,-0.4298 -2.16064,-0.4298c-0.78217,0 -1.50237,0.14327 -2.16064,0.4298c-0.65825,0.28654 -1.22745,0.69698 -1.70759,1.23133c-0.48014,0.5266 -0.85186,1.14615 -1.11517,1.8586c-0.2633,0.70473 -0.39496,1.48688 -0.39496,2.3465c0,0.84412 0.13164,1.62629 0.39496,2.3465c0.2633,0.72022 0.63502,1.34362 1.11517,1.87023c0.48013,0.5266 1.04934,0.93705 1.70759,1.23133c0.65825,0.28654 1.37847,0.4298 2.16064,0.4298z"/><path d="M275.31439,188.70059l-6.93494,-17.34315h3.51974l3.86824,9.93194c0.1936,0.51112 0.36398,0.9719 0.51112,1.38234c0.15488,0.4027 0.29041,0.77054 0.40657,1.10355c0.11616,0.32525 0.21684,0.64664 0.30203,0.96416c0.09293,0.30977 0.19748,0.6389 0.31364,0.98739h-0.69698c0.11616,-0.44917 0.24008,-0.89059 0.37173,-1.32427c0.13164,-0.44142 0.28266,-0.90995 0.45303,-1.40557c0.17811,-0.49563 0.39108,-1.06483 0.6389,-1.70759l3.62428,-9.93194h3.54298l-6.99301,17.34316z"/><path d="M292.04987,188.70059v-17.34315h11.33751v2.92731h-8.16626v11.48854h8.27081v2.92731zM293.52516,181.26615v-2.86923h8.60769v2.86923z"/><path d="M309.56718,188.70059v-17.34315h7.52737c1.03772,0 1.9864,0.24395 2.84601,0.73183c0.85961,0.48788 1.5411,1.15002 2.04448,1.9864c0.50337,0.82863 0.75507,1.76569 0.75507,2.81115c0,0.99126 -0.25169,1.90508 -0.75506,2.74145c-0.50337,0.82863 -1.18099,1.48689 -2.03285,1.97477c-0.85186,0.48788 -1.8044,0.73183 -2.85762,0.73183h-4.39097v6.36574zM319.61527,188.70059l-4.40258,-7.82939l3.32227,-0.61567l4.90208,8.4683zM312.70356,179.53532h4.4142c0.48014,0 0.89833,-0.1123 1.25456,-0.33687c0.35624,-0.22458 0.63115,-0.53435 0.82476,-0.9293c0.20135,-0.39496 0.30202,-0.8325 0.30202,-1.31264c0,-0.5421 -0.12391,-1.01061 -0.37173,-1.40557c-0.24781,-0.4027 -0.59629,-0.72022 -1.04546,-0.95253c-0.44142,-0.23233 -0.95254,-0.34849 -1.53335,-0.34849h-3.845z"/></g><path d="M146.50001,284.50001v-209h187v209z" fill="none" stroke-width="0" stroke-linecap="butt"/></g></g></svg>