<svg version="1.1" xmlns="http://www.w3.org/2000/svg" xmlns:xlink="http://www.w3.org/1999/xlink" width="191" height="191" viewBox="0,0,191,191"><defs><linearGradient x1="240.00004" y1="164.61901" x2="240.00004" y2="195.38106" gradientUnits="userSpaceOnUse" id="color-1"><stop offset="0" stop-color="#004036" stop-opacity="0"/><stop offset="1" stop-color="#004036"/></linearGradient><linearGradient x1="240.00006" y1="165.75" x2="240.00006" y2="194.25007" gradientUnits="userSpaceOnUse" id="color-2"><stop offset="0" stop-color="#00ab91"/><stop offset="1" stop-color="#004036"/></linearGradient><linearGradient x1="240.00006" y1="165.75" x2="240.00006" y2="194.25007" gradientUnits="userSpaceOnUse" id="color-3"><stop offset="0" stop-color="#edfbb0"/><stop offset="1" stop-color="#c3f8b0"/></linearGradient><linearGradient x1="240.00006" y1="165.75" x2="240.00006" y2="194.25004" gradientUnits="userSpaceOnUse" id="color-4"><stop offset="0" stop-color="#edfbb0"/><stop offset="1" stop-color="#c3f8b0"/></linearGradient><linearGradient x1="240.00006" y1="165.75" x2="240.00006" y2="194.25007" gradientUnits="userSpaceOnUse" id="color-5"><stop offset="0" stop-color="#9ef77e" stop-opacity="0.38546"/><stop offset="1" stop-color="#9ef77e" stop-opacity="0"/></linearGradient><linearGradient x1="240.00006" y1="165.75" x2="240.00006" y2="194.25007" gradientUnits="userSpaceOnUse" id="color-6"><stop offset="0" stop-color="#9ef77e" stop-opacity="0.38546"/><stop offset="1" stop-color="#9ef77e" stop-opacity="0"/></linearGradient><linearGradient x1="240.00006" y1="165.75" x2="240.00006" y2="194.25004" gradientUnits="userSpaceOnUse" id="color-7"><stop offset="0" stop-color="#9ef77e" stop-opacity="0.38546"/><stop offset="1" stop-color="#9ef77e" stop-opacity="0"/></linearGradient><linearGradient x1="234.38585" y1="175.20006" x2="234.38585" y2="181.90007" gradientUnits="userSpaceOnUse" id="color-8"><stop offset="0" stop-color="#73ffea" stop-opacity="0"/><stop offset="1" stop-color="#73ffea"/></linearGradient><linearGradient x1="234.38585" y1="188.60005" x2="234.38585" y2="181.90007" gradientUnits="userSpaceOnUse" id="color-9"><stop offset="0" stop-color="#73ffea" stop-opacity="0"/><stop offset="1" stop-color="#73ffea"/></linearGradient><linearGradient x1="245.61428" y1="175.20006" x2="245.61428" y2="181.90007" gradientUnits="userSpaceOnUse" id="color-10"><stop offset="0" stop-color="#73ffea" stop-opacity="0"/><stop offset="1" stop-color="#73ffea"/></linearGradient><linearGradient x1="245.61428" y1="188.60005" x2="245.61428" y2="181.90007" gradientUnits="userSpaceOnUse" id="color-11"><stop offset="0" stop-color="#73ffea" stop-opacity="0"/><stop offset="1" stop-color="#73ffea"/></linearGradient></defs><g transform="translate(-144.5,-84.5)"><g data-paper-data="{&quot;isPaintingLayer&quot;:true}" stroke="none" stroke-linecap="butt" stroke-linejoin="miter" stroke-miterlimit="10" stroke-dasharray="" stroke-dashoffset="0" style="mix-blend-mode: normal"><path d="M144.5,275.5v-191h191v191z" fill="none" fill-rule="nonzero" stroke-width="0"/><path d="M231.56556,168.55295c0,-2.17265 1.95212,-3.93393 4.3602,-3.93393h8.14858c2.40805,0 4.3602,1.76128 4.3602,3.93393v0.77389v6.57804v8.51275v5.35272v1.67676c0,2.17262 -1.95216,3.93393 -4.3602,3.93393h-8.14858c-2.40808,0 -4.3602,-1.7613 -4.3602,-3.93393v-1.67676v-5.35272v-8.51275v-6.57804z" fill="url(#color-1)" fill-rule="evenodd" stroke-width="1"/><path d="M232.94974,169.39472c0,-2.01289 1.63177,-3.64465 3.64465,-3.64465h6.81132c2.01286,0 3.64465,1.63177 3.64465,3.64465v0.71698v6.09434v7.88679v4.95912v1.55346c0,2.01286 -1.63179,3.64465 -3.64465,3.64465h-6.81132c-2.01289,0 -3.64465,-1.63179 -3.64465,-3.64465v-1.55346v-4.95912v-7.88679v-6.09434z" fill="url(#color-2)" fill-rule="evenodd" stroke-width="1"/><path d="M232.94976,169.39473c0,-2.01289 1.63176,-3.64465 3.64465,-3.64465c0,0 -0.19636,1.86302 -1.30004,2.80004c-0.83851,0.71189 -2.34461,0.84461 -2.34461,0.84461z" fill="url(#color-3)" fill-rule="evenodd" stroke-width="1"/><path d="M244.70574,168.55009c-1.10368,-0.93702 -1.30004,-2.80004 -1.30004,-2.80004c2.01289,0 3.64465,1.63176 3.64465,3.64465c0,0 -1.5061,-0.13272 -2.34461,-0.84461z" data-paper-data="{&quot;index&quot;:null}" fill="url(#color-4)" fill-rule="evenodd" stroke-width="1"/><path d="M232.94976,169.39473c0,-2.01289 1.63176,-3.64465 3.64465,-3.64465c0,0 -0.19636,1.86302 -1.30004,2.80004c-0.83851,0.71189 -2.34461,0.84461 -2.34461,0.84461z" fill="url(#color-5)" fill-rule="evenodd" stroke-width="1"/><path d="M232.94976,169.39473c0,-2.01289 1.63176,-3.64465 3.64465,-3.64465c0,0 -0.19636,1.86302 -1.30004,2.80004c-0.83851,0.71189 -2.34461,0.84461 -2.34461,0.84461z" fill="url(#color-6)" fill-rule="evenodd" stroke-width="1"/><path d="M244.70574,168.55009c-1.10368,-0.93702 -1.30004,-2.80004 -1.30004,-2.80004c2.01289,0 3.64465,1.63176 3.64465,3.64465c0,0 -1.5061,-0.13272 -2.34461,-0.84461z" data-paper-data="{&quot;index&quot;:null}" fill="url(#color-7)" fill-rule="evenodd" stroke-width="1"/><path d="M240.00006,169.39472c2.2396,0 4.05513,1.55245 4.05513,3.46749v17.74321h-8.11026v-17.74321c0,-1.91504 1.81555,-3.46749 4.05513,-3.46749z" fill-opacity="0.34166" fill="#ffffff" fill-rule="evenodd" stroke-width="1"/><path d="M240.00006,170.35005c1.74254,0 3.15513,1.4126 3.15513,3.15513v16.14486h-6.31026v-16.14486c0,-1.74253 1.4126,-3.15513 3.15513,-3.15513z" fill="#06332c" fill-rule="evenodd" stroke-width="1"/><g fill-rule="nonzero" stroke-width="0"><path d="M233.52773,181.90007v-6.7h1.71627v6.7z" fill="url(#color-8)"/><path d="M235.24398,181.90007v6.7h-1.71627v-6.7z" data-paper-data="{&quot;index&quot;:null}" fill="url(#color-9)"/></g><g fill-rule="nonzero" stroke-width="0"><path d="M244.75612,181.90007v-6.7h1.71627v6.7z" fill="url(#color-10)"/><path d="M246.47239,181.90007v6.7h-1.71627v-6.7z" data-paper-data="{&quot;index&quot;:null}" fill="url(#color-11)"/></g><path d="M231.56551,195.55695v-31.1139h16.86898v31.1139z" fill-opacity="0.00806" fill="#000000" fill-rule="nonzero" stroke-width="0"/></g></g></svg>