<svg version="1.1" xmlns="http://www.w3.org/2000/svg" xmlns:xlink="http://www.w3.org/1999/xlink" width="244" height="49" viewBox="0,0,244,49"><g transform="translate(-118,-155.5)"><g data-paper-data="{&quot;isPaintingLayer&quot;:true}" fill-rule="nonzero" stroke="none" stroke-linejoin="miter" stroke-miterlimit="10" stroke-dasharray="" stroke-dashoffset="0" style="mix-blend-mode: normal"><path d="M283.26661,165.26427l0.23222,29.68108l-86.81186,-0.07324l-0.18582,-29.81746z" fill-opacity="0.00392" fill="#ffffff" stroke-width="0" stroke-linecap="butt"/><path d="M118,204.5v-49h244v49z" fill="none" stroke-width="0" stroke-linecap="butt"/><g fill="#60838a" stroke-width="1" stroke-linecap="square"><path d="M205.16012,187.37295c-0.82986,0 -1.59268,-0.10532 -2.28848,-0.31598c-0.6958,-0.21066 -1.32458,-0.52665 -1.88632,-0.94796c-0.55536,-0.42131 -1.05009,-0.93199 -1.48417,-1.53204l1.73312,-1.96293c0.67027,0.92561 1.32458,1.56715 1.96293,1.92462c0.64473,0.35109 1.36606,0.52664 2.16401,0.52664c0.46599,0 0.8873,-0.07022 1.26393,-0.21066c0.38301,-0.14043 0.68303,-0.33514 0.90007,-0.58409c0.22342,-0.25534 0.33514,-0.54898 0.33514,-0.88092c0,-0.2298 -0.04469,-0.44366 -0.13406,-0.64155c-0.08937,-0.19789 -0.22342,-0.37343 -0.40216,-0.52664c-0.17874,-0.15959 -0.39897,-0.30641 -0.6607,-0.44046c-0.25534,-0.13405 -0.54578,-0.24896 -0.87134,-0.34471c-0.32556,-0.09575 -0.68623,-0.18512 -1.08201,-0.2681c-0.74687,-0.15321 -1.40118,-0.35429 -1.96293,-0.60324c-0.55536,-0.24895 -1.02455,-0.56176 -1.40756,-0.93838c-0.38301,-0.37662 -0.66389,-0.79794 -0.84263,-1.26393c-0.17236,-0.47238 -0.25853,-1.00859 -0.25853,-1.60864c0,-0.60005 0.13086,-1.15222 0.39258,-1.65652c0.2681,-0.5043 0.63197,-0.93838 1.09158,-1.30223c0.46599,-0.37025 1.0054,-0.6575 1.61821,-0.86177c0.61282,-0.20427 1.27351,-0.30641 1.98208,-0.30641c0.80432,0 1.52247,0.09575 2.15443,0.28726c0.63197,0.19151 1.19053,0.47557 1.67567,0.8522c0.48514,0.37025 0.88412,0.82347 1.19691,1.35969l-1.76184,1.73312c-0.2681,-0.42131 -0.57452,-0.7724 -0.91923,-1.05327c-0.33832,-0.28088 -0.70538,-0.49153 -1.10116,-0.63197c-0.39577,-0.14682 -0.8107,-0.22023 -1.24478,-0.22023c-0.49153,0 -0.91923,0.07022 -1.28309,0.21066c-0.35747,0.13405 -0.63835,0.32875 -0.84262,0.58409c-0.20427,0.24895 -0.30641,0.55218 -0.30641,0.90965c0,0.2681 0.06064,0.50749 0.18193,0.71814c0.12767,0.21066 0.30322,0.39897 0.52664,0.56494c0.22342,0.15959 0.51067,0.30322 0.86177,0.43089c0.35747,0.12129 0.75964,0.2298 1.20649,0.32556c0.75325,0.14682 1.42672,0.3479 2.02038,0.60324c0.60005,0.24895 1.11073,0.54898 1.53204,0.90008c0.42769,0.34471 0.75006,0.74048 0.9671,1.18733c0.21704,0.44046 0.32556,0.93199 0.32556,1.47459c0,0.93838 -0.22342,1.74589 -0.67027,2.42254c-0.44046,0.67027 -1.06286,1.18733 -1.86718,1.55119c-0.79794,0.35747 -1.73632,0.53621 -2.81513,0.53621z"/><path d="M221.2777,187.37295c-1.02136,0 -1.96931,-0.18193 -2.84385,-0.54579c-0.86816,-0.37025 -1.6278,-0.88412 -2.27892,-1.54162c-0.64473,-0.66388 -1.14584,-1.44268 -1.50331,-2.33637c-0.35109,-0.90007 -0.52664,-1.88313 -0.52664,-2.94918c0,-1.05966 0.17555,-2.03954 0.52664,-2.9396c0.35747,-0.90007 0.85858,-1.67887 1.50331,-2.33637c0.65112,-0.66388 1.41076,-1.17775 2.27892,-1.54161c0.87454,-0.37025 1.82249,-0.55537 2.84385,-0.55537c1.03413,0 1.98527,0.18512 2.85342,0.55537c0.87454,0.36386 1.63099,0.88092 2.26934,1.55119c0.63835,0.67027 1.13307,1.45225 1.48417,2.34594c0.35747,0.8873 0.53621,1.86079 0.53621,2.92045c0,1.05328 -0.17874,2.02996 -0.53621,2.93003c-0.35109,0.89369 -0.84582,1.67568 -1.48417,2.34595c-0.63835,0.66388 -1.3948,1.18094 -2.26934,1.55119c-0.86816,0.36386 -1.81929,0.54579 -2.85342,0.54579zM221.2777,184.84509c0.65112,0 1.24479,-0.11809 1.781,-0.35428c0.5426,-0.24257 1.00859,-0.5841 1.39798,-1.02456c0.39577,-0.44046 0.70538,-0.95433 0.9288,-1.54161c0.2298,-0.58729 0.34471,-1.22883 0.34471,-1.92463c0,-0.68942 -0.11491,-1.32776 -0.34471,-1.91505c-0.22342,-0.58729 -0.53303,-1.10116 -0.9288,-1.54162c-0.3894,-0.44684 -0.85538,-0.78836 -1.39798,-1.02455c-0.53621,-0.23619 -1.12988,-0.35429 -1.781,-0.35429c-0.64473,0 -1.2384,0.1181 -1.781,0.35429c-0.5426,0.23619 -1.01179,0.57452 -1.40756,1.01498c-0.39577,0.43408 -0.70219,0.94475 -0.91923,1.53204c-0.21704,0.5809 -0.32556,1.22563 -0.32556,1.9342c0,0.6958 0.10852,1.34054 0.32556,1.9342c0.21704,0.59366 0.52345,1.10754 0.91923,1.54162c0.39577,0.43408 0.86496,0.77241 1.40756,1.01498c0.5426,0.23619 1.13627,0.35428 1.781,0.35428z"/><path d="M238.69826,187.29635c-1.12988,0 -2.13847,-0.24258 -3.02578,-0.72772c-0.8873,-0.48514 -1.5863,-1.15222 -2.09698,-2.00123c-0.51068,-0.84901 -0.76602,-1.81292 -0.76602,-2.89173v-8.81882h2.68107v8.63689c0,0.63835 0.14682,1.20648 0.44046,1.7044c0.29364,0.49792 0.68304,0.89688 1.16818,1.1969c0.49153,0.30003 1.02455,0.45004 1.59907,0.45004c0.62559,0 1.19053,-0.15001 1.69482,-0.45004c0.5043,-0.30003 0.90007,-0.69899 1.18733,-1.1969c0.29364,-0.49792 0.44046,-1.06605 0.44046,-1.7044v-8.63689h2.57575v8.81882c0,1.07881 -0.25534,2.04272 -0.76602,2.89173c-0.51068,0.84901 -1.20968,1.51609 -2.09699,2.00123c-0.88092,0.48514 -1.89271,0.72772 -3.03536,0.72772z"/><path d="M249.95375,187.17188v-14.29586h2.38424l8.29219,11.17433l-0.45004,0.0766c-0.05107,-0.38301 -0.09894,-0.77241 -0.14363,-1.16818c-0.0383,-0.40216 -0.0766,-0.82028 -0.1149,-1.25436c-0.03192,-0.44046 -0.05746,-0.89688 -0.07661,-1.36926c-0.01915,-0.47877 -0.0383,-0.97987 -0.05745,-1.50332c-0.01276,-0.52345 -0.01916,-1.07881 -0.01916,-1.66609v-4.28972h2.64277v14.29586h-2.43212l-8.33049,-11.01155l0.52664,-0.14363c0.07022,0.76602 0.12767,1.41714 0.17236,1.95335c0.05107,0.53621 0.08937,0.99902 0.1149,1.38842c0.02553,0.3894 0.04788,0.71495 0.06703,0.97668c0.02553,0.25534 0.04149,0.48834 0.04788,0.69899c0.00638,0.21066 0.00958,0.41173 0.00958,0.60324v5.5345z"/><path d="M267.92651,187.17188v-14.29586h5.73558c1.03413,0 1.96931,0.17235 2.80555,0.51706c0.83624,0.33832 1.55757,0.82667 2.16401,1.46502c0.60644,0.63835 1.06924,1.3948 1.38841,2.26934c0.31918,0.86816 0.47877,1.83206 0.47877,2.89172c0,1.06605 -0.15959,2.03953 -0.47877,2.92046c-0.31917,0.87454 -0.77878,1.62779 -1.37883,2.25976c-0.60005,0.63197 -1.32138,1.12031 -2.16401,1.46501c-0.84262,0.33832 -1.781,0.50749 -2.81513,0.50749zM270.57885,185.1132l-0.21065,-0.39258h3.18856c0.67027,0 1.26713,-0.10852 1.79057,-0.32556c0.52345,-0.21704 0.9671,-0.52983 1.33096,-0.93838c0.37025,-0.40855 0.65112,-0.90008 0.84262,-1.47459c0.19151,-0.5809 0.28726,-1.23521 0.28726,-1.96293c0,-0.72134 -0.09575,-1.36926 -0.28726,-1.94377c-0.19151,-0.5809 -0.47557,-1.07562 -0.8522,-1.48416c-0.37025,-0.40855 -0.81389,-0.72134 -1.33096,-0.93838c-0.51707,-0.21704 -1.11073,-0.32556 -1.781,-0.32556h-3.24601l0.2681,-0.34471z"/></g></g></g></svg>