<svg version="1.1" xmlns="http://www.w3.org/2000/svg" xmlns:xlink="http://www.w3.org/1999/xlink" width="244" height="49" viewBox="0,0,244,49"><g transform="translate(-118,-155.5)"><g data-paper-data="{&quot;isPaintingLayer&quot;:true}" fill-rule="nonzero" stroke-linecap="butt" stroke-linejoin="miter" stroke-miterlimit="10" stroke-dasharray="" stroke-dashoffset="0" style="mix-blend-mode: normal"><path d="M223.65817,196.34183v-32.68366h32.68366v32.68366z" fill-opacity="0.00392" fill="#ffffff" stroke="none" stroke-width="NaN"/><path d="M234.67082,185.70424l-0.19635,-14.7358l14.90015,-2.30493l0.0579,16.15349l-1.87585,-1.06816l-0.10552,-9.85137l-10.9386,1.69282l-0.01086,11.07083z" fill="#60838a" stroke="#60838a" stroke-width="1.5"/><path d="M235.92895,185.91016c0.9873,0.9873 0.70482,2.8705 -0.63094,4.20626c-1.33575,1.33575 -3.21896,1.61824 -4.20626,0.63094c-0.9873,-0.9873 -0.70481,-2.8705 0.63094,-4.20626c1.33575,-1.33575 3.21896,-1.61824 4.20625,-0.63094z" fill="#60838a" stroke="#60838a" stroke-width="1.5"/><path d="M248.22461,188.50121c-1.33575,1.33575 -3.21896,1.61824 -4.20625,0.63094c-0.9873,-0.9873 -0.70482,-2.8705 0.63094,-4.20626c1.33575,-1.33575 3.21896,-1.61824 4.20626,-0.63094c0.9873,0.9873 0.7048,2.8705 -0.63095,4.20626z" fill="#60838a" stroke="#60838a" stroke-width="1.5"/><path d="M118,204.5v-49h244v49z" fill="none" stroke="none" stroke-width="0"/></g></g></svg>