<svg version="1.1" xmlns="http://www.w3.org/2000/svg" xmlns:xlink="http://www.w3.org/1999/xlink" width="21.55556" height="21.55556" viewBox="0,0,21.55556,21.55556"><g transform="translate(-229.22229,-169.22222)"><g data-paper-data="{&quot;isPaintingLayer&quot;:true}" fill-rule="nonzero" stroke="none" stroke-linejoin="miter" stroke-miterlimit="10" stroke-dasharray="" stroke-dashoffset="0" style="mix-blend-mode: normal"><path d="M229.22229,190.77778v-21.55556h21.55556v21.55556z" fill="none" stroke-width="0" stroke-linecap="butt"/><path d="M238.6787,188.11465l-0.08525,-0.22378l4.81659,-10.04877l0.27706,1.70499c-0.22733,0.48308 -0.50439,0.91643 -0.83118,1.30005c-0.32679,0.37652 -0.69975,0.70686 -1.11889,0.99103c-0.41204,0.27706 -0.83829,0.48663 -1.27874,0.62872c-0.44045,0.14208 -0.88091,0.21312 -1.32137,0.21312c-0.8667,0 -1.66236,-0.23088 -2.38698,-0.69265c-0.72462,-0.46177 -1.30716,-1.07272 -1.74761,-1.83286c-0.44045,-0.76724 -0.66068,-1.60553 -0.66068,-2.51486c0,-1.07982 0.24864,-2.05309 0.74593,-2.91979c0.50439,-0.87381 1.18284,-1.56291 2.03533,-2.0673c0.8596,-0.5115 1.82576,-0.76724 2.89848,-0.76724c0.77435,0 1.50607,0.14208 2.19517,0.42625c0.6891,0.27706 1.28585,0.66779 1.79024,1.17218c0.5115,0.49729 0.91288,1.07272 1.20415,1.7263c0.29837,0.64648 0.44756,1.33557 0.44756,2.0673c0,0.43335 -0.04262,0.88447 -0.12787,1.35334c-0.07814,0.46177 -0.20957,0.96616 -0.39427,1.51318c-0.17761,0.53991 -0.40849,1.13666 -0.69265,1.79024c-0.27706,0.65358 -0.6145,1.39596 -1.01233,2.22714l-1.92876,3.95344zM239.7976,180.13317c0.54701,0 1.0372,-0.12432 1.47055,-0.37296c0.44045,-0.24864 0.78145,-0.57543 1.02299,-0.98037c0.24864,-0.41204 0.37297,-0.88446 0.37297,-1.41727c0,-0.54701 -0.12432,-1.0372 -0.37296,-1.47055c-0.24154,-0.44045 -0.57543,-0.785 -1.00168,-1.03365c-0.41914,-0.25575 -0.90222,-0.38362 -1.44924,-0.38362c-0.5115,0 -0.96616,0.12077 -1.36399,0.36231c-0.39073,0.24154 -0.70331,0.57899 -0.93774,1.01234c-0.23444,0.43335 -0.35165,0.93774 -0.35165,1.51318c0,0.48308 0.11722,0.93774 0.35166,1.36399c0.23444,0.42625 0.55057,0.76724 0.9484,1.02299c0.40493,0.25575 0.84184,0.38362 1.31071,0.38362z" fill="#60838a" stroke-width="1" stroke-linecap="square"/></g></g></svg>