<svg version="1.1" xmlns="http://www.w3.org/2000/svg" xmlns:xlink="http://www.w3.org/1999/xlink" width="21.55556" height="21.55556" viewBox="0,0,21.55556,21.55556"><g transform="translate(-229.22227,-169.22222)"><g data-paper-data="{&quot;isPaintingLayer&quot;:true}" fill-rule="nonzero" stroke="none" stroke-linejoin="miter" stroke-miterlimit="10" stroke-dasharray="" stroke-dashoffset="0" style="mix-blend-mode: normal"><path d="M229.22227,190.77778v-21.55556h21.55556v21.55556z" fill="none" stroke-width="0" stroke-linecap="butt"/><path d="M240.03195,188.09335c-0.80276,0 -1.54869,-0.14208 -2.2378,-0.42625c-0.6891,-0.29127 -1.28939,-0.6891 -1.80089,-1.19349c-0.50439,-0.5115 -0.90222,-1.10824 -1.19349,-1.79024c-0.28417,-0.68199 -0.42625,-1.43148 -0.42625,-2.24845c0,-0.45467 0.05683,-0.93774 0.1705,-1.44924c0.11367,-0.5186 0.28772,-1.06917 0.52216,-1.6517c0.23444,-0.58254 0.5115,-1.19349 0.83118,-1.83286c0.31969,-0.63937 0.6891,-1.30716 1.10824,-2.00336l2.12058,-3.59113h2.81323l0.09591,0.23444l-2.70667,4.45428c-0.44045,0.72462 -0.82763,1.41017 -1.16152,2.05664c-0.33389,0.63937 -0.61806,1.25388 -0.85249,1.84352c-0.23444,0.58254 -0.42625,1.14376 -0.57543,1.68368l-0.61806,-2.0673c0.22733,-0.48308 0.50794,-0.91998 0.84184,-1.31071c0.33389,-0.39783 0.70331,-0.73173 1.10824,-1.00168c0.41204,-0.27706 0.84184,-0.48308 1.2894,-0.61806c0.44756,-0.13498 0.90578,-0.20246 1.37465,-0.20246c0.88091,0 1.69078,0.23799 2.42961,0.71397c0.74593,0.47598 1.34268,1.10824 1.79024,1.8968c0.44756,0.78856 0.67134,1.65171 0.67134,2.58945c0,1.13666 -0.23799,2.14899 -0.71396,3.03701c-0.47598,0.88801 -1.14021,1.59132 -1.9927,2.10992c-0.84539,0.5115 -1.808,0.76724 -2.88782,0.76724zM240.05327,185.50389c0.54701,0 1.0372,-0.12787 1.47055,-0.38362c0.43335,-0.26285 0.7708,-0.62516 1.01234,-1.08693c0.24154,-0.46177 0.36231,-0.99457 0.36231,-1.59843c0,-0.5186 -0.12432,-0.99813 -0.37296,-1.43858c-0.24864,-0.44756 -0.58609,-0.80987 -1.01233,-1.08693c-0.42625,-0.28417 -0.90577,-0.42625 -1.43858,-0.42625c-0.57543,0 -1.08693,0.13143 -1.53449,0.39428c-0.44045,0.26285 -0.78856,0.61806 -1.0443,1.06562c-0.24864,0.44756 -0.37296,0.94485 -0.37296,1.49186c0,0.57543 0.12432,1.09404 0.37297,1.5558c0.25575,0.46177 0.6003,0.83118 1.03365,1.10824c0.44045,0.26995 0.9484,0.40493 1.52384,0.40493z" fill="#60838a" stroke-width="1" stroke-linecap="square"/></g></g></svg>