<svg version="1.1" xmlns="http://www.w3.org/2000/svg" xmlns:xlink="http://www.w3.org/1999/xlink" width="187" height="209" viewBox="0,0,187,209"><g transform="translate(-146.5,-75.5)"><g data-paper-data="{&quot;isPaintingLayer&quot;:true}" fill-rule="nonzero" stroke="none" stroke-linejoin="miter" stroke-miterlimit="10" stroke-dasharray="" stroke-dashoffset="0" style="mix-blend-mode: normal"><path d="M318.95766,152.32982l0.42376,55.734l-158.42372,-0.13753l-0.33911,-55.9901z" fill-opacity="0.00392" fill="#ffffff" stroke-width="0" stroke-linecap="butt"/><path d="M146.5,284.5v-209h187v209z" fill="none" stroke-width="0" stroke-linecap="butt"/><g fill="#60838a" stroke-width="1" stroke-linecap="square"><path d="M193.40049,191.44374c-1.28804,0 -2.47207,-0.16347 -3.55203,-0.49045c-1.07998,-0.32696 -2.05593,-0.8174 -2.92783,-1.47134c-0.86199,-0.65393 -1.62988,-1.44657 -2.30361,-2.37794l2.69004,-3.04673c1.04034,1.43667 2.05593,2.43242 3.04673,2.98728c1.00071,0.54495 2.12032,0.81742 3.35883,0.81742c0.72329,0 1.37723,-0.10899 1.9618,-0.32696c0.59448,-0.21797 1.06016,-0.52016 1.39703,-0.90658c0.34678,-0.39632 0.52018,-0.85208 0.52018,-1.36732c0,-0.35669 -0.06936,-0.68861 -0.20806,-0.99575c-0.1387,-0.30715 -0.34678,-0.57961 -0.6242,-0.8174c-0.27742,-0.24771 -0.61925,-0.47559 -1.02548,-0.68365c-0.39632,-0.20806 -0.84714,-0.38641 -1.35244,-0.53504c-0.5053,-0.14861 -1.06511,-0.28733 -1.67942,-0.41614c-1.15924,-0.23779 -2.17483,-0.54989 -3.04673,-0.9363c-0.86199,-0.38641 -1.59023,-0.8719 -2.18472,-1.45648c-0.59448,-0.58457 -1.03043,-1.23851 -1.30787,-1.9618c-0.26751,-0.73319 -0.40126,-1.56546 -0.40126,-2.49684c0,-0.93135 0.20311,-1.7884 0.60934,-2.57114c0.41614,-0.78274 0.98089,-1.45648 1.69427,-2.02125c0.72329,-0.57466 1.56052,-1.02054 2.51169,-1.33758c0.95118,-0.31705 1.97666,-0.47559 3.07646,-0.47559c1.24842,0 2.36308,0.14861 3.34397,0.44585c0.98089,0.29724 1.84785,0.73815 2.60088,1.32272c0.75301,0.57466 1.37226,1.27813 1.85776,2.11041l-2.73463,2.69004c-0.41614,-0.65393 -0.89173,-1.19888 -1.42676,-1.63482c-0.52513,-0.43594 -1.09484,-0.76292 -1.70913,-0.98089c-0.61429,-0.22788 -1.25833,-0.34181 -1.93207,-0.34181c-0.76292,0 -1.42676,0.10899 -1.99151,0.32696c-0.55484,0.20806 -0.9908,0.51027 -1.30787,0.90658c-0.31705,0.38641 -0.47559,0.85705 -0.47559,1.41191c0,0.41614 0.09413,0.78769 0.28239,1.11466c0.19815,0.32696 0.47062,0.61925 0.81742,0.87687c0.34678,0.24771 0.79263,0.47062 1.33758,0.66879c0.55484,0.18826 1.17906,0.35669 1.87262,0.5053c1.16915,0.22788 2.21445,0.53998 3.13591,0.93632c0.93135,0.38641 1.72401,0.85208 2.37794,1.39703c0.66384,0.53504 1.1642,1.14932 1.50107,1.8429c0.33687,0.68365 0.5053,1.44657 0.5053,2.28876c0,1.45648 -0.34678,2.70986 -1.04034,3.76011c-0.68365,1.04034 -1.64968,1.8429 -2.8981,2.40765c-1.23851,0.55484 -2.69499,0.83228 -4.36945,0.83228z"/><path d="M208.84599,191.13164v-22.18914h14.50543v3.74525h-10.44806v14.69863h10.58183v3.74525zM210.73348,181.61988v-3.67093h11.01283v3.67095z"/><path d="M235.68676,191.13164v-18.38444h-6.33125v-3.8047h16.98741v3.8047h-6.53933v18.38444z"/><path d="M261.87668,191.32484c-1.75372,0 -3.3192,-0.37649 -4.69643,-1.12952c-1.37723,-0.75301 -2.46216,-1.7884 -3.25479,-3.10618c-0.79263,-1.31778 -1.18897,-2.81388 -1.18897,-4.48835v-13.68801h4.16139v13.40562c0,0.9908 0.22788,1.87262 0.68365,2.64545c0.45577,0.77283 1.06016,1.39208 1.81317,1.85776c0.76292,0.46568 1.59025,0.69852 2.48198,0.69852c0.97098,0 1.84785,-0.23283 2.63059,-0.69851c0.78274,-0.46568 1.39703,-1.08493 1.8429,-1.85776c0.45577,-0.77283 0.68365,-1.65465 0.68365,-2.64545v-13.40562h3.99791v13.68801c0,1.67447 -0.39632,3.17057 -1.18897,4.48835c-0.79263,1.31778 -1.87758,2.35317 -3.25479,3.10618c-1.36732,0.75301 -2.93774,1.12952 -4.71129,1.12952z"/><path d="M279.34678,191.13164v-22.18914h9.21452c1.26822,0 2.41262,0.30715 3.43315,0.92144c1.03043,0.61429 1.85281,1.45153 2.4671,2.51169c0.61429,1.05025 0.92144,2.22931 0.92144,3.53718c0,1.33758 -0.30715,2.54143 -0.92144,3.6115c-0.61429,1.06016 -1.43667,1.9073 -2.4671,2.54143c-1.02054,0.63411 -2.16491,0.95118 -3.43314,0.95118h-5.09769v8.11471zM283.4636,179.21221h4.81533c0.52513,0 1.00566,-0.14861 1.44162,-0.44585c0.43594,-0.29724 0.78274,-0.68861 1.04034,-1.17409c0.26751,-0.4855 0.40128,-1.03539 0.40128,-1.64968c0,-0.61429 -0.13375,-1.15924 -0.40126,-1.63482c-0.2576,-0.47559 -0.6044,-0.85208 -1.04034,-1.12952c-0.43594,-0.28733 -0.9165,-0.431 -1.44162,-0.431h-4.81533z"/></g></g></g></svg>