<svg version="1.1" xmlns="http://www.w3.org/2000/svg" xmlns:xlink="http://www.w3.org/1999/xlink" width="188" height="188" viewBox="0,0,188,188"><defs><radialGradient cx="240.00001" cy="180.00001" r="14.83653" gradientUnits="userSpaceOnUse" id="color-1"><stop offset="0" stop-color="#8f00ff"/><stop offset="1" stop-color="#8f00ff" stop-opacity="0"/></radialGradient><linearGradient x1="240.00001" y1="174.36736" x2="240.00001" y2="185.63266" gradientUnits="userSpaceOnUse" id="color-2"><stop offset="0" stop-color="#edfbb0"/><stop offset="1" stop-color="#c3f8b0"/></linearGradient><linearGradient x1="240.00001" y1="174.36736" x2="240.00001" y2="185.63265" gradientUnits="userSpaceOnUse" id="color-3"><stop offset="0" stop-color="#edfbb0"/><stop offset="1" stop-color="#c3f8b0"/></linearGradient><linearGradient x1="240.00001" y1="174.36736" x2="240.00001" y2="185.63266" gradientUnits="userSpaceOnUse" id="color-4"><stop offset="0" stop-color="#9ef77e" stop-opacity="0.38546"/><stop offset="1" stop-color="#9ef77e" stop-opacity="0"/></linearGradient><linearGradient x1="240.00001" y1="174.36736" x2="240.00001" y2="185.63266" gradientUnits="userSpaceOnUse" id="color-5"><stop offset="0" stop-color="#a57ef7"/><stop offset="1" stop-color="#a57ef7" stop-opacity="0"/></linearGradient><linearGradient x1="240.00001" y1="174.36736" x2="240.00001" y2="185.63265" gradientUnits="userSpaceOnUse" id="color-6"><stop offset="0" stop-color="#a57ef7"/><stop offset="1" stop-color="#a57ef7" stop-opacity="0"/></linearGradient></defs><g transform="translate(-146.00001,-86)"><g data-paper-data="{&quot;isPaintingLayer&quot;:true}" stroke="none" stroke-linecap="butt" stroke-linejoin="miter" stroke-miterlimit="10" stroke-dasharray="" stroke-dashoffset="0" style="mix-blend-mode: normal"><path d="M225.16348,180.00001c0,-8.19399 6.64254,-14.83653 14.83653,-14.83653c8.19399,0 14.83653,6.64254 14.83653,14.83653c0,8.19399 -6.64254,14.83653 -14.83653,14.83653c-8.19399,0 -14.83653,-6.64254 -14.83653,-14.83653z" fill="url(#color-1)" fill-rule="nonzero" stroke-width="0"/><path d="M230.5278,180c0,-5.23137 4.24087,-9.47222 9.47222,-9.47222c5.23137,0 9.47222,4.24087 9.47222,9.47222c0,5.23137 -4.24087,9.47222 -9.47222,9.47222c-5.23137,0 -9.47222,-4.24087 -9.47222,-9.47222z" fill="#5300ff" fill-rule="nonzero" stroke-width="0"/><path d="M232.77811,180c0,-3.98854 3.23336,-7.22192 7.22191,-7.22192c3.98854,0 7.22192,3.23336 7.22192,7.22192c0,3.98854 -3.23336,7.22191 -7.22192,7.22191c-3.98854,0 -7.22191,-3.23336 -7.22191,-7.22191z" fill="#8f00ff" fill-rule="nonzero" stroke-width="0"/><path d="M237.21321,175.80801c0,-0.79565 0.64499,-1.44062 1.44062,-1.44062h2.69233c0.79563,0 1.44062,0.645 1.44062,1.44062v0.28341v2.40893v3.11742v1.9602v0.61405c0,0.79563 -0.64499,1.44062 -1.44062,1.44062h-2.69233c-0.79565,0 -1.44062,-0.64499 -1.44062,-1.44062v-0.61405v-1.9602v-3.11742v-2.40893z" fill="#5300ff" fill-rule="evenodd" stroke-width="1"/><path d="M237.21322,175.80801c0,-0.79565 0.645,-1.44062 1.44063,-1.44062c0,0 -0.07762,0.73641 -0.51387,1.10679c-0.33145,0.28139 -0.92676,0.33384 -0.92676,0.33384z" fill="url(#color-2)" fill-rule="evenodd" stroke-width="1"/><path d="M241.86003,175.47415c-0.43625,-0.37037 -0.51387,-1.10677 -0.51387,-1.10677c0.79565,0 1.44063,0.64499 1.44063,1.44062c0,0 -0.59533,-0.05246 -0.92676,-0.33384z" data-paper-data="{&quot;index&quot;:null}" fill="url(#color-3)" fill-rule="evenodd" stroke-width="1"/><path d="M237.21322,175.80801c0,-0.79565 0.645,-1.44062 1.44063,-1.44062c0,0 -0.07762,0.73641 -0.51387,1.10679c-0.33145,0.28139 -0.92676,0.33384 -0.92676,0.33384z" fill="url(#color-4)" fill-rule="evenodd" stroke-width="1"/><path d="M237.21322,175.80801c0,-0.79565 0.645,-1.44062 1.44063,-1.44062c0,0 -0.07762,0.73641 -0.51387,1.10679c-0.33145,0.28139 -0.92676,0.33384 -0.92676,0.33384z" fill="url(#color-5)" fill-rule="evenodd" stroke-width="1"/><path d="M241.86003,175.47415c-0.43625,-0.37037 -0.51387,-1.10677 -0.51387,-1.10677c0.79565,0 1.44063,0.64499 1.44063,1.44062c0,0 -0.59533,-0.05246 -0.92676,-0.33384z" data-paper-data="{&quot;index&quot;:null}" fill="url(#color-6)" fill-rule="evenodd" stroke-width="1"/><path d="M240.00001,175.80801c0.88526,0 1.60288,0.61363 1.60288,1.3706v7.01342h-3.20576v-7.01342c0,-0.75697 0.71763,-1.3706 1.60288,-1.3706z" fill-opacity="0.34166" fill="#ffffff" fill-rule="evenodd" stroke-width="1"/><path d="M240.00001,176.18563c0.68877,0 1.24714,0.55836 1.24714,1.24713v6.38162h-2.49427v-6.38162c0,-0.68877 0.55836,-1.24713 1.24714,-1.24713z" fill="#1a0633" fill-rule="evenodd" stroke-width="1"/><path d="M146.00001,274v-188h188v188z" fill="none" fill-rule="nonzero" stroke-width="NaN"/></g></g></svg>