<svg version="1.1" xmlns="http://www.w3.org/2000/svg" xmlns:xlink="http://www.w3.org/1999/xlink" width="188" height="188" viewBox="0,0,188,188"><defs><radialGradient cx="240.00001" cy="180" r="14.83653" gradientUnits="userSpaceOnUse" id="color-1"><stop offset="0" stop-color="#6100ff"/><stop offset="1" stop-color="#6100ff" stop-opacity="0"/></radialGradient></defs><g transform="translate(-146.00001,-86)"><g data-paper-data="{&quot;isPaintingLayer&quot;:true}" fill-rule="nonzero" stroke="none" stroke-linejoin="miter" stroke-miterlimit="10" stroke-dasharray="" stroke-dashoffset="0" style="mix-blend-mode: normal"><path d="M225.16348,180c0,-8.19399 6.64254,-14.83653 14.83653,-14.83653c8.19399,0 14.83653,6.64254 14.83653,14.83653c0,8.19399 -6.64254,14.83653 -14.83653,14.83653c-8.19399,0 -14.83653,-6.64254 -14.83653,-14.83653z" fill="url(#color-1)" stroke-width="0" stroke-linecap="butt"/><path d="M230.52781,179.99999c0,-5.23137 4.24087,-9.47222 9.47222,-9.47222c5.23137,0 9.47222,4.24087 9.47222,9.47222c0,5.23137 -4.24087,9.47222 -9.47222,9.47222c-5.23137,0 -9.47222,-4.24087 -9.47222,-9.47222z" fill="#4400cc" stroke-width="0" stroke-linecap="butt"/><path d="M232.77812,179.99999c0,-3.98854 3.23336,-7.22192 7.22191,-7.22192c3.98854,0 7.22192,3.23336 7.22192,7.22192c0,3.98854 -3.23336,7.22191 -7.22192,7.22191c-3.98854,0 -7.22191,-3.23336 -7.22191,-7.22191z" fill="#6100ff" stroke-width="0" stroke-linecap="butt"/><path d="M146.00001,274v-188h188v188z" fill="none" stroke-width="NaN" stroke-linecap="butt"/><path d="M239.05874,184.82921v-8.00233h-2.75586v-1.65609h7.39423v1.65609h-2.84642v8.00234z" fill="#4400cc" stroke-width="1" stroke-linecap="square"/></g></g></svg>