<svg version="1.1" xmlns="http://www.w3.org/2000/svg" xmlns:xlink="http://www.w3.org/1999/xlink" width="244" height="49" viewBox="0,0,244,49"><g transform="translate(-118.18742,-155.49998)"><g data-paper-data="{&quot;isPaintingLayer&quot;:true}" fill-rule="nonzero" stroke="none" stroke-linejoin="miter" stroke-miterlimit="10" stroke-dasharray="" stroke-dashoffset="0" style="mix-blend-mode: normal"><path d="M293.93335,165.26427l0.28947,29.68108l-108.214,-0.07324l-0.23163,-29.81746z" fill-opacity="0.00392" fill="#ffffff" stroke-width="0" stroke-linecap="butt"/><path d="M118.18742,204.49998v-49h244v49z" fill="none" stroke-width="0" stroke-linecap="butt"/><g fill="#60838a" stroke-width="1" stroke-linecap="square"><path d="M207.6372,187.55703c-0.85058,0 -1.63246,-0.10795 -2.34563,-0.32387c-0.71318,-0.21592 -1.35766,-0.53979 -1.93343,-0.97162c-0.56923,-0.43183 -1.07631,-0.95526 -1.52122,-1.5703l1.7764,-2.01194c0.68701,0.94872 1.35766,1.60628 2.01195,1.97269c0.66083,0.35986 1.40019,0.53979 2.21805,0.53979c0.47763,0 0.90947,-0.07197 1.2955,-0.21592c0.39257,-0.14395 0.70009,-0.3435 0.92255,-0.59867c0.229,-0.26172 0.34351,-0.56269 0.34351,-0.90292c0,-0.23554 -0.0458,-0.45473 -0.1374,-0.65756c-0.0916,-0.20283 -0.229,-0.38276 -0.4122,-0.53979c-0.1832,-0.16357 -0.40893,-0.31406 -0.67719,-0.45146c-0.26172,-0.1374 -0.55942,-0.25517 -0.8931,-0.35332c-0.33369,-0.09814 -0.70336,-0.18974 -1.10902,-0.2748c-0.76552,-0.15703 -1.43617,-0.36313 -2.01194,-0.6183c-0.56923,-0.25517 -1.05013,-0.57578 -1.44271,-0.96181c-0.39257,-0.38603 -0.68046,-0.81786 -0.86366,-1.2955c-0.17666,-0.48417 -0.26498,-1.03378 -0.26498,-1.64881c0,-0.61504 0.13413,-1.181 0.40239,-1.69788c0.2748,-0.51689 0.64775,-0.96181 1.11884,-1.33475c0.47763,-0.37949 1.03051,-0.67392 1.65863,-0.88329c0.62812,-0.20937 1.30531,-0.31406 2.03158,-0.31406c0.82441,0 1.56049,0.09814 2.20824,0.29443c0.64775,0.19629 1.22025,0.48745 1.71752,0.87348c0.49726,0.37949 0.90619,0.84404 1.2268,1.39364l-1.80584,1.7764c-0.2748,-0.43183 -0.58886,-0.79169 -0.94218,-1.07958c-0.34677,-0.28789 -0.72299,-0.5038 -1.12865,-0.64775c-0.40566,-0.15048 -0.83095,-0.22573 -1.27587,-0.22573c-0.5038,0 -0.94218,0.07197 -1.31513,0.21592c-0.3664,0.1374 -0.65429,0.33696 -0.86366,0.59868c-0.20937,0.25517 -0.31406,0.56596 -0.31406,0.93237c0,0.2748 0.06216,0.52016 0.18648,0.73608c0.13086,0.21592 0.31079,0.40893 0.53979,0.57905c0.229,0.16357 0.52343,0.31079 0.88329,0.44165c0.3664,0.12432 0.7786,0.23554 1.23661,0.33369c0.77207,0.15048 1.46234,0.35659 2.07084,0.61831c0.61504,0.25517 1.13847,0.56269 1.5703,0.92255c0.43838,0.35332 0.76879,0.75898 0.99125,1.21698c0.22246,0.45146 0.33369,0.95526 0.33369,1.51141c0,0.96181 -0.229,1.78949 -0.68701,2.48304c-0.45146,0.68701 -1.08939,1.21698 -1.9138,1.58993c-0.81786,0.3664 -1.77967,0.5496 -2.88543,0.5496z"/><path d="M224.0493,187.55703c-1.05995,0 -2.03157,-0.17993 -2.91487,-0.53979c-0.87675,-0.3664 -1.63573,-0.88657 -2.27693,-1.56048c-0.6412,-0.67392 -1.14174,-1.47543 -1.5016,-2.40452c-0.35332,-0.9291 -0.52998,-1.94652 -0.52998,-3.05227c0,-1.05995 0.18648,-2.04139 0.55942,-2.94431c0.37949,-0.90947 0.90292,-1.70443 1.5703,-2.38489c0.67392,-0.68701 1.4558,-1.21698 2.34564,-1.58993c0.89638,-0.37949 1.868,-0.56923 2.91487,-0.56923c0.71318,0 1.40346,0.10469 2.07084,0.31406c0.67392,0.20937 1.28895,0.50054 1.8451,0.87348c0.55615,0.3664 1.02397,0.79169 1.40346,1.27587l-1.73714,1.91381c-0.3664,-0.37949 -0.74262,-0.69682 -1.12865,-0.95199c-0.37949,-0.26172 -0.77533,-0.45801 -1.18754,-0.58886c-0.4122,-0.1374 -0.83422,-0.2061 -1.26605,-0.2061c-0.6412,0 -1.24642,0.12104 -1.81566,0.36313c-0.56269,0.23554 -1.05013,0.56923 -1.46234,1.00107c-0.4122,0.43183 -0.73607,0.94545 -0.97162,1.54086c-0.23554,0.59541 -0.35332,1.25297 -0.35332,1.97269c0,0.74589 0.1145,1.41981 0.34351,2.02176c0.229,0.59541 0.55615,1.10903 0.98144,1.54086c0.42529,0.43183 0.93563,0.76552 1.53104,1.00107c0.59541,0.229 1.24643,0.34351 1.95306,0.34351c0.46454,0 0.91274,-0.06216 1.34457,-0.18647c0.43183,-0.13086 0.83095,-0.31079 1.19735,-0.53979c0.37295,-0.229 0.71318,-0.49726 1.02069,-0.80478l1.34457,2.15916c-0.34023,0.37295 -0.78842,0.71318 -1.34457,1.02069c-0.55615,0.30751 -1.181,0.5496 -1.87454,0.72626c-0.68701,0.17011 -1.37401,0.25517 -2.06102,0.25517z"/><path d="M240.19231,187.55703c-1.04687,0 -2.01849,-0.18647 -2.91487,-0.55942c-0.88984,-0.37949 -1.66844,-0.90619 -2.33582,-1.58011c-0.66083,-0.68046 -1.17445,-1.4787 -1.54085,-2.39471c-0.35986,-0.92255 -0.53979,-1.93016 -0.53979,-3.02283c0,-1.08613 0.17993,-2.09046 0.53979,-3.01301c0.3664,-0.92255 0.88002,-1.72078 1.54086,-2.39471c0.66738,-0.68046 1.44598,-1.20716 2.33582,-1.58011c0.89638,-0.37949 1.868,-0.56923 2.91487,-0.56923c1.05995,0 2.03484,0.18974 2.92468,0.56923c0.89638,0.37295 1.67172,0.90292 2.32601,1.58993c0.65429,0.68701 1.16137,1.48851 1.52123,2.40452c0.3664,0.90947 0.5496,1.90726 0.5496,2.99339c0,1.07958 -0.1832,2.08065 -0.5496,3.0032c-0.35986,0.91601 -0.86694,1.71752 -1.52122,2.40452c-0.65429,0.68046 -1.42963,1.21044 -2.326,1.58993c-0.88984,0.37295 -1.86473,0.55942 -2.92468,0.55942zM240.19231,184.96603c0.66738,0 1.27587,-0.12104 1.82547,-0.36313c0.55615,-0.24863 1.03378,-0.59867 1.4329,-1.05013c0.40566,-0.45146 0.72299,-0.97816 0.952,-1.58011c0.23554,-0.60195 0.35332,-1.25951 0.35332,-1.97269c0,-0.70663 -0.11777,-1.36093 -0.35332,-1.96287c-0.229,-0.60195 -0.54633,-1.12865 -0.95199,-1.58011c-0.39912,-0.45801 -0.87675,-0.80805 -1.4329,-1.05013c-0.5496,-0.24209 -1.1581,-0.36313 -1.82547,-0.36313c-0.66083,0 -1.26932,0.12104 -1.82547,0.36313c-0.55615,0.24209 -1.03705,0.58886 -1.44271,1.04032c-0.40566,0.44492 -0.71972,0.96835 -0.94218,1.5703c-0.22246,0.59541 -0.33369,1.25624 -0.33369,1.9825c0,0.71318 0.11123,1.37401 0.33369,1.9825c0.22246,0.60849 0.53652,1.13519 0.94218,1.58012c0.40566,0.44492 0.88657,0.79169 1.44272,1.04032c0.55615,0.24209 1.16464,0.36313 1.82547,0.36313z"/><path d="M252.18871,187.35093v-14.65286h6.35971c0.87675,0 1.67826,0.2061 2.40452,0.61831c0.72628,0.4122 1.30206,0.97163 1.72735,1.67826c0.42529,0.70009 0.63794,1.49178 0.63794,2.37508c0,0.83749 -0.21264,1.60956 -0.63793,2.31619c-0.42529,0.70009 -0.9978,1.25624 -1.71754,1.66844c-0.71972,0.4122 -1.5245,0.61831 -2.41434,0.61831h-3.70983v5.37828zM260.67815,187.35093l-3.71964,-6.61489l2.80691,-0.52016l4.14168,7.15468zM254.83859,179.60739h3.72946c0.40566,0 0.75898,-0.09487 1.05995,-0.28461c0.30098,-0.18974 0.53325,-0.45146 0.69682,-0.78515c0.17011,-0.33369 0.25517,-0.70336 0.25517,-1.10902c0,-0.45801 -0.10469,-0.85385 -0.31406,-1.18754c-0.20937,-0.34023 -0.5038,-0.60849 -0.88329,-0.80478c-0.37295,-0.19629 -0.80478,-0.29443 -1.2955,-0.29443h-3.24855z"/><path d="M268.49592,187.35093v-14.65286h9.57883v2.47322h-6.8995v9.70642h6.98783v2.47322zM269.74235,181.06973v-2.42415h7.27245v2.42415z"/></g></g></g></svg>