<svg version="1.1" xmlns="http://www.w3.org/2000/svg" xmlns:xlink="http://www.w3.org/1999/xlink" width="65.88393" height="9.33829" viewBox="0,0,65.88393,9.33829"><g transform="translate(-207.05803,-175.33085)"><g data-paper-data="{&quot;isPaintingLayer&quot;:true}" fill="#60838a" fill-rule="nonzero" stroke="none" stroke-width="1" stroke-linecap="square" stroke-linejoin="miter" stroke-miterlimit="10" stroke-dasharray="" stroke-dashoffset="0" style="mix-blend-mode: normal"><path d="M209.65301,184.54119v-7.53518h-2.59498v-1.55942h6.96259v1.55942h-2.68026v7.53519z"/><path d="M216.47667,184.54119v-1.49242h1.49242v-6.10977h-1.49242v-1.49242h4.67827v1.49242h-1.49851v6.10978h1.49851v1.49242z"/><path d="M224.37751,184.54119v-9.09461h1.51679l5.27524,7.10878l-0.2863,0.04873c-0.03249,-0.24366 -0.06295,-0.49138 -0.09137,-0.74316c-0.02437,-0.25584 -0.04873,-0.52184 -0.0731,-0.79798c-0.0203,-0.28021 -0.03655,-0.57057 -0.04873,-0.87108c-0.01218,-0.30457 -0.02437,-0.62336 -0.03655,-0.95636c-0.00812,-0.333 -0.01218,-0.68631 -0.01218,-1.05992v-2.72899h1.68125v9.09461h-1.54724l-5.2996,-7.00522l0.33503,-0.09137c0.04467,0.48732 0.08122,0.90154 0.10965,1.24267c0.03249,0.34112 0.05685,0.63555 0.0731,0.88327c0.01625,0.24772 0.03046,0.45483 0.04264,0.62133c0.01625,0.16244 0.0264,0.31067 0.03046,0.44468c0.00406,0.13401 0.00609,0.26194 0.00609,0.38377v3.52089z"/><path d="M238.22347,184.54119v-4.53208l0.09137,0.63352l-3.67317,-5.19605h1.97365l2.80209,4.02648l-0.60915,-0.03655l2.53406,-3.98993h1.90055l-3.52089,5.34225l0.19493,-0.88327v4.63563z"/><path d="M249.43773,184.66911c-0.65788,0 -1.26094,-0.11168 -1.80917,-0.33503c-0.54417,-0.22741 -1.01525,-0.55027 -1.41323,-0.96855c-0.39798,-0.41828 -0.70865,-0.91576 -0.932,-1.49242c-0.21929,-0.57666 -0.32894,-1.20815 -0.32894,-1.89445c0,-0.65788 0.11574,-1.26703 0.34722,-1.82745c0.23554,-0.56448 0.56042,-1.05789 0.97464,-1.48023c0.41828,-0.4264 0.90357,-0.75535 1.45587,-0.98682c0.55636,-0.23554 1.15942,-0.35331 1.80918,-0.35331c0.44265,0 0.87109,0.06498 1.28531,0.19493c0.41828,0.12995 0.80002,0.31067 1.1452,0.54215c0.34519,0.22741 0.63554,0.49138 0.87107,0.79189l-1.07818,1.18784c-0.22741,-0.23554 -0.46092,-0.43249 -0.70052,-0.59087c-0.23554,-0.16244 -0.48123,-0.28427 -0.73707,-0.36549c-0.25584,-0.08528 -0.51778,-0.12792 -0.7858,-0.12792c-0.39798,0 -0.77362,0.07513 -1.12693,0.22539c-0.34924,0.1462 -0.65179,0.35331 -0.90763,0.62133c-0.25584,0.26803 -0.45686,0.58682 -0.60306,0.95637c-0.1462,0.36955 -0.21929,0.77768 -0.21929,1.22439c0,0.46295 0.07107,0.88124 0.2132,1.25485c0.14213,0.36955 0.34519,0.68834 0.60915,0.95637c0.26396,0.26803 0.58072,0.47514 0.95027,0.62133c0.36955,0.14213 0.77362,0.2132 1.21221,0.2132c0.28833,0 0.56651,-0.03858 0.83454,-0.11574c0.26803,-0.08122 0.51575,-0.1929 0.74316,-0.33503c0.23148,-0.14213 0.44265,-0.30864 0.63352,-0.4995l0.83452,1.34013c-0.21117,0.23148 -0.48934,0.44265 -0.83452,0.63352c-0.34519,0.19087 -0.73301,0.34112 -1.16347,0.45077c-0.4264,0.10558 -0.85281,0.15838 -1.27921,0.15838z"/><path d="M254.51704,184.54119l3.54525,-9.09461h1.58988l3.52089,9.09461h-1.75435l-1.94928,-5.17168c-0.04467,-0.10558 -0.10355,-0.27006 -0.17665,-0.49341c-0.0731,-0.22336 -0.15432,-0.46702 -0.24366,-0.73098c-0.08528,-0.26803 -0.16244,-0.51575 -0.23148,-0.74316c-0.06904,-0.23148 -0.1198,-0.39798 -0.15229,-0.4995l0.32285,-0.01218c-0.05279,0.17056 -0.11371,0.36549 -0.18274,0.58478c-0.06904,0.21523 -0.14213,0.44062 -0.21929,0.67616c-0.07716,0.23148 -0.15432,0.45686 -0.23148,0.67616c-0.0731,0.21523 -0.1401,0.40813 -0.20102,0.57869l-1.94928,5.13514zM256.13128,182.46399l0.58478,-1.46805h4.14222l0.62133,1.46805z"/><path d="M265.66871,184.54119v-9.09461h3.94729c0.54417,0 1.04165,0.12792 1.49242,0.38377c0.45077,0.25584 0.80814,0.60306 1.0721,1.04165c0.26396,0.43453 0.39595,0.92591 0.39595,1.47414c0,0.51981 -0.13198,0.99901 -0.39595,1.43759c-0.26396,0.43453 -0.6193,0.77971 -1.06601,1.03555c-0.44671,0.25584 -0.94621,0.38377 -1.49851,0.38377h-2.30259v3.33814zM270.93786,184.54119l-2.30868,-4.10567l1.74217,-0.32285l2.57061,4.44071zM267.31342,179.735h2.31477c0.25178,0 0.47107,-0.05888 0.65788,-0.17665c0.18681,-0.11777 0.33097,-0.28021 0.4325,-0.48732c0.10558,-0.20711 0.15838,-0.43656 0.15838,-0.68834c0,-0.28427 -0.06498,-0.52996 -0.19493,-0.73707c-0.12995,-0.21117 -0.3127,-0.37767 -0.54823,-0.4995c-0.23148,-0.12183 -0.4995,-0.18274 -0.80408,-0.18274h-2.01628z"/></g></g></svg>