<svg version="1.1" xmlns="http://www.w3.org/2000/svg" xmlns:xlink="http://www.w3.org/1999/xlink" width="192.41667" height="36.65079" viewBox="0,0,192.41667,36.65079"><g transform="translate(-143.79166,-161.67462)"><g data-paper-data="{&quot;isPaintingLayer&quot;:true}" fill-rule="nonzero" stroke="none" stroke-linejoin="miter" stroke-miterlimit="10" stroke-dasharray="" stroke-dashoffset="0" style="mix-blend-mode: normal"><path d="M143.79166,198.32542v-36.65079h192.41667v36.65079z" fill="none" stroke-width="0" stroke-linecap="butt"/><g fill="#60838a" stroke-width="1" stroke-linecap="square"><path d="M229.50812,186.29491l-0.58846,-1.45043l3.71315,-4.15242c0.21548,-0.21548 0.43374,-0.4614 0.65476,-0.73767c0.22656,-0.27628 0.44203,-0.56361 0.64649,-0.86198c0.20445,-0.3039 0.37021,-0.59953 0.49729,-0.88684c0.13262,-0.28734 0.19892,-0.55532 0.19892,-0.80395c0,-0.31495 -0.06908,-0.59122 -0.20723,-0.82881c-0.13262,-0.23761 -0.32325,-0.41994 -0.57187,-0.54702c-0.24312,-0.13262 -0.54702,-0.19892 -0.9117,-0.19892c-0.32049,0 -0.63267,0.09116 -0.93657,0.27351c-0.29837,0.18235 -0.57465,0.44203 -0.82881,0.7791c-0.25416,0.33704 -0.4614,0.73488 -0.62163,1.19351l-1.73224,-1.02772c0.20997,-0.67964 0.53043,-1.27086 0.96145,-1.77368c0.43097,-0.50283 0.93658,-0.88958 1.51674,-1.16035c0.58571,-0.27075 1.22114,-0.40614 1.9063,-0.40614c0.70726,0 1.33717,0.1492 1.8897,0.44758c0.55255,0.29284 0.98906,0.69898 1.30954,1.21835c0.32601,0.5194 0.48899,1.1272 0.48899,1.82342c0,0.25416 -0.03036,0.52217 -0.09115,0.80395c-0.05526,0.27628 -0.14643,0.56361 -0.27351,0.86198c-0.12157,0.29837 -0.28179,0.61056 -0.48073,0.93657c-0.19892,0.32601 -0.43928,0.66582 -0.72108,1.01947c-0.27628,0.35363 -0.59121,0.72385 -0.94486,1.1106l-2.80972,3.05837l-0.3481,-0.81225h6.11671v2.12178z"/><path d="M248.31205,186.29491l-3.82919,-5.55309l-4.91493,-6.82123h2.85946l3.74627,5.47853l5.00611,6.89582zM239.47678,186.29491l4.72429,-6.73834l1.62449,1.40071l-3.66339,5.33763zM246.46377,180.55114l-1.61621,-1.34271l3.4645,-5.2879h2.69369z"/></g></g></g></svg>