<svg version="1.1" xmlns="http://www.w3.org/2000/svg" xmlns:xlink="http://www.w3.org/1999/xlink" width="244" height="49" viewBox="0,0,244,49"><g transform="translate(-118,-155.5)"><g data-paper-data="{&quot;isPaintingLayer&quot;:true}" fill-rule="nonzero" stroke="none" stroke-linejoin="miter" stroke-miterlimit="10" stroke-dasharray="" stroke-dashoffset="0" style="mix-blend-mode: normal"><path d="M293.67956,165.10637l0.28947,29.68108l-108.214,-0.07324l-0.23163,-29.81746z" fill-opacity="0.00392" fill="#ffffff" stroke-width="0" stroke-linecap="butt"/><g fill="#60838a" stroke-width="1" stroke-linecap="square"><path d="M189.09805,187.01396v-14.29586h9.34545v2.41296h-6.73141v9.46993h6.81758v2.41296zM190.31411,180.88579v-2.36509h7.09526v2.36509z"/><path d="M202.83841,187.01396v-1.8576l7.98576,-10.66684l0.63197,0.71814h-8.09109v-2.48956h10.52321v1.83845l-7.94746,10.67641l-0.65112,-0.67027h8.81882v2.45127z"/><path d="M226.53402,187.01396v-14.29586h2.50872l5.20894,8.47411l-1.47459,-0.01915l5.27597,-8.45495h2.38424v14.29586h-2.6332v-5.37172c0,-1.22564 0.02873,-2.3268 0.08618,-3.30348c0.06384,-0.98306 0.17235,-1.95972 0.32556,-2.93003l0.32556,0.88092l-4.43335,6.84631h-1.35011l-4.28972,-6.77928l0.28726,-0.94795c0.14682,0.91284 0.25215,1.85121 0.31598,2.81512c0.06384,0.95752 0.09575,2.09698 0.09575,3.41837v5.37172z"/><path d="M252.1233,187.21504c-1.02136,0 -1.96932,-0.18193 -2.84386,-0.54579c-0.86816,-0.37025 -1.62779,-0.88411 -2.27891,-1.54161c-0.64473,-0.66388 -1.14584,-1.44268 -1.50331,-2.33637c-0.35109,-0.90008 -0.52664,-1.88314 -0.52664,-2.94918c0,-1.05966 0.17555,-2.03953 0.52664,-2.9396c0.35747,-0.90008 0.85858,-1.67886 1.50331,-2.33636c0.65112,-0.66388 1.41075,-1.17776 2.27891,-1.54162c0.87454,-0.37025 1.8225,-0.55537 2.84386,-0.55537c1.03413,0 1.98527,0.18513 2.85342,0.55537c0.87454,0.36386 1.63099,0.88092 2.26933,1.5512c0.63835,0.67027 1.13307,1.45225 1.48417,2.34593c0.35747,0.88731 0.53622,1.86079 0.53622,2.92046c0,1.05328 -0.17874,2.02994 -0.53622,2.93003c-0.35109,0.89369 -0.84581,1.67568 -1.48417,2.34595c-0.63835,0.66388 -1.39479,1.18094 -2.26933,1.55119c-0.86816,0.36386 -1.81929,0.54579 -2.85342,0.54579zM252.1233,184.68717c0.65112,0 1.24478,-0.11809 1.78099,-0.35429c0.5426,-0.24257 1.00859,-0.58409 1.39799,-1.02455c0.39577,-0.44046 0.70538,-0.95433 0.9288,-1.54161c0.2298,-0.58729 0.34471,-1.22883 0.34471,-1.92463c0,-0.68942 -0.11491,-1.32776 -0.34471,-1.91505c-0.22342,-0.58729 -0.53303,-1.10116 -0.9288,-1.54162c-0.3894,-0.44684 -0.85539,-0.78836 -1.39799,-1.02455c-0.53621,-0.23619 -1.12987,-0.35429 -1.78099,-0.35429c-0.64473,0 -1.2384,0.11809 -1.781,0.35429c-0.5426,0.23619 -1.01179,0.57452 -1.40757,1.01498c-0.39577,0.43408 -0.70218,0.94476 -0.91922,1.53204c-0.21704,0.5809 -0.32556,1.22563 -0.32556,1.9342c0,0.6958 0.10852,1.34054 0.32556,1.93421c0.21704,0.59366 0.52345,1.10753 0.91922,1.54161c0.39577,0.43408 0.86497,0.7724 1.40757,1.01497c0.5426,0.23619 1.13627,0.35429 1.781,0.35429z"/><path d="M263.82741,187.01396v-14.29586h5.73558c1.03413,0 1.96931,0.17235 2.80555,0.51707c0.83624,0.33832 1.55757,0.82666 2.164,1.46501c0.60644,0.63835 1.06924,1.39479 1.38842,2.26934c0.31917,0.86816 0.47876,1.83207 0.47876,2.89173c0,1.06604 -0.15958,2.03953 -0.47876,2.92045c-0.31917,0.87454 -0.77879,1.6278 -1.37884,2.25976c-0.60005,0.63196 -1.32139,1.1203 -2.16402,1.46501c-0.84262,0.33832 -1.78098,0.50748 -2.81511,0.50748zM266.47975,184.95528l-0.21066,-0.39259h3.18856c0.67027,0 1.26713,-0.10852 1.79057,-0.32556c0.52345,-0.21704 0.9671,-0.52983 1.33096,-0.93837c0.37025,-0.40854 0.65112,-0.90007 0.84262,-1.47459c0.19151,-0.5809 0.28726,-1.23521 0.28726,-1.96292c0,-0.72134 -0.09575,-1.36926 -0.28726,-1.94378c-0.19151,-0.5809 -0.47557,-1.07562 -0.8522,-1.48417c-0.37024,-0.40855 -0.8139,-0.72134 -1.33096,-0.93838c-0.51707,-0.21704 -1.11073,-0.32556 -1.781,-0.32556h-3.24601l0.2681,-0.34471z"/><path d="M280.96274,187.01396v-14.29586h9.34545v2.41296h-6.73141v9.46993h6.81759v2.41296zM282.1788,180.88579v-2.36509h7.09526v2.36509z"/></g><path d="M118,204.5v-49h244v49z" fill="none" stroke-width="0" stroke-linecap="butt"/></g></g></svg>