<svg version="1.1" xmlns="http://www.w3.org/2000/svg" xmlns:xlink="http://www.w3.org/1999/xlink" width="188" height="188" viewBox="0,0,188,188"><defs><radialGradient cx="240.00001" cy="180" r="14.83653" gradientUnits="userSpaceOnUse" id="color-1"><stop offset="0" stop-color="#33ff00"/><stop offset="1" stop-color="#33ff00" stop-opacity="0"/></radialGradient></defs><g transform="translate(-146.00001,-86)"><g data-paper-data="{&quot;isPaintingLayer&quot;:true}" fill-rule="nonzero" stroke="none" stroke-linejoin="miter" stroke-miterlimit="10" stroke-dasharray="" stroke-dashoffset="0" style="mix-blend-mode: normal"><path d="M225.16348,180c0,-8.19399 6.64254,-14.83653 14.83653,-14.83653c8.19399,0 14.83653,6.64254 14.83653,14.83653c0,8.19399 -6.64254,14.83653 -14.83653,14.83653c-8.19399,0 -14.83653,-6.64254 -14.83653,-14.83653z" fill="url(#color-1)" stroke-width="0" stroke-linecap="butt"/><path d="M230.52778,179.99999c0,-5.23137 4.24087,-9.47222 9.47222,-9.47222c5.23137,0 9.47222,4.24087 9.47222,9.47222c0,5.23137 -4.24087,9.47222 -9.47222,9.47222c-5.23137,0 -9.47222,-4.24087 -9.47222,-9.47222z" fill="#24b300" stroke-width="0" stroke-linecap="butt"/><path d="M232.77809,179.99999c0,-3.98854 3.23336,-7.22192 7.22191,-7.22192c3.98854,0 7.22192,3.23336 7.22192,7.22192c0,3.98854 -3.23336,7.22191 -7.22192,7.22191c-3.98854,0 -7.22191,-3.23336 -7.22191,-7.22191z" fill="#33ff00" stroke-width="0" stroke-linecap="butt"/><path d="M146.00001,274v-188h188v188z" fill="none" stroke-width="NaN" stroke-linecap="butt"/><g fill="#24b300" stroke-width="1" stroke-linecap="square"><path d="M235.49599,182.70232l-0.25262,-0.62266l1.59401,-1.78258c0.09251,-0.09251 0.1862,-0.19807 0.28108,-0.31667c0.09726,-0.1186 0.18976,-0.24195 0.27753,-0.37004c0.08777,-0.13046 0.15892,-0.25737 0.21348,-0.38071c0.05693,-0.12335 0.08539,-0.23839 0.08539,-0.34513c0,-0.1352 -0.02965,-0.2538 -0.08896,-0.3558c-0.05693,-0.102 -0.13877,-0.18027 -0.2455,-0.23483c-0.10437,-0.05693 -0.23483,-0.08539 -0.39138,-0.08539c-0.13758,0 -0.2716,0.03913 -0.40206,0.11741c-0.12809,0.07828 -0.24669,0.18976 -0.3558,0.33446c-0.10911,0.14469 -0.19807,0.31548 -0.26686,0.51236l-0.74363,-0.44119c0.09014,-0.29176 0.22771,-0.54556 0.41274,-0.76142c0.18501,-0.21586 0.40206,-0.38189 0.65112,-0.49813c0.25144,-0.11623 0.52422,-0.17435 0.81835,-0.17435c0.30362,0 0.57403,0.06405 0.81123,0.19214c0.2372,0.12571 0.42459,0.30006 0.56217,0.52303c0.13995,0.22297 0.20992,0.48389 0.20992,0.78277c0,0.10911 -0.01304,0.22416 -0.03913,0.34513c-0.02372,0.1186 -0.06286,0.24195 -0.11741,0.37004c-0.05219,0.12809 -0.12097,0.26211 -0.20637,0.40206c-0.08539,0.13995 -0.18858,0.28583 -0.30955,0.43764c-0.1186,0.15181 -0.2538,0.31074 -0.40562,0.47677l-1.20618,1.31292l-0.14944,-0.34869h2.62583v0.91086z"/><path d="M243.56828,182.70232l-1.64382,-2.38388l-2.10992,-2.92827h1.22753l1.60823,2.35187l2.14906,2.96029zM239.77541,182.70232l2.02808,-2.89269l0.69738,0.60131l-1.57265,2.29138zM242.77484,180.23659l-0.69382,-0.57641l1.48726,-2.27003h1.15637z"/></g></g></g></svg>