<svg version="1.1" xmlns="http://www.w3.org/2000/svg" xmlns:xlink="http://www.w3.org/1999/xlink" width="553.0433" height="524.43022" viewBox="0,0,553.0433,524.43022"><defs><linearGradient x1="247.13502" y1="-23.12369" x2="232.72698" y2="380.87152" gradientUnits="userSpaceOnUse" id="color-1"><stop offset="0" stop-color="#000000"/><stop offset="1" stop-color="#005d6f"/></linearGradient><linearGradient x1="170.34003" y1="-23.61523" x2="155.93199" y2="380.37998" gradientUnits="userSpaceOnUse" id="color-2"><stop offset="0" stop-color="#11dbe7" stop-opacity="0"/><stop offset="1" stop-color="#11dbe7"/></linearGradient><linearGradient x1="323.76992" y1="-18.14332" x2="309.36188" y2="385.85189" gradientUnits="userSpaceOnUse" id="color-3"><stop offset="0" stop-color="#11dbe7" stop-opacity="0"/><stop offset="1" stop-color="#11dbe7"/></linearGradient><linearGradient x1="49.19071" y1="174.31864" x2="205.17776" y2="179.88175" gradientUnits="userSpaceOnUse" id="color-4"><stop offset="0" stop-color="#000000" stop-opacity="0.70805"/><stop offset="1" stop-color="#000000" stop-opacity="0"/></linearGradient><linearGradient x1="430.72924" y1="187.92579" x2="274.7422" y2="182.36269" gradientUnits="userSpaceOnUse" id="color-5"><stop offset="0" stop-color="#000000" stop-opacity="0.70805"/><stop offset="1" stop-color="#000000" stop-opacity="0"/></linearGradient><linearGradient x1="112.04067" y1="176.56012" x2="216.63695" y2="180.29043" gradientUnits="userSpaceOnUse" id="color-6"><stop offset="0" stop-color="#000000" stop-opacity="0.70805"/><stop offset="1" stop-color="#000000" stop-opacity="0"/></linearGradient><linearGradient x1="367.87928" y1="185.68432" x2="263.28301" y2="181.95401" gradientUnits="userSpaceOnUse" id="color-7"><stop offset="0" stop-color="#000000" stop-opacity="0.70805"/><stop offset="1" stop-color="#000000" stop-opacity="0"/></linearGradient><linearGradient x1="112.04067" y1="176.56012" x2="216.63695" y2="180.29043" gradientUnits="userSpaceOnUse" id="color-8"><stop offset="0" stop-color="#000000" stop-opacity="0.70805"/><stop offset="1" stop-color="#000000" stop-opacity="0"/></linearGradient><linearGradient x1="367.87928" y1="185.68432" x2="263.28301" y2="181.95401" gradientUnits="userSpaceOnUse" id="color-9"><stop offset="0" stop-color="#000000" stop-opacity="0.70805"/><stop offset="1" stop-color="#000000" stop-opacity="0"/></linearGradient><linearGradient x1="241.19088" y1="152.30939" x2="240.73749" y2="164.28959" gradientUnits="userSpaceOnUse" id="color-10"><stop offset="0" stop-color="#2f7888"/><stop offset="1" stop-color="#2f7888" stop-opacity="0"/></linearGradient><linearGradient x1="241.18724" y1="152.40536" x2="241.64063" y2="140.4252" gradientUnits="userSpaceOnUse" id="color-11"><stop offset="0" stop-color="#2f7888"/><stop offset="1" stop-color="#2f7888" stop-opacity="0"/></linearGradient><linearGradient x1="238.87698" y1="212.57774" x2="238.42359" y2="224.55793" gradientUnits="userSpaceOnUse" id="color-12"><stop offset="0" stop-color="#2f7888"/><stop offset="1" stop-color="#2f7888" stop-opacity="0"/></linearGradient><linearGradient x1="238.87334" y1="212.67373" x2="239.32673" y2="200.69353" gradientUnits="userSpaceOnUse" id="color-13"><stop offset="0" stop-color="#2f7888"/><stop offset="1" stop-color="#2f7888" stop-opacity="0"/></linearGradient><linearGradient x1="243.81681" y1="92.27766" x2="243.36343" y2="104.25786" gradientUnits="userSpaceOnUse" id="color-14"><stop offset="0" stop-color="#2f7888"/><stop offset="1" stop-color="#2f7888" stop-opacity="0"/></linearGradient><linearGradient x1="243.81318" y1="92.37364" x2="244.26656" y2="80.39345" gradientUnits="userSpaceOnUse" id="color-15"><stop offset="0" stop-color="#2f7888"/><stop offset="1" stop-color="#2f7888" stop-opacity="0"/></linearGradient><linearGradient x1="246.08211" y1="32.4196" x2="245.62872" y2="44.39979" gradientUnits="userSpaceOnUse" id="color-16"><stop offset="0" stop-color="#2f7888"/><stop offset="1" stop-color="#2f7888" stop-opacity="0"/></linearGradient><linearGradient x1="246.07847" y1="32.51558" x2="246.53186" y2="20.53538" gradientUnits="userSpaceOnUse" id="color-17"><stop offset="0" stop-color="#2f7888"/><stop offset="1" stop-color="#2f7888" stop-opacity="0"/></linearGradient><linearGradient x1="248.36156" y1="-27.81257" x2="247.90818" y2="-15.83239" gradientUnits="userSpaceOnUse" id="color-18"><stop offset="0" stop-color="#2f7888"/><stop offset="1" stop-color="#2f7888" stop-opacity="0"/></linearGradient><linearGradient x1="248.35793" y1="-27.71659" x2="248.81131" y2="-39.69678" gradientUnits="userSpaceOnUse" id="color-19"><stop offset="0" stop-color="#2f7888"/><stop offset="1" stop-color="#2f7888" stop-opacity="0"/></linearGradient><linearGradient x1="236.98553" y1="272.78713" x2="236.53215" y2="284.76733" gradientUnits="userSpaceOnUse" id="color-20"><stop offset="0" stop-color="#2f7888"/><stop offset="1" stop-color="#2f7888" stop-opacity="0"/></linearGradient><linearGradient x1="236.9819" y1="272.88311" x2="237.43528" y2="260.90293" gradientUnits="userSpaceOnUse" id="color-21"><stop offset="0" stop-color="#2f7888"/><stop offset="1" stop-color="#2f7888" stop-opacity="0"/></linearGradient><linearGradient x1="234.71315" y1="332.83225" x2="234.25977" y2="344.81245" gradientUnits="userSpaceOnUse" id="color-22"><stop offset="0" stop-color="#2f7888"/><stop offset="1" stop-color="#2f7888" stop-opacity="0"/></linearGradient><linearGradient x1="234.70952" y1="332.92823" x2="235.16291" y2="320.94804" gradientUnits="userSpaceOnUse" id="color-23"><stop offset="0" stop-color="#2f7888"/><stop offset="1" stop-color="#2f7888" stop-opacity="0"/></linearGradient><linearGradient x1="232.43791" y1="392.9532" x2="231.98453" y2="404.93339" gradientUnits="userSpaceOnUse" id="color-24"><stop offset="0" stop-color="#2f7888"/><stop offset="1" stop-color="#2f7888" stop-opacity="0"/></linearGradient><linearGradient x1="232.43428" y1="393.04918" x2="232.88766" y2="381.06899" gradientUnits="userSpaceOnUse" id="color-25"><stop offset="0" stop-color="#2f7888"/><stop offset="1" stop-color="#2f7888" stop-opacity="0"/></linearGradient><linearGradient x1="243.34787" y1="144.21039" x2="237.222" y2="296.11089" gradientUnits="userSpaceOnUse" id="color-26"><stop offset="0" stop-color="#e4f6aa" stop-opacity="0"/><stop offset="1" stop-color="#e4f6aa" stop-opacity="0.5932"/></linearGradient><linearGradient x1="237.54099" y1="288.20039" x2="235.66772" y2="334.65105" gradientUnits="userSpaceOnUse" id="color-27"><stop offset="0" stop-color="#00313f" stop-opacity="0"/><stop offset="1" stop-color="#00313f"/></linearGradient><linearGradient x1="237.47216" y1="289.90819" x2="235.73663" y2="332.94326" gradientUnits="userSpaceOnUse" id="color-28"><stop offset="0" stop-color="#0092ac"/><stop offset="1" stop-color="#00313f"/></linearGradient><linearGradient x1="237.47216" y1="289.90819" x2="235.73663" y2="332.94326" gradientUnits="userSpaceOnUse" id="color-29"><stop offset="0" stop-color="#edfbb0"/><stop offset="1" stop-color="#c3f8b0"/></linearGradient><linearGradient x1="237.47216" y1="289.90819" x2="235.73663" y2="332.94322" gradientUnits="userSpaceOnUse" id="color-30"><stop offset="0" stop-color="#edfbb0"/><stop offset="1" stop-color="#c3f8b0"/></linearGradient><linearGradient x1="237.47216" y1="289.90819" x2="235.73663" y2="332.94326" gradientUnits="userSpaceOnUse" id="color-31"><stop offset="0" stop-color="#9ef77e" stop-opacity="0.38546"/><stop offset="1" stop-color="#9ef77e" stop-opacity="0"/></linearGradient><linearGradient x1="237.47216" y1="289.90819" x2="235.73663" y2="332.94326" gradientUnits="userSpaceOnUse" id="color-32"><stop offset="0" stop-color="#9ef77e" stop-opacity="0.38546"/><stop offset="1" stop-color="#9ef77e" stop-opacity="0"/></linearGradient><linearGradient x1="237.47216" y1="289.90819" x2="235.73663" y2="332.94322" gradientUnits="userSpaceOnUse" id="color-33"><stop offset="0" stop-color="#9ef77e" stop-opacity="0.38546"/><stop offset="1" stop-color="#9ef77e" stop-opacity="0"/></linearGradient><linearGradient x1="228.41921" y1="303.83588" x2="228.0112" y2="313.9529" gradientUnits="userSpaceOnUse" id="color-34"><stop offset="0" stop-color="#73ddff" stop-opacity="0"/><stop offset="1" stop-color="#73ddff" stop-opacity="0.49735"/></linearGradient><linearGradient x1="227.60321" y1="324.06985" x2="228.0112" y2="313.9529" gradientUnits="userSpaceOnUse" id="color-35"><stop offset="0" stop-color="#73ddff" stop-opacity="0"/><stop offset="1" stop-color="#73ddff" stop-opacity="0.49735"/></linearGradient><linearGradient x1="245.37414" y1="304.51966" x2="244.96613" y2="314.63665" gradientUnits="userSpaceOnUse" id="color-36"><stop offset="0" stop-color="#73ddff" stop-opacity="0"/><stop offset="1" stop-color="#73ddff" stop-opacity="0.49735"/></linearGradient><linearGradient x1="244.55814" y1="324.75361" x2="244.96613" y2="314.63665" gradientUnits="userSpaceOnUse" id="color-37"><stop offset="0" stop-color="#73ddff" stop-opacity="0"/><stop offset="1" stop-color="#73ddff" stop-opacity="0.49735"/></linearGradient><radialGradient cx="192.50001" cy="145.50001" r="14.83653" gradientUnits="userSpaceOnUse" id="color-38"><stop offset="0" stop-color="#ffe600"/><stop offset="1" stop-color="#ffe600" stop-opacity="0"/></radialGradient><linearGradient x1="284.14771" y1="124.37135" x2="282.23614" y2="169.80855" gradientUnits="userSpaceOnUse" id="color-39"><stop offset="0" stop-color="#004036" stop-opacity="0"/><stop offset="1" stop-color="#004036"/></linearGradient><linearGradient x1="284.07746" y1="126.04188" x2="282.30646" y2="168.13802" gradientUnits="userSpaceOnUse" id="color-40"><stop offset="0" stop-color="#00ab91"/><stop offset="1" stop-color="#004036"/></linearGradient><linearGradient x1="284.07746" y1="126.04188" x2="282.30646" y2="168.13802" gradientUnits="userSpaceOnUse" id="color-41"><stop offset="0" stop-color="#edfbb0"/><stop offset="1" stop-color="#c3f8b0"/></linearGradient><linearGradient x1="284.07746" y1="126.04188" x2="282.30646" y2="168.13796" gradientUnits="userSpaceOnUse" id="color-42"><stop offset="0" stop-color="#edfbb0"/><stop offset="1" stop-color="#c3f8b0"/></linearGradient><linearGradient x1="284.07746" y1="126.04188" x2="282.30646" y2="168.13802" gradientUnits="userSpaceOnUse" id="color-43"><stop offset="0" stop-color="#9ef77e" stop-opacity="0.38546"/><stop offset="1" stop-color="#9ef77e" stop-opacity="0"/></linearGradient><linearGradient x1="284.07746" y1="126.04188" x2="282.30646" y2="168.13802" gradientUnits="userSpaceOnUse" id="color-44"><stop offset="0" stop-color="#9ef77e" stop-opacity="0.38546"/><stop offset="1" stop-color="#9ef77e" stop-opacity="0"/></linearGradient><linearGradient x1="284.07746" y1="126.04188" x2="282.30646" y2="168.13796" gradientUnits="userSpaceOnUse" id="color-45"><stop offset="0" stop-color="#9ef77e" stop-opacity="0.38546"/><stop offset="1" stop-color="#9ef77e" stop-opacity="0"/></linearGradient><linearGradient x1="275.19774" y1="139.65126" x2="274.7814" y2="149.54754" gradientUnits="userSpaceOnUse" id="color-46"><stop offset="0" stop-color="#73ffea" stop-opacity="0"/><stop offset="1" stop-color="#73ffea"/></linearGradient><linearGradient x1="274.36506" y1="159.44377" x2="274.7814" y2="149.54754" gradientUnits="userSpaceOnUse" id="color-47"><stop offset="0" stop-color="#73ffea" stop-opacity="0"/><stop offset="1" stop-color="#73ffea"/></linearGradient><linearGradient x1="291.78274" y1="140.34899" x2="291.36639" y2="150.24526" gradientUnits="userSpaceOnUse" id="color-48"><stop offset="0" stop-color="#73ffea" stop-opacity="0"/><stop offset="1" stop-color="#73ffea"/></linearGradient><linearGradient x1="290.95006" y1="160.1415" x2="291.36639" y2="150.24526" gradientUnits="userSpaceOnUse" id="color-49"><stop offset="0" stop-color="#73ffea" stop-opacity="0"/><stop offset="1" stop-color="#73ffea"/></linearGradient><linearGradient x1="193.67821" y1="225.30423" x2="191.32178" y2="270.60146" gradientUnits="userSpaceOnUse" id="color-50"><stop offset="0" stop-color="#404040" stop-opacity="0"/><stop offset="1" stop-color="#404040"/></linearGradient><linearGradient x1="193.5916" y1="226.96962" x2="191.40845" y2="268.93607" gradientUnits="userSpaceOnUse" id="color-51"><stop offset="0" stop-color="#ababab"/><stop offset="1" stop-color="#404040"/></linearGradient><linearGradient x1="193.5916" y1="226.96962" x2="191.40845" y2="268.93607" gradientUnits="userSpaceOnUse" id="color-52"><stop offset="0" stop-color="#edfbb0"/><stop offset="1" stop-color="#c3f8b0"/></linearGradient><linearGradient x1="193.59158" y1="226.96962" x2="191.40844" y2="268.93601" gradientUnits="userSpaceOnUse" id="color-53"><stop offset="0" stop-color="#edfbb0"/><stop offset="1" stop-color="#c3f8b0"/></linearGradient><linearGradient x1="193.5916" y1="226.96962" x2="191.40845" y2="268.93607" gradientUnits="userSpaceOnUse" id="color-54"><stop offset="0" stop-color="#9ef77e" stop-opacity="0.38546"/><stop offset="1" stop-color="#9ef77e" stop-opacity="0"/></linearGradient><linearGradient x1="193.5916" y1="226.96962" x2="191.40845" y2="268.93607" gradientUnits="userSpaceOnUse" id="color-55"><stop offset="0" stop-color="#9ef77e" stop-opacity="0.38546"/><stop offset="1" stop-color="#9ef77e" stop-opacity="0"/></linearGradient><linearGradient x1="193.59158" y1="226.96962" x2="191.40844" y2="268.93601" gradientUnits="userSpaceOnUse" id="color-56"><stop offset="0" stop-color="#9ef77e" stop-opacity="0.38546"/><stop offset="1" stop-color="#9ef77e" stop-opacity="0"/></linearGradient><linearGradient x1="184.60077" y1="240.45481" x2="184.08754" y2="250.3206" gradientUnits="userSpaceOnUse" id="color-57"><stop offset="0" stop-color="#ffffff" stop-opacity="0"/><stop offset="1" stop-color="#ffffff"/></linearGradient><linearGradient x1="183.57431" y1="260.18633" x2="184.08754" y2="250.3206" gradientUnits="userSpaceOnUse" id="color-58"><stop offset="0" stop-color="#ffffff" stop-opacity="0"/><stop offset="1" stop-color="#ffffff"/></linearGradient><linearGradient x1="201.13466" y1="241.31492" x2="200.62144" y2="251.18071" gradientUnits="userSpaceOnUse" id="color-59"><stop offset="0" stop-color="#ffffff" stop-opacity="0"/><stop offset="1" stop-color="#ffffff"/></linearGradient><linearGradient x1="200.10821" y1="261.04645" x2="200.62144" y2="251.18071" gradientUnits="userSpaceOnUse" id="color-60"><stop offset="0" stop-color="#ffffff" stop-opacity="0"/><stop offset="1" stop-color="#ffffff"/></linearGradient><linearGradient x1="284.16915" y1="263.99284" x2="282.21465" y2="309.37103" gradientUnits="userSpaceOnUse" id="color-61"><stop offset="0" stop-color="#292929" stop-opacity="0"/><stop offset="1" stop-color="#292929"/></linearGradient><linearGradient x1="284.09732" y1="265.6612" x2="282.28654" y2="307.70267" gradientUnits="userSpaceOnUse" id="color-62"><stop offset="0" stop-color="#2b2b2b"/><stop offset="1" stop-color="#000000"/></linearGradient><linearGradient x1="284.09732" y1="265.6612" x2="282.28654" y2="307.70267" gradientUnits="userSpaceOnUse" id="color-63"><stop offset="0" stop-color="#edfbb0"/><stop offset="1" stop-color="#c3f8b0"/></linearGradient><linearGradient x1="284.0973" y1="265.6612" x2="282.28653" y2="307.70259" gradientUnits="userSpaceOnUse" id="color-64"><stop offset="0" stop-color="#edfbb0"/><stop offset="1" stop-color="#c3f8b0"/></linearGradient><linearGradient x1="284.09732" y1="265.6612" x2="282.28654" y2="307.70267" gradientUnits="userSpaceOnUse" id="color-65"><stop offset="0" stop-color="#9ef77e" stop-opacity="0.38546"/><stop offset="1" stop-color="#9ef77e" stop-opacity="0"/></linearGradient><linearGradient x1="284.09732" y1="265.6612" x2="282.28654" y2="307.70267" gradientUnits="userSpaceOnUse" id="color-66"><stop offset="0" stop-color="#9ef77e" stop-opacity="0.38546"/><stop offset="1" stop-color="#9ef77e" stop-opacity="0"/></linearGradient><linearGradient x1="284.0973" y1="265.6612" x2="282.28653" y2="307.70259" gradientUnits="userSpaceOnUse" id="color-67"><stop offset="0" stop-color="#9ef77e" stop-opacity="0.38546"/><stop offset="1" stop-color="#9ef77e" stop-opacity="0"/></linearGradient><linearGradient x1="275.21522" y1="279.24463" x2="274.78953" y2="289.12805" gradientUnits="userSpaceOnUse" id="color-68"><stop offset="0" stop-color="#808080" stop-opacity="0"/><stop offset="1" stop-color="#808080"/></linearGradient><linearGradient x1="274.36384" y1="299.01142" x2="274.78953" y2="289.12805" gradientUnits="userSpaceOnUse" id="color-69"><stop offset="0" stop-color="#808080" stop-opacity="0"/><stop offset="1" stop-color="#808080"/></linearGradient><linearGradient x1="291.77864" y1="279.95804" x2="291.35295" y2="289.84146" gradientUnits="userSpaceOnUse" id="color-70"><stop offset="0" stop-color="#828282" stop-opacity="0"/><stop offset="1" stop-color="#828282"/></linearGradient><linearGradient x1="290.92726" y1="299.72482" x2="291.35295" y2="289.84146" gradientUnits="userSpaceOnUse" id="color-71"><stop offset="0" stop-color="#828282" stop-opacity="0"/><stop offset="1" stop-color="#828282"/></linearGradient><radialGradient cx="242.06433" cy="271.77692" r="187.91363" gradientUnits="userSpaceOnUse" id="color-72"><stop offset="0" stop-color="#000000" stop-opacity="0"/><stop offset="1" stop-color="#000000"/></radialGradient><radialGradient cx="16.1504" cy="266.76588" r="191.56752" gradientUnits="userSpaceOnUse" id="color-73"><stop offset="0" stop-color="#000000"/><stop offset="1" stop-color="#000000"/></radialGradient><radialGradient cx="468.70906" cy="266.76588" r="191.56752" gradientUnits="userSpaceOnUse" id="color-74"><stop offset="0" stop-color="#000000"/><stop offset="1" stop-color="#000000"/></radialGradient><radialGradient cx="23.42423" cy="266.76589" r="191.56752" gradientUnits="userSpaceOnUse" id="color-75"><stop offset="0" stop-color="#000000"/><stop offset="1" stop-color="#000000"/></radialGradient><radialGradient cx="461.43524" cy="266.76589" r="191.56752" gradientUnits="userSpaceOnUse" id="color-76"><stop offset="0" stop-color="#000000"/><stop offset="1" stop-color="#000000"/></radialGradient><radialGradient cx="242.42973" cy="53.91496" r="265.95" gradientUnits="userSpaceOnUse" id="color-77"><stop offset="0" stop-color="#000000"/><stop offset="1" stop-color="#000000"/></radialGradient><radialGradient cx="242.42973" cy="-25.1881" r="265.95" gradientUnits="userSpaceOnUse" id="color-78"><stop offset="0" stop-color="#000000"/><stop offset="1" stop-color="#000000"/></radialGradient></defs><g transform="translate(36.52165,64.73965)"><g data-paper-data="{&quot;isPaintingLayer&quot;:true}" stroke-linejoin="miter" stroke-miterlimit="10" stroke-dasharray="" stroke-dashoffset="0" style="mix-blend-mode: normal"><path d="M-22.11361,-31.60251l538.63526,19.20983l-14.40804,403.99521l-538.63526,-19.20983z" fill="#000000" fill-rule="nonzero" stroke="none" stroke-width="1.00207" stroke-linecap="butt"/><path d="M119.21571,-27.68579l255.83861,9.1242l-14.40804,403.99521l-255.83861,-9.1242z" fill="url(#color-1)" fill-rule="nonzero" stroke="none" stroke-width="1.00207" stroke-linecap="butt"/><g fill-rule="nonzero" stroke="none" stroke-width="0" stroke-linecap="butt"><path d="M154.65341,380.33439l14.40804,-403.99521l2.55717,0.0912l-14.40804,403.99521z" fill="url(#color-2)"/><path d="M308.08329,385.80629l14.40804,-403.99521l2.55717,0.0912l-14.40804,403.99521z" fill="url(#color-3)"/></g><g fill-rule="nonzero" stroke="none" stroke-width="0" stroke-linecap="butt"><path d="M41.98669,376.31625l14.40804,-403.99521l155.98704,5.5631l-14.40804,403.99521z" fill="url(#color-4)"/><path d="M267.53818,384.3603l14.40804,-403.99521l155.98704,5.5631l-14.40804,403.99521z" data-paper-data="{&quot;index&quot;:null}" fill="url(#color-5)"/></g><g fill-rule="nonzero" stroke="none" stroke-width="0" stroke-linecap="butt"><path d="M104.83665,378.55773l14.40804,-403.99521l104.59627,3.73031l-14.40804,403.99521z" fill="url(#color-6)"/><path d="M256.07899,383.95162l14.40804,-403.99521l104.59627,3.73031l-14.40804,403.99521z" data-paper-data="{&quot;index&quot;:null}" fill="url(#color-7)"/></g><g fill-rule="nonzero" stroke="none" stroke-width="0" stroke-linecap="butt"><path d="M104.83665,378.55773l14.40804,-403.99521l104.59627,3.73031l-14.40804,403.99521z" fill="url(#color-8)"/><path d="M256.07899,383.95162l14.40804,-403.99521l104.59627,3.73031l-14.40804,403.99521z" data-paper-data="{&quot;index&quot;:null}" fill="url(#color-9)"/></g><g fill-rule="nonzero" stroke="none" stroke-width="0" stroke-linecap="butt"><g><path d="M316.70869,158.87863l0.27687,-7.31598l2.26962,0.08589l-0.27687,7.31599z" data-paper-data="{&quot;index&quot;:null}" fill="#295962"/><path d="M163.18891,153.06875l0.27687,-7.31599l2.26961,0.08589l-0.27687,7.31599z" data-paper-data="{&quot;index&quot;:null}" fill="#295962"/><path d="M237.88777,164.18175l0.45338,-11.9802l5.69942,0.21569l-0.45338,11.98021z" fill="url(#color-10)"/><path d="M244.49032,140.53304l-0.45338,11.9802l-5.69944,-0.21569l0.45338,-11.9802z" fill="url(#color-11)"/></g><g><path d="M314.39481,219.14697l0.27687,-7.31599l2.26962,0.0859l-0.27687,7.31598z" data-paper-data="{&quot;index&quot;:null}" fill="#295962"/><path d="M160.87501,213.33708l0.27687,-7.31598l2.26962,0.08589l-0.27687,7.31599z" data-paper-data="{&quot;index&quot;:null}" fill="#295962"/><path d="M235.57389,224.45009l0.45338,-11.9802l5.69942,0.21569l-0.45338,11.9802z" fill="url(#color-12)"/><path d="M242.17644,200.80137l-0.45338,11.9802l-5.69944,-0.21569l0.45338,-11.9802z" fill="url(#color-13)"/></g><g><path d="M319.33462,98.84689l0.27687,-7.31598l2.26961,0.08589l-0.27687,7.31599z" data-paper-data="{&quot;index&quot;:null}" fill="#295962"/><path d="M165.81484,93.03702l0.27686,-7.31599l2.26962,0.0859l-0.27687,7.31598z" data-paper-data="{&quot;index&quot;:null}" fill="#295962"/><path d="M240.51371,104.15001l0.45339,-11.98021l5.69941,0.21569l-0.45338,11.9802z" fill="url(#color-14)"/><path d="M247.11626,80.5013l-0.45338,11.9802l-5.69943,-0.21569l0.45338,-11.9802z" fill="url(#color-15)"/></g><g><path d="M321.59992,38.98882l0.27687,-7.31598l2.26962,0.08589l-0.27687,7.31598z" data-paper-data="{&quot;index&quot;:null}" fill="#295962"/><path d="M168.08014,33.17895l0.27687,-7.31599l2.26962,0.0859l-0.27687,7.31599z" data-paper-data="{&quot;index&quot;:null}" fill="#295962"/><path d="M242.779,44.29193l0.45338,-11.9802l5.69942,0.21569l-0.45338,11.98021z" fill="url(#color-16)"/><path d="M249.38155,20.64323l-0.45338,11.9802l-5.69943,-0.21569l0.45338,-11.98021z" fill="url(#color-17)"/></g><g><path d="M323.87937,-21.24335l0.27687,-7.31598l2.26961,0.08589l-0.27687,7.31599z" data-paper-data="{&quot;index&quot;:null}" fill="#295962"/><path d="M170.35959,-27.05322l0.27687,-7.31598l2.26961,0.08589l-0.27687,7.31598z" data-paper-data="{&quot;index&quot;:null}" fill="#295962"/><path d="M245.05846,-15.94024l0.45338,-11.98021l5.69941,0.2157l-0.45338,11.9802z" fill="url(#color-18)"/><path d="M251.66101,-39.58894l-0.45338,11.9802l-5.69944,-0.2157l0.45338,-11.9802z" fill="url(#color-19)"/></g><g><path d="M312.50334,279.35635l0.27687,-7.31599l2.26961,0.0859l-0.27687,7.31598z" data-paper-data="{&quot;index&quot;:null}" fill="#295962"/><path d="M158.98356,273.54648l0.27687,-7.31599l2.26962,0.08589l-0.27687,7.31599z" data-paper-data="{&quot;index&quot;:null}" fill="#295962"/><path d="M233.68243,284.65948l0.45338,-11.9802l5.69942,0.21569l-0.45338,11.98021z" fill="url(#color-20)"/><path d="M240.28498,261.01077l-0.45338,11.9802l-5.69944,-0.21569l0.45338,-11.9802z" fill="url(#color-21)"/></g><g><path d="M310.23097,339.40148l0.27687,-7.31599l2.26961,0.0859l-0.27687,7.31598z" data-paper-data="{&quot;index&quot;:null}" fill="#295962"/><path d="M156.71118,333.5916l0.27687,-7.31599l2.26962,0.08589l-0.27687,7.31599z" data-paper-data="{&quot;index&quot;:null}" fill="#295962"/><path d="M231.41005,344.7046l0.45338,-11.9802l5.69941,0.21569l-0.45338,11.98021z" fill="url(#color-22)"/><path d="M238.0126,321.05589l-0.45338,11.9802l-5.69943,-0.21569l0.45338,-11.9802z" fill="url(#color-23)"/></g><g><path d="M307.95572,399.52242l0.27687,-7.31599l2.26961,0.08589l-0.27687,7.31599z" data-paper-data="{&quot;index&quot;:null}" fill="#295962"/><path d="M154.43594,393.71255l0.27687,-7.31599l2.26962,0.08589l-0.27687,7.31599z" data-paper-data="{&quot;index&quot;:null}" fill="#295962"/><path d="M229.13481,404.82554l0.45338,-11.9802l5.69942,0.21569l-0.45339,11.98021z" fill="url(#color-24)"/><path d="M235.73736,381.17684l-0.45338,11.9802l-5.69944,-0.21569l0.45339,-11.9802z" fill="url(#color-25)"/></g></g><g stroke="none" stroke-linecap="butt"><path d="M226.6247,295.68352l-7.41547,-152.44652l48.27718,1.94693l-19.66721,151.35434z" fill="url(#color-26)" fill-rule="nonzero" stroke-width="0"/><path d="M224.56535,293.62703c0.1323,-3.28071 3.18726,-5.82136 6.82346,-5.67471l12.30434,0.49621c3.63616,0.14664 6.47664,2.92505 6.34434,6.20575l-0.04713,1.16858l-0.40058,9.93283l-0.51839,12.85424l-0.32596,8.0826l-0.1021,2.5319c-0.1323,3.28066 -3.18731,5.82135 -6.82346,5.67471l-12.30434,-0.49621c-3.6362,-0.14664 -6.47664,-2.92507 -6.34434,-6.20575l0.1021,-2.5319l0.32596,-8.0826l0.51839,-12.85424l0.40058,-9.93283z" fill="url(#color-27)" fill-rule="evenodd" stroke-width="1"/><path d="M226.60423,294.98238c0.12257,-3.03947 2.68591,-5.40405 5.72536,-5.28147l10.28508,0.41477c3.03942,0.12257 5.40405,2.68591 5.28147,5.72536l-0.04366,1.08264l-0.37111,9.20245l-0.48027,11.90904l-0.30199,7.48827l-0.0946,2.34572c-0.12257,3.03942 -2.68594,5.40405 -5.72536,5.28147l-10.28508,-0.41477c-3.03947,-0.12257 -5.40405,-2.68594 -5.28147,-5.72536l0.0946,-2.34572l0.30199,-7.48827l0.48027,-11.90904l0.37111,-9.20245z" fill="url(#color-28)" fill-rule="evenodd" stroke-width="1"/><path d="M226.60426,294.98239c0.12257,-3.03947 2.68589,-5.40405 5.72536,-5.28147c0,0 -0.40995,2.8012 -2.13357,4.14889c-1.30949,1.0239 -3.59179,1.13258 -3.59179,1.13258z" fill="url(#color-29)" fill-rule="evenodd" stroke-width="1"/><path d="M244.40722,294.42287c-1.6095,-1.48211 -1.79255,-4.30722 -1.79255,-4.30722c3.03947,0.12257 5.40405,2.68589 5.28147,5.72536c0,0 -2.26612,-0.29212 -3.48893,-1.41814z" data-paper-data="{&quot;index&quot;:null}" fill="url(#color-30)" fill-rule="evenodd" stroke-width="1"/><path d="M226.60426,294.98239c0.12257,-3.03947 2.68589,-5.40405 5.72536,-5.28147c0,0 -0.40995,2.8012 -2.13357,4.14889c-1.30949,1.0239 -3.59179,1.13258 -3.59179,1.13258z" fill="url(#color-31)" fill-rule="evenodd" stroke-width="1"/><path d="M226.60426,294.98239c0.12257,-3.03947 2.68589,-5.40405 5.72536,-5.28147c0,0 -0.40995,2.8012 -2.13357,4.14889c-1.30949,1.0239 -3.59179,1.13258 -3.59179,1.13258z" fill="url(#color-32)" fill-rule="evenodd" stroke-width="1"/><path d="M244.40722,294.42287c-1.6095,-1.48211 -1.79255,-4.30722 -1.79255,-4.30722c3.03947,0.12257 5.40405,2.68589 5.28147,5.72536c0,0 -2.26612,-0.29212 -3.48893,-1.41814z" data-paper-data="{&quot;index&quot;:null}" fill="url(#color-33)" fill-rule="evenodd" stroke-width="1"/><path d="M237.25019,295.41162c3.38179,0.13638 6.02871,2.59114 5.91209,5.48285l-1.08048,26.79223l-12.24648,-0.49388l1.08048,-26.79223c0.11662,-2.89171 2.95264,-5.12534 6.33439,-4.98896z" fill-opacity="0.34166" fill="#ffffff" fill-rule="evenodd" stroke-width="1"/><path d="M237.19203,296.85425c2.63123,0.10612 4.67823,2.32516 4.57211,4.95637l-0.98314,24.37872l-9.52848,-0.38427l0.98314,-24.37872c0.10612,-2.63121 2.32516,-4.67823 4.95637,-4.57211z" fill="#062832" fill-rule="evenodd" stroke-width="1"/><g fill-rule="nonzero" stroke-width="0"><g><path d="M226.71547,313.90063l0.408,-10.117l2.59157,0.10452l-0.408,10.117z" fill="url(#color-34)"/><path d="M229.30701,314.00514l-0.408,10.117l-2.59157,-0.10452l0.408,-10.117z" data-paper-data="{&quot;index&quot;:null}" fill="url(#color-35)"/></g><g><path d="M243.67033,314.58439l0.408,-10.117l2.59157,0.10452l-0.408,10.117z" fill="url(#color-36)"/><path d="M246.26189,314.68892l-0.408,10.117l-2.59157,-0.10452l0.408,-10.117z" data-paper-data="{&quot;index&quot;:null}" fill="url(#color-37)"/></g></g><path d="M217.37305,338.25245l7.85483,-194.77274l36.23998,1.46149l-7.85483,194.77274z" fill="none" fill-rule="nonzero" stroke-width="0"/></g><path d="M177.66348,145.50001c0,-8.19399 6.64254,-14.83653 14.83653,-14.83653c8.19399,0 14.83653,6.64254 14.83653,14.83653c0,8.19399 -6.64254,14.83653 -14.83653,14.83653c-8.19399,0 -14.83653,-6.64254 -14.83653,-14.83653z" fill="url(#color-38)" fill-rule="nonzero" stroke="none" stroke-width="0" stroke-linecap="butt"/><path d="M183.02779,145.50001c0,-5.23137 4.24087,-9.47222 9.47222,-9.47222c5.23137,0 9.47222,4.24087 9.47222,9.47222c0,5.23137 -4.24087,9.47222 -9.47222,9.47222c-5.23137,0 -9.47222,-4.24087 -9.47222,-9.47222z" fill="#ffa800" fill-rule="nonzero" stroke="none" stroke-width="0" stroke-linecap="butt"/><path d="M185.2781,145.50001c0,-3.98854 3.23336,-7.22192 7.22191,-7.22192c3.98854,0 7.22192,3.23336 7.22192,7.22192c0,3.98854 -3.23336,7.22191 -7.22192,7.22191c-3.98854,0 -7.22191,-3.23336 -7.22191,-7.22191z" fill="#ffe600" fill-rule="nonzero" stroke="none" stroke-width="0" stroke-linecap="butt"/><path d="M192.50001,148.79698v-6.59393" fill="none" fill-rule="nonzero" stroke="#ffa800" stroke-width="3" stroke-linecap="round"/><g stroke="none" stroke-linecap="butt"><path d="M271.44507,129.65786c0.13501,-3.20912 3.12784,-5.68931 6.68471,-5.53968l12.03589,0.50636c3.55682,0.14964 6.3308,2.87245 6.1958,6.08157l-0.04809,1.14307l-0.40876,9.71612l-0.52899,12.57379l-0.33262,7.90626l-0.10419,2.47667c-0.13501,3.20908 -3.1279,5.68932 -6.68471,5.53968l-12.03589,-0.50636c-3.55687,-0.14964 -6.33081,-2.87248 -6.1958,-6.08157l0.10419,-2.47667l0.33262,-7.90625l0.52899,-12.57379l0.40876,-9.71612z" fill="url(#color-39)" fill-rule="evenodd" stroke-width="1"/><path d="M273.43727,130.98722c0.12508,-2.97315 2.63669,-5.28195 5.60983,-5.15687l10.06069,0.42326c2.9731,0.12508 5.28194,2.63668 5.15686,5.60982l-0.04455,1.05902l-0.37871,9.00167l-0.49008,11.64921l-0.30816,7.32489l-0.09653,2.29454c-0.12508,2.9731 -2.63673,5.28194 -5.60983,5.15686l-10.06069,-0.42325c-2.97315,-0.12508 -5.28194,-2.63673 -5.15686,-5.60983l0.09653,-2.29454l0.30816,-7.32489l0.49008,-11.64921l0.37871,-9.00167z" fill="url(#color-40)" fill-rule="evenodd" stroke-width="1"/><path d="M273.4373,130.98724c0.12508,-2.97315 2.63668,-5.28195 5.60983,-5.15687c0,0 -0.40581,2.73958 -2.09422,4.05502c-1.28276,0.99939 -3.5156,1.10185 -3.5156,1.10185z" fill="url(#color-41)" fill-rule="evenodd" stroke-width="1"/><path d="M290.854,130.47018c-1.57197,-1.45262 -1.74623,-4.2166 -1.74623,-4.2166c2.97315,0.12508 5.28194,2.63668 5.15686,5.60983c0,0 -2.21634,-0.28962 -3.41063,-1.39323z" data-paper-data="{&quot;index&quot;:null}" fill="url(#color-42)" fill-rule="evenodd" stroke-width="1"/><path d="M273.4373,130.98724c0.12508,-2.97315 2.63668,-5.28195 5.60983,-5.15687c0,0 -0.40581,2.73958 -2.09422,4.05502c-1.28276,0.99939 -3.5156,1.10185 -3.5156,1.10185z" fill="url(#color-43)" fill-rule="evenodd" stroke-width="1"/><path d="M273.4373,130.98724c0.12508,-2.97315 2.63668,-5.28195 5.60983,-5.15687c0,0 -0.40581,2.73958 -2.09422,4.05502c-1.28276,0.99939 -3.5156,1.10185 -3.5156,1.10185z" fill="url(#color-44)" fill-rule="evenodd" stroke-width="1"/><path d="M290.854,130.47018c-1.57197,-1.45262 -1.74623,-4.2166 -1.74623,-4.2166c2.97315,0.12508 5.28194,2.63668 5.15686,5.60983c0,0 -2.21634,-0.28962 -3.41063,-1.39323z" data-paper-data="{&quot;index&quot;:null}" fill="url(#color-45)" fill-rule="evenodd" stroke-width="1"/><path d="M283.85097,131.42533c3.30801,0.13917 5.89318,2.54504 5.77417,5.37366l-1.10257,26.20768l-11.97929,-0.50398l1.10257,-26.20767c0.119,-2.82862 2.89713,-5.00886 6.20512,-4.86969z" fill-opacity="0.34166" fill="#ffffff" fill-rule="evenodd" stroke-width="1"/><path d="M283.79161,132.8364c2.57383,0.10828 4.57252,2.28255 4.46424,4.85636l-1.00324,23.84682l-9.3206,-0.39212l1.00325,-23.84683c0.10828,-2.57381 2.28255,-4.57252 4.85636,-4.46424z" fill="#06332c" fill-rule="evenodd" stroke-width="1"/><g fill-rule="nonzero" stroke-width="0"><path d="M273.51391,149.49421l0.41634,-9.89626l2.53502,0.10665l-0.41634,9.89626z" fill="url(#color-46)"/><path d="M276.04891,149.60086l-0.41634,9.89626l-2.53502,-0.10665l0.41634,-9.89626z" data-paper-data="{&quot;index&quot;:null}" fill="url(#color-47)"/></g><g fill-rule="nonzero" stroke-width="0"><path d="M290.09885,150.19195l0.41634,-9.89626l2.53502,0.10665l-0.41634,9.89626z" fill="url(#color-48)"/><path d="M292.63387,150.2986l-0.41634,9.89626l-2.53502,-0.10665l0.41634,-9.89626z" data-paper-data="{&quot;index&quot;:null}" fill="url(#color-49)"/></g></g><g stroke="none" stroke-linecap="butt"><path d="M180.95706,230.45088c0.16643,-3.19923 3.17585,-5.64319 6.72175,-5.45872l11.99881,0.62419c3.54586,0.18446 6.28549,2.92749 6.11906,6.12672l-0.05928,1.13956l-0.50388,9.68618l-0.65209,12.53505l-0.41002,7.88189l-0.12844,2.46903c-0.16643,3.19919 -3.17591,5.64318 -6.72175,5.45872l-11.99881,-0.62419c-3.5459,-0.18446 -6.28549,-2.92751 -6.11906,-6.12672l0.12844,-2.46903l0.41003,-7.88189l0.65209,-12.53505l0.50388,-9.68618z" fill="url(#color-50)" fill-rule="evenodd" stroke-width="1"/><path d="M182.9308,231.79642c0.15419,-2.96399 2.68197,-5.24176 5.64594,-5.08757l10.02969,0.52175c2.96394,0.15419 5.24177,2.68197 5.08757,5.64594l-0.05492,1.05575l-0.46684,8.97394l-0.60414,11.61332l-0.37988,7.30232l-0.119,2.28747c-0.15419,2.96394 -2.682,5.24176 -5.64594,5.08757l-10.02968,-0.52175c-2.96399,-0.15419 -5.24176,-2.682 -5.08757,-5.64594l0.119,-2.28747l0.37987,-7.30232l0.60414,-11.61332l0.46683,-8.97394z" fill="url(#color-51)" fill-rule="evenodd" stroke-width="1"/><path d="M182.93083,231.79644c0.15419,-2.96399 2.68196,-5.24176 5.64594,-5.08757c0,0 -0.43185,2.72826 -2.1288,4.02348c-1.28924,0.98403 -3.51714,1.06409 -3.51714,1.06409z" fill="url(#color-52)" fill-rule="evenodd" stroke-width="1"/><path d="M200.30625,231.45323c-1.5534,-1.46431 -1.69983,-4.22265 -1.69983,-4.22265c2.96399,0.15419 5.24177,2.68196 5.08757,5.64594c0,0 -2.20757,-0.3108 -3.38775,-1.42329z" data-paper-data="{&quot;index&quot;:null}" fill="url(#color-53)" fill-rule="evenodd" stroke-width="1"/><path d="M182.93083,231.79644c0.15419,-2.96399 2.68196,-5.24176 5.64594,-5.08757c0,0 -0.43185,2.72826 -2.1288,4.02348c-1.28924,0.98403 -3.51714,1.06409 -3.51714,1.06409z" fill="url(#color-54)" fill-rule="evenodd" stroke-width="1"/><path d="M182.93083,231.79644c0.15419,-2.96399 2.68196,-5.24176 5.64594,-5.08757c0,0 -0.43185,2.72826 -2.1288,4.02348c-1.28924,0.98403 -3.51714,1.06409 -3.51714,1.06409z" fill="url(#color-55)" fill-rule="evenodd" stroke-width="1"/><path d="M200.30625,231.45323c-1.5534,-1.46431 -1.69983,-4.22265 -1.69983,-4.22265c2.96399,0.15419 5.24177,2.68196 5.08757,5.64594c0,0 -2.20757,-0.3108 -3.38775,-1.42329z" data-paper-data="{&quot;index&quot;:null}" fill="url(#color-56)" fill-rule="evenodd" stroke-width="1"/><path d="M193.31239,232.33649c3.29782,0.17156 5.85227,2.59662 5.70557,5.41652l-1.35916,26.12692l-11.94238,-0.62125l1.35916,-26.12693c0.1467,-2.8199 2.93902,-4.96681 6.23681,-4.79526z" fill-opacity="0.34166" fill="#ffffff" fill-rule="evenodd" stroke-width="1"/><path d="M193.23921,233.74321c2.5659,0.13348 4.53773,2.32174 4.40425,4.88763l-1.23672,23.77335l-9.29188,-0.48338l1.23672,-23.77335c0.13348,-2.56588 2.32174,-4.53773 4.88763,-4.40425z" fill="#333333" fill-rule="evenodd" stroke-width="1"/><g fill-rule="nonzero" stroke-width="0"><path d="M182.82394,250.25486l0.51323,-9.86577l2.52721,0.13147l-0.51323,9.86577z" fill="url(#color-57)"/><path d="M185.35115,250.38633l-0.51323,9.86577l-2.52721,-0.13147l0.51323,-9.86577z" data-paper-data="{&quot;index&quot;:null}" fill="url(#color-58)"/></g><g fill-rule="nonzero" stroke-width="0"><path d="M199.35779,251.11497l0.51323,-9.86577l2.52721,0.13147l-0.51323,9.86577z" fill="url(#color-59)"/><path d="M201.885,251.24644l-0.51323,9.86577l-2.52721,-0.13147l0.51323,-9.86577z" data-paper-data="{&quot;index&quot;:null}" fill="url(#color-60)"/></g></g><g stroke="none" stroke-linecap="butt"><path d="M271.47724,269.26007c0.13804,-3.20495 3.12958,-5.67904 6.68183,-5.52605l12.02025,0.51773c3.5522,0.153 6.31998,2.87515 6.18193,6.0801l-0.04917,1.14159l-0.41794,9.70349l-0.54086,12.55745l-0.34009,7.89598l-0.10653,2.47345c-0.13804,3.20491 -3.12964,5.67904 -6.68183,5.52605l-12.02025,-0.51773c-3.55224,-0.153 -6.31997,-2.87518 -6.18193,-6.0801l0.10653,-2.47345l0.34009,-7.89598l0.54086,-12.55745l0.41794,-9.70349z" fill="url(#color-61)" fill-rule="evenodd" stroke-width="1"/><path d="M273.46565,270.58974c0.12789,-2.96928 2.63865,-5.27267 5.60791,-5.14478l10.04761,0.43276c2.96924,0.12789 5.27267,2.63865 5.14478,5.60791l-0.04555,1.05764l-0.38721,8.98997l-0.50109,11.63407l-0.31508,7.31537l-0.0987,2.29156c-0.12789,2.96924 -2.63868,5.27267 -5.60791,5.14478l-10.04761,-0.43276c-2.96928,-0.12789 -5.27267,-2.63868 -5.14478,-5.60791l0.0987,-2.29156l0.31508,-7.31537l0.50109,-11.63407l0.38721,-8.98997z" fill="url(#color-62)" fill-rule="evenodd" stroke-width="1"/><path d="M273.46568,270.58975c0.12789,-2.96928 2.63863,-5.27267 5.60791,-5.14478c0,0 -0.40803,2.73573 -2.09564,4.04784c-1.28215,0.99686 -3.51228,1.09695 -3.51228,1.09695z" fill="url(#color-63)" fill-rule="evenodd" stroke-width="1"/><path d="M290.861,270.09071c-1.56854,-1.45235 -1.73983,-4.21303 -1.73983,-4.21303c2.96928,0.12789 5.27267,2.63863 5.14478,5.60791c0,0 -2.21327,-0.29147 -3.40495,-1.39488z" data-paper-data="{&quot;index&quot;:null}" fill="url(#color-64)" fill-rule="evenodd" stroke-width="1"/><path d="M273.46568,270.58975c0.12789,-2.96928 2.63863,-5.27267 5.60791,-5.14478c0,0 -0.40803,2.73573 -2.09564,4.04784c-1.28215,0.99686 -3.51228,1.09695 -3.51228,1.09695z" fill="url(#color-65)" fill-rule="evenodd" stroke-width="1"/><path d="M273.46568,270.58975c0.12789,-2.96928 2.63863,-5.27267 5.60791,-5.14478c0,0 -0.40803,2.73573 -2.09564,4.04784c-1.28215,0.99686 -3.51228,1.09695 -3.51228,1.09695z" fill="url(#color-66)" fill-rule="evenodd" stroke-width="1"/><path d="M290.861,270.09071c-1.56854,-1.45235 -1.73983,-4.21303 -1.73983,-4.21303c2.96928,0.12789 5.27267,2.63863 5.14478,5.60791c0,0 -2.21327,-0.29147 -3.40495,-1.39488z" data-paper-data="{&quot;index&quot;:null}" fill="url(#color-67)" fill-rule="evenodd" stroke-width="1"/><path d="M283.86573,271.03768c3.30371,0.14229 5.88322,2.54772 5.76155,5.37266l-1.12733,26.17361l-11.96372,-0.51529l1.12733,-26.17361c0.12167,-2.82494 2.89849,-4.99966 6.20217,-4.85737z" fill-opacity="0.19657" fill="#ffffff" fill-rule="evenodd" stroke-width="1"/><path d="M283.80503,272.44692c2.57048,0.11071 4.56449,2.28424 4.45378,4.8547l-1.02578,23.81583l-9.30848,-0.40093l1.02578,-23.81583c0.11071,-2.57047 2.28424,-4.56449 4.8547,-4.45378z" fill="#0d0d0d" fill-rule="evenodd" stroke-width="1"/><g fill-rule="nonzero" stroke-width="0"><path d="M273.52364,289.07352l0.42569,-9.8834l2.53173,0.10904l-0.42569,9.8834z" fill="url(#color-68)"/><path d="M276.05543,289.18257l-0.42569,9.8834l-2.53173,-0.10904l0.42569,-9.8834z" data-paper-data="{&quot;index&quot;:null}" fill="url(#color-69)"/></g><g fill-rule="nonzero" stroke-width="0"><path d="M290.08705,289.78693l0.42569,-9.8834l2.53173,0.10904l-0.42569,9.8834z" fill="url(#color-70)"/><path d="M292.61876,289.89598l-0.42569,9.8834l-2.53173,-0.10904l0.42569,-9.8834z" data-paper-data="{&quot;index&quot;:null}" fill="url(#color-71)"/></g></g><g fill-rule="nonzero" stroke-linecap="butt"><path d="M32.85382,288.37594z" fill="#9966ff" stroke="#000000" stroke-width="2"/><path d="M54.1507,271.77692c0,-103.78183 84.1318,-187.91363 187.91363,-187.91363c103.78184,0 187.91363,84.1318 187.91363,187.91363c0,103.78184 -84.13179,187.91363 -187.91363,187.91363c-103.78183,0 -187.91363,-84.1318 -187.91363,-187.91363z" fill="url(#color-72)" stroke="none" stroke-width="0"/><path d="M-23.52026,459.69055v-385.84933h79.34131c0,0 -6.05588,111.42126 -1.17425,188.65736c1.04333,16.50738 0.26162,31.45321 2.7402,43.41597c25.57714,123.4479 176.43003,153.776 176.43003,153.776z" fill="url(#color-73)" stroke="none" stroke-width="0"/><path d="M251.04244,459.69055c0,0 150.85289,-30.3281 176.43003,-153.776c2.47857,-11.96278 1.69687,-26.90861 2.74021,-43.41597c4.88162,-77.2361 -1.17426,-188.65736 -1.17426,-188.65736h79.34131v385.84935z" data-paper-data="{&quot;index&quot;:null}" fill="url(#color-74)" stroke="none" stroke-width="0"/><path d="M241.09087,73.84122c0,0 -150.85289,30.32811 -176.43003,153.776c-2.47857,11.96276 -1.69687,26.90861 -2.7402,43.41598c-4.88162,77.2361 1.17425,188.65737 1.17425,188.65737h-79.34131v-385.84933z" data-paper-data="{&quot;index&quot;:null}" fill="url(#color-75)" stroke="none" stroke-width="0"/><path d="M501.10588,73.84123v385.84935h-79.34131c0,0 6.05589,-111.42126 1.17425,-188.65737c-1.04332,-16.50737 -0.26164,-31.45322 -2.7402,-43.41599c-25.57713,-123.44789 -176.43003,-153.776 -176.43003,-153.776z" data-paper-data="{&quot;index&quot;:null}" fill="url(#color-76)" stroke="none" stroke-width="0"/><path d="M-23.52026,93.46651v-79.10307h531.89999v79.10307z" fill="url(#color-77)" stroke="none" stroke-width="0"/><path d="M-23.52026,14.36343v-79.10308h531.89999v79.10308z" fill="url(#color-78)" stroke="none" stroke-width="0"/></g></g></g></svg>