<svg version="1.1" xmlns="http://www.w3.org/2000/svg" xmlns:xlink="http://www.w3.org/1999/xlink" width="657.52165" height="623.50311" viewBox="0,0,657.52165,623.50311"><defs><linearGradient x1="248.48293" y1="-99.3347" x2="231.353" y2="380.9814" gradientUnits="userSpaceOnUse" id="color-1"><stop offset="0" stop-color="#000000"/><stop offset="1" stop-color="#005d6f"/></linearGradient><linearGradient x1="157.18019" y1="-99.9191" x2="140.05026" y2="380.397" gradientUnits="userSpaceOnUse" id="color-2"><stop offset="0" stop-color="#11dbe7" stop-opacity="0"/><stop offset="1" stop-color="#11dbe7"/></linearGradient><linearGradient x1="339.59534" y1="-93.41346" x2="322.4654" y2="386.90264" gradientUnits="userSpaceOnUse" id="color-3"><stop offset="0" stop-color="#11dbe7" stop-opacity="0"/><stop offset="1" stop-color="#11dbe7"/></linearGradient><linearGradient x1="13.14391" y1="135.40753" x2="198.59931" y2="142.02158" gradientUnits="userSpaceOnUse" id="color-4"><stop offset="0" stop-color="#000000" stop-opacity="0.70805"/><stop offset="1" stop-color="#000000" stop-opacity="0"/></linearGradient><linearGradient x1="466.76091" y1="151.58525" x2="281.30553" y2="144.97121" gradientUnits="userSpaceOnUse" id="color-5"><stop offset="0" stop-color="#000000" stop-opacity="0.70805"/><stop offset="1" stop-color="#000000" stop-opacity="0"/></linearGradient><linearGradient x1="87.86719" y1="138.07244" x2="212.22331" y2="142.50747" gradientUnits="userSpaceOnUse" id="color-6"><stop offset="0" stop-color="#000000" stop-opacity="0.70805"/><stop offset="1" stop-color="#000000" stop-opacity="0"/></linearGradient><linearGradient x1="392.03763" y1="148.92035" x2="267.68153" y2="144.48532" gradientUnits="userSpaceOnUse" id="color-7"><stop offset="0" stop-color="#000000" stop-opacity="0.70805"/><stop offset="1" stop-color="#000000" stop-opacity="0"/></linearGradient><linearGradient x1="87.86719" y1="138.07244" x2="212.22331" y2="142.50747" gradientUnits="userSpaceOnUse" id="color-8"><stop offset="0" stop-color="#000000" stop-opacity="0.70805"/><stop offset="1" stop-color="#000000" stop-opacity="0"/></linearGradient><linearGradient x1="392.03763" y1="148.92035" x2="267.68153" y2="144.48532" gradientUnits="userSpaceOnUse" id="color-9"><stop offset="0" stop-color="#000000" stop-opacity="0.70805"/><stop offset="1" stop-color="#000000" stop-opacity="0"/></linearGradient><linearGradient x1="241.41586" y1="109.24038" x2="240.87681" y2="123.48382" gradientUnits="userSpaceOnUse" id="color-10"><stop offset="0" stop-color="#2f7888"/><stop offset="1" stop-color="#2f7888" stop-opacity="0"/></linearGradient><linearGradient x1="241.41153" y1="109.35449" x2="241.95057" y2="95.11108" gradientUnits="userSpaceOnUse" id="color-11"><stop offset="0" stop-color="#2f7888"/><stop offset="1" stop-color="#2f7888" stop-opacity="0"/></linearGradient><linearGradient x1="238.66482" y1="180.89434" x2="238.12578" y2="195.13778" gradientUnits="userSpaceOnUse" id="color-12"><stop offset="0" stop-color="#2f7888"/><stop offset="1" stop-color="#2f7888" stop-opacity="0"/></linearGradient><linearGradient x1="238.6605" y1="181.00847" x2="239.19954" y2="166.76503" gradientUnits="userSpaceOnUse" id="color-13"><stop offset="0" stop-color="#2f7888"/><stop offset="1" stop-color="#2f7888" stop-opacity="0"/></linearGradient><linearGradient x1="244.53786" y1="37.86775" x2="243.99883" y2="52.11118" gradientUnits="userSpaceOnUse" id="color-14"><stop offset="0" stop-color="#2f7888"/><stop offset="1" stop-color="#2f7888" stop-opacity="0"/></linearGradient><linearGradient x1="244.53355" y1="37.98186" x2="245.07258" y2="23.73843" gradientUnits="userSpaceOnUse" id="color-15"><stop offset="0" stop-color="#2f7888"/><stop offset="1" stop-color="#2f7888" stop-opacity="0"/></linearGradient><linearGradient x1="247.23111" y1="-33.29843" x2="246.69207" y2="-19.05501" gradientUnits="userSpaceOnUse" id="color-16"><stop offset="0" stop-color="#2f7888"/><stop offset="1" stop-color="#2f7888" stop-opacity="0"/></linearGradient><linearGradient x1="247.22679" y1="-33.18432" x2="247.76583" y2="-47.42776" gradientUnits="userSpaceOnUse" id="color-17"><stop offset="0" stop-color="#2f7888"/><stop offset="1" stop-color="#2f7888" stop-opacity="0"/></linearGradient><linearGradient x1="249.94119" y1="-104.90938" x2="249.40216" y2="-90.66595" gradientUnits="userSpaceOnUse" id="color-18"><stop offset="0" stop-color="#2f7888"/><stop offset="1" stop-color="#2f7888" stop-opacity="0"/></linearGradient><linearGradient x1="249.93687" y1="-104.79526" x2="250.4759" y2="-119.0387" gradientUnits="userSpaceOnUse" id="color-19"><stop offset="0" stop-color="#2f7888"/><stop offset="1" stop-color="#2f7888" stop-opacity="0"/></linearGradient><linearGradient x1="236.41605" y1="252.47821" x2="235.87702" y2="266.72165" gradientUnits="userSpaceOnUse" id="color-20"><stop offset="0" stop-color="#2f7888"/><stop offset="1" stop-color="#2f7888" stop-opacity="0"/></linearGradient><linearGradient x1="236.41173" y1="252.59233" x2="236.95077" y2="238.3489" gradientUnits="userSpaceOnUse" id="color-21"><stop offset="0" stop-color="#2f7888"/><stop offset="1" stop-color="#2f7888" stop-opacity="0"/></linearGradient><linearGradient x1="233.71438" y1="323.86677" x2="233.17535" y2="338.11022" gradientUnits="userSpaceOnUse" id="color-22"><stop offset="0" stop-color="#2f7888"/><stop offset="1" stop-color="#2f7888" stop-opacity="0"/></linearGradient><linearGradient x1="233.71007" y1="323.98089" x2="234.24911" y2="309.73747" gradientUnits="userSpaceOnUse" id="color-23"><stop offset="0" stop-color="#2f7888"/><stop offset="1" stop-color="#2f7888" stop-opacity="0"/></linearGradient><linearGradient x1="231.00932" y1="395.34549" x2="230.47028" y2="409.58892" gradientUnits="userSpaceOnUse" id="color-24"><stop offset="0" stop-color="#2f7888"/><stop offset="1" stop-color="#2f7888" stop-opacity="0"/></linearGradient><linearGradient x1="231.005" y1="395.4596" x2="231.54403" y2="381.21617" gradientUnits="userSpaceOnUse" id="color-25"><stop offset="0" stop-color="#2f7888"/><stop offset="1" stop-color="#2f7888" stop-opacity="0"/></linearGradient><linearGradient x1="243.98033" y1="99.61136" x2="236.69719" y2="280.20819" gradientUnits="userSpaceOnUse" id="color-26"><stop offset="0" stop-color="#e4f6aa" stop-opacity="0"/><stop offset="1" stop-color="#e4f6aa" stop-opacity="0.5932"/></linearGradient><linearGradient x1="237.07645" y1="270.80327" x2="234.84929" y2="326.02916" gradientUnits="userSpaceOnUse" id="color-27"><stop offset="0" stop-color="#00313f" stop-opacity="0"/><stop offset="1" stop-color="#00313f"/></linearGradient><linearGradient x1="236.99461" y1="272.83369" x2="234.93121" y2="323.99875" gradientUnits="userSpaceOnUse" id="color-28"><stop offset="0" stop-color="#0092ac"/><stop offset="1" stop-color="#00313f"/></linearGradient><linearGradient x1="236.99461" y1="272.83369" x2="234.93121" y2="323.99875" gradientUnits="userSpaceOnUse" id="color-29"><stop offset="0" stop-color="#edfbb0"/><stop offset="1" stop-color="#c3f8b0"/></linearGradient><linearGradient x1="236.99461" y1="272.83369" x2="234.93121" y2="323.9987" gradientUnits="userSpaceOnUse" id="color-30"><stop offset="0" stop-color="#edfbb0"/><stop offset="1" stop-color="#c3f8b0"/></linearGradient><linearGradient x1="236.99461" y1="272.83369" x2="234.93121" y2="323.99875" gradientUnits="userSpaceOnUse" id="color-31"><stop offset="0" stop-color="#9ef77e" stop-opacity="0.38546"/><stop offset="1" stop-color="#9ef77e" stop-opacity="0"/></linearGradient><linearGradient x1="236.99461" y1="272.83369" x2="234.93121" y2="323.99875" gradientUnits="userSpaceOnUse" id="color-32"><stop offset="0" stop-color="#9ef77e" stop-opacity="0.38546"/><stop offset="1" stop-color="#9ef77e" stop-opacity="0"/></linearGradient><linearGradient x1="236.99461" y1="272.83369" x2="234.93121" y2="323.9987" gradientUnits="userSpaceOnUse" id="color-33"><stop offset="0" stop-color="#9ef77e" stop-opacity="0.38546"/><stop offset="1" stop-color="#9ef77e" stop-opacity="0"/></linearGradient><linearGradient x1="226.23142" y1="289.39256" x2="225.74633" y2="301.42082" gradientUnits="userSpaceOnUse" id="color-34"><stop offset="0" stop-color="#73ddff" stop-opacity="0"/><stop offset="1" stop-color="#73ddff" stop-opacity="0.49735"/></linearGradient><linearGradient x1="225.26127" y1="313.44901" x2="225.74633" y2="301.42082" gradientUnits="userSpaceOnUse" id="color-35"><stop offset="0" stop-color="#73ddff" stop-opacity="0"/><stop offset="1" stop-color="#73ddff" stop-opacity="0.49735"/></linearGradient><linearGradient x1="246.3894" y1="290.2055" x2="245.90431" y2="302.23375" gradientUnits="userSpaceOnUse" id="color-36"><stop offset="0" stop-color="#73ddff" stop-opacity="0"/><stop offset="1" stop-color="#73ddff" stop-opacity="0.49735"/></linearGradient><linearGradient x1="245.41924" y1="314.26195" x2="245.90431" y2="302.23375" gradientUnits="userSpaceOnUse" id="color-37"><stop offset="0" stop-color="#73ddff" stop-opacity="0"/><stop offset="1" stop-color="#73ddff" stop-opacity="0.49735"/></linearGradient><radialGradient cx="183.52653" cy="101.1446" r="17.63938" gradientUnits="userSpaceOnUse" id="color-38"><stop offset="0" stop-color="#ffe600"/><stop offset="1" stop-color="#ffe600" stop-opacity="0"/></radialGradient><linearGradient x1="292.48789" y1="76.02442" x2="290.21519" y2="130.0454" gradientUnits="userSpaceOnUse" id="color-39"><stop offset="0" stop-color="#004036" stop-opacity="0"/><stop offset="1" stop-color="#004036"/></linearGradient><linearGradient x1="292.40437" y1="78.01054" x2="290.2988" y2="128.05928" gradientUnits="userSpaceOnUse" id="color-40"><stop offset="0" stop-color="#00ab91"/><stop offset="1" stop-color="#004036"/></linearGradient><linearGradient x1="292.40437" y1="78.01054" x2="290.2988" y2="128.05928" gradientUnits="userSpaceOnUse" id="color-41"><stop offset="0" stop-color="#edfbb0"/><stop offset="1" stop-color="#c3f8b0"/></linearGradient><linearGradient x1="292.40437" y1="78.01054" x2="290.2988" y2="128.05922" gradientUnits="userSpaceOnUse" id="color-42"><stop offset="0" stop-color="#edfbb0"/><stop offset="1" stop-color="#c3f8b0"/></linearGradient><linearGradient x1="292.40437" y1="78.01054" x2="290.2988" y2="128.05928" gradientUnits="userSpaceOnUse" id="color-43"><stop offset="0" stop-color="#9ef77e" stop-opacity="0.38546"/><stop offset="1" stop-color="#9ef77e" stop-opacity="0"/></linearGradient><linearGradient x1="292.40437" y1="78.01054" x2="290.2988" y2="128.05928" gradientUnits="userSpaceOnUse" id="color-44"><stop offset="0" stop-color="#9ef77e" stop-opacity="0.38546"/><stop offset="1" stop-color="#9ef77e" stop-opacity="0"/></linearGradient><linearGradient x1="292.40437" y1="78.01054" x2="290.2988" y2="128.05922" gradientUnits="userSpaceOnUse" id="color-45"><stop offset="0" stop-color="#9ef77e" stop-opacity="0.38546"/><stop offset="1" stop-color="#9ef77e" stop-opacity="0"/></linearGradient><linearGradient x1="281.84713" y1="94.19094" x2="281.35213" y2="105.95677" gradientUnits="userSpaceOnUse" id="color-46"><stop offset="0" stop-color="#73ffea" stop-opacity="0"/><stop offset="1" stop-color="#73ffea"/></linearGradient><linearGradient x1="280.85715" y1="117.72255" x2="281.35213" y2="105.95677" gradientUnits="userSpaceOnUse" id="color-47"><stop offset="0" stop-color="#73ffea" stop-opacity="0"/><stop offset="1" stop-color="#73ffea"/></linearGradient><linearGradient x1="301.56529" y1="95.02049" x2="301.07029" y2="106.78632" gradientUnits="userSpaceOnUse" id="color-48"><stop offset="0" stop-color="#73ffea" stop-opacity="0"/><stop offset="1" stop-color="#73ffea"/></linearGradient><linearGradient x1="300.57531" y1="118.5521" x2="301.07029" y2="106.78632" gradientUnits="userSpaceOnUse" id="color-49"><stop offset="0" stop-color="#73ffea" stop-opacity="0"/><stop offset="1" stop-color="#73ffea"/></linearGradient><linearGradient x1="184.92731" y1="196.02506" x2="182.12572" y2="249.87963" gradientUnits="userSpaceOnUse" id="color-50"><stop offset="0" stop-color="#404040" stop-opacity="0"/><stop offset="1" stop-color="#404040"/></linearGradient><linearGradient x1="184.82434" y1="198.00508" x2="182.22876" y2="247.89963" gradientUnits="userSpaceOnUse" id="color-51"><stop offset="0" stop-color="#ababab"/><stop offset="1" stop-color="#404040"/></linearGradient><linearGradient x1="184.82434" y1="198.00508" x2="182.22876" y2="247.89963" gradientUnits="userSpaceOnUse" id="color-52"><stop offset="0" stop-color="#edfbb0"/><stop offset="1" stop-color="#c3f8b0"/></linearGradient><linearGradient x1="184.82432" y1="198.00508" x2="182.22875" y2="247.89956" gradientUnits="userSpaceOnUse" id="color-53"><stop offset="0" stop-color="#edfbb0"/><stop offset="1" stop-color="#c3f8b0"/></linearGradient><linearGradient x1="184.82434" y1="198.00508" x2="182.22876" y2="247.89963" gradientUnits="userSpaceOnUse" id="color-54"><stop offset="0" stop-color="#9ef77e" stop-opacity="0.38546"/><stop offset="1" stop-color="#9ef77e" stop-opacity="0"/></linearGradient><linearGradient x1="184.82434" y1="198.00508" x2="182.22876" y2="247.89963" gradientUnits="userSpaceOnUse" id="color-55"><stop offset="0" stop-color="#9ef77e" stop-opacity="0.38546"/><stop offset="1" stop-color="#9ef77e" stop-opacity="0"/></linearGradient><linearGradient x1="184.82432" y1="198.00508" x2="182.22875" y2="247.89956" gradientUnits="userSpaceOnUse" id="color-56"><stop offset="0" stop-color="#9ef77e" stop-opacity="0.38546"/><stop offset="1" stop-color="#9ef77e" stop-opacity="0"/></linearGradient><linearGradient x1="174.13501" y1="214.03782" x2="173.52482" y2="225.76741" gradientUnits="userSpaceOnUse" id="color-57"><stop offset="0" stop-color="#ffffff" stop-opacity="0"/><stop offset="1" stop-color="#ffffff"/></linearGradient><linearGradient x1="172.91463" y1="237.49693" x2="173.52482" y2="225.76741" gradientUnits="userSpaceOnUse" id="color-58"><stop offset="0" stop-color="#ffffff" stop-opacity="0"/><stop offset="1" stop-color="#ffffff"/></linearGradient><linearGradient x1="193.7924" y1="215.06042" x2="193.18223" y2="226.79001" gradientUnits="userSpaceOnUse" id="color-59"><stop offset="0" stop-color="#ffffff" stop-opacity="0"/><stop offset="1" stop-color="#ffffff"/></linearGradient><linearGradient x1="192.57204" y1="238.51954" x2="193.18223" y2="226.79001" gradientUnits="userSpaceOnUse" id="color-60"><stop offset="0" stop-color="#ffffff" stop-opacity="0"/><stop offset="1" stop-color="#ffffff"/></linearGradient><linearGradient x1="292.51338" y1="242.02254" x2="290.18964" y2="295.97337" gradientUnits="userSpaceOnUse" id="color-61"><stop offset="0" stop-color="#292929" stop-opacity="0"/><stop offset="1" stop-color="#292929"/></linearGradient><linearGradient x1="292.42798" y1="244.00608" x2="290.27512" y2="293.98983" gradientUnits="userSpaceOnUse" id="color-62"><stop offset="0" stop-color="#2b2b2b"/><stop offset="1" stop-color="#000000"/></linearGradient><linearGradient x1="292.42798" y1="244.00608" x2="290.27512" y2="293.98983" gradientUnits="userSpaceOnUse" id="color-63"><stop offset="0" stop-color="#edfbb0"/><stop offset="1" stop-color="#c3f8b0"/></linearGradient><linearGradient x1="292.42796" y1="244.00608" x2="290.2751" y2="293.98975" gradientUnits="userSpaceOnUse" id="color-64"><stop offset="0" stop-color="#edfbb0"/><stop offset="1" stop-color="#c3f8b0"/></linearGradient><linearGradient x1="292.42798" y1="244.00608" x2="290.27512" y2="293.98983" gradientUnits="userSpaceOnUse" id="color-65"><stop offset="0" stop-color="#9ef77e" stop-opacity="0.38546"/><stop offset="1" stop-color="#9ef77e" stop-opacity="0"/></linearGradient><linearGradient x1="292.42798" y1="244.00608" x2="290.27512" y2="293.98983" gradientUnits="userSpaceOnUse" id="color-66"><stop offset="0" stop-color="#9ef77e" stop-opacity="0.38546"/><stop offset="1" stop-color="#9ef77e" stop-opacity="0"/></linearGradient><linearGradient x1="292.42796" y1="244.00608" x2="290.2751" y2="293.98975" gradientUnits="userSpaceOnUse" id="color-67"><stop offset="0" stop-color="#9ef77e" stop-opacity="0.38546"/><stop offset="1" stop-color="#9ef77e" stop-opacity="0"/></linearGradient><linearGradient x1="281.86791" y1="260.15563" x2="281.36181" y2="271.90618" gradientUnits="userSpaceOnUse" id="color-68"><stop offset="0" stop-color="#808080" stop-opacity="0"/><stop offset="1" stop-color="#808080"/></linearGradient><linearGradient x1="280.8557" y1="283.65666" x2="281.36181" y2="271.90618" gradientUnits="userSpaceOnUse" id="color-69"><stop offset="0" stop-color="#808080" stop-opacity="0"/><stop offset="1" stop-color="#808080"/></linearGradient><linearGradient x1="301.56041" y1="261.00381" x2="301.05431" y2="272.75435" gradientUnits="userSpaceOnUse" id="color-70"><stop offset="0" stop-color="#828282" stop-opacity="0"/><stop offset="1" stop-color="#828282"/></linearGradient><linearGradient x1="300.5482" y1="284.50484" x2="301.05431" y2="272.75435" gradientUnits="userSpaceOnUse" id="color-71"><stop offset="0" stop-color="#828282" stop-opacity="0"/><stop offset="1" stop-color="#828282"/></linearGradient><radialGradient cx="242.45431" cy="251.27716" r="223.41339" gradientUnits="userSpaceOnUse" id="color-72"><stop offset="0" stop-color="#000000" stop-opacity="0"/><stop offset="1" stop-color="#000000"/></radialGradient><radialGradient cx="-26.13822" cy="245.31945" r="227.75756" gradientUnits="userSpaceOnUse" id="color-73"><stop offset="0" stop-color="#000000"/><stop offset="1" stop-color="#000000"/></radialGradient><radialGradient cx="511.9157" cy="245.31945" r="227.75756" gradientUnits="userSpaceOnUse" id="color-74"><stop offset="0" stop-color="#000000"/><stop offset="1" stop-color="#000000"/></radialGradient><radialGradient cx="-17.49026" cy="245.31947" r="227.75756" gradientUnits="userSpaceOnUse" id="color-75"><stop offset="0" stop-color="#000000"/><stop offset="1" stop-color="#000000"/></radialGradient><radialGradient cx="503.26775" cy="245.31947" r="227.75756" gradientUnits="userSpaceOnUse" id="color-76"><stop offset="0" stop-color="#000000"/><stop offset="1" stop-color="#000000"/></radialGradient><radialGradient cx="242.88874" cy="-7.74225" r="316.19203" gradientUnits="userSpaceOnUse" id="color-77"><stop offset="0" stop-color="#000000"/><stop offset="1" stop-color="#000000"/></radialGradient><radialGradient cx="242.88874" cy="-101.7891" r="316.19203" gradientUnits="userSpaceOnUse" id="color-78"><stop offset="0" stop-color="#000000"/><stop offset="1" stop-color="#000000"/></radialGradient></defs><g transform="translate(88.76084,148.81254)"><g data-paper-data="{&quot;isPaintingLayer&quot;:true}" stroke-linejoin="miter" stroke-miterlimit="10" stroke-dasharray="" stroke-dashoffset="0" style="mix-blend-mode: normal"><path d="M-71.63089,-109.41529l640.39171,22.83886l-17.12994,480.31609l-640.39171,-22.83886z" fill="#000000" fill-rule="nonzero" stroke="none" stroke-width="1.00207" stroke-linecap="butt"/><path d="M96.39771,-104.75865l304.17044,10.8479l-17.12994,480.31609l-304.17044,-10.8479z" fill="url(#color-1)" fill-rule="nonzero" stroke="none" stroke-width="1.00207" stroke-linecap="butt"/><g fill-rule="nonzero" stroke="none" stroke-width="0" stroke-linecap="butt"><path d="M138.53013,380.3428l17.12994,-480.31609l3.04026,0.10843l-17.12994,480.31609z" fill="url(#color-2)"/><path d="M320.94527,386.84842l17.12994,-480.31609l3.04026,0.10843l-17.12994,480.31609z" fill="url(#color-3)"/></g><g fill-rule="nonzero" stroke="none" stroke-width="0" stroke-linecap="butt"><path d="M4.57894,375.56557l17.12994,-480.31609l185.45538,6.61405l-17.12994,480.31609z" fill="url(#color-4)"/><path d="M272.74055,385.12926l17.12994,-480.31609l185.45538,6.61405l-17.12994,480.31609z" data-paper-data="{&quot;index&quot;:null}" fill="url(#color-5)"/></g><g fill-rule="nonzero" stroke="none" stroke-width="0" stroke-linecap="butt"><path d="M79.30222,378.2305l17.12994,-480.31609l124.35611,4.43502l-17.12994,480.31609z" fill="url(#color-6)"/><path d="M259.11656,384.64338l17.12994,-480.31609l124.35611,4.43502l-17.12994,480.31609z" data-paper-data="{&quot;index&quot;:null}" fill="url(#color-7)"/></g><g fill-rule="nonzero" stroke="none" stroke-width="0" stroke-linecap="butt"><path d="M79.30222,378.2305l17.12994,-480.31609l124.35611,4.43502l-17.12994,480.31609z" fill="url(#color-8)"/><path d="M259.11656,384.64338l17.12994,-480.31609l124.35611,4.43502l-17.12994,480.31609z" data-paper-data="{&quot;index&quot;:null}" fill="url(#color-9)"/></g><g fill-rule="nonzero" stroke="none" stroke-width="0" stroke-linecap="butt"><g><path d="M331.20014,117.05065l0.32917,-8.69808l2.69839,0.10212l-0.32917,8.69809z" data-paper-data="{&quot;index&quot;:null}" fill="#295962"/><path d="M148.67812,110.14321l0.32917,-8.69809l2.69837,0.10212l-0.32917,8.69809z" data-paper-data="{&quot;index&quot;:null}" fill="#295962"/><path d="M237.48874,123.35561l0.53903,-14.24344l6.77613,0.25644l-0.53903,14.24346z" fill="url(#color-10)"/><path d="M245.33861,95.2393l-0.53903,14.24344l-6.77615,-0.25644l0.53903,-14.24344z" fill="url(#color-11)"/></g><g><path d="M328.44912,188.7046l0.32917,-8.69809l2.69839,0.10213l-0.32917,8.69808z" data-paper-data="{&quot;index&quot;:null}" fill="#295962"/><path d="M145.92709,181.79715l0.32917,-8.69808l2.69839,0.10212l-0.32917,8.69809z" data-paper-data="{&quot;index&quot;:null}" fill="#295962"/><path d="M234.73773,195.00956l0.53903,-14.24344l6.77613,0.25644l-0.53903,14.24344z" fill="url(#color-12)"/><path d="M242.5876,166.89325l-0.53903,14.24344l-6.77615,-0.25644l0.53903,-14.24344z" fill="url(#color-13)"/></g><g><path d="M334.32214,45.678l0.32917,-8.69808l2.69837,0.10212l-0.32917,8.69809z" data-paper-data="{&quot;index&quot;:null}" fill="#295962"/><path d="M151.80013,38.77055l0.32916,-8.69809l2.69839,0.10213l-0.32917,8.69808z" data-paper-data="{&quot;index&quot;:null}" fill="#295962"/><path d="M240.61076,51.98296l0.53904,-14.24346l6.77612,0.25644l-0.53903,14.24344z" fill="url(#color-14)"/><path d="M248.46063,23.86664l-0.53903,14.24344l-6.77614,-0.25644l0.53903,-14.24344z" fill="url(#color-15)"/></g><g><path d="M337.01539,-25.48818l0.32917,-8.69808l2.69839,0.10212l-0.32917,8.69808z" data-paper-data="{&quot;index&quot;:null}" fill="#295962"/><path d="M154.49337,-32.39563l0.32917,-8.69809l2.69839,0.10213l-0.32917,8.69809z" data-paper-data="{&quot;index&quot;:null}" fill="#295962"/><path d="M243.304,-19.18322l0.53903,-14.24344l6.77613,0.25644l-0.53903,14.24346z" fill="url(#color-16)"/><path d="M251.15387,-47.29953l-0.53903,14.24344l-6.77614,-0.25644l0.53903,-14.24346z" fill="url(#color-17)"/></g><g><path d="M339.72547,-97.09913l0.32917,-8.69808l2.69837,0.10212l-0.32917,8.69809z" data-paper-data="{&quot;index&quot;:null}" fill="#295962"/><path d="M157.20344,-104.00657l0.32917,-8.69808l2.69837,0.10212l-0.32917,8.69808z" data-paper-data="{&quot;index&quot;:null}" fill="#295962"/><path d="M246.01408,-90.79417l0.53903,-14.24346l6.77612,0.25645l-0.53903,14.24344z" fill="url(#color-18)"/><path d="M253.86395,-118.91048l-0.53903,14.24344l-6.77615,-0.25645l0.53903,-14.24344z" fill="url(#color-19)"/></g><g><path d="M326.20033,260.28846l0.32917,-8.69809l2.69837,0.10213l-0.32917,8.69808z" data-paper-data="{&quot;index&quot;:null}" fill="#295962"/><path d="M143.67831,253.38103l0.32917,-8.69809l2.69839,0.10212l-0.32917,8.69809z" data-paper-data="{&quot;index&quot;:null}" fill="#295962"/><path d="M232.48894,266.59343l0.53903,-14.24344l6.77613,0.25644l-0.53903,14.24346z" fill="url(#color-20)"/><path d="M240.33882,238.47712l-0.53903,14.24344l-6.77615,-0.25644l0.53903,-14.24344z" fill="url(#color-21)"/></g><g><path d="M323.49868,331.67703l0.32917,-8.69809l2.69837,0.10213l-0.32917,8.69808z" data-paper-data="{&quot;index&quot;:null}" fill="#295962"/><path d="M140.97664,324.76957l0.32917,-8.69809l2.69839,0.10212l-0.32917,8.69809z" data-paper-data="{&quot;index&quot;:null}" fill="#295962"/><path d="M229.78728,337.98199l0.53903,-14.24344l6.77612,0.25644l-0.53903,14.24346z" fill="url(#color-22)"/><path d="M237.63715,309.86568l-0.53903,14.24344l-6.77614,-0.25644l0.53903,-14.24344z" fill="url(#color-23)"/></g><g><path d="M320.7936,403.15574l0.32917,-8.69809l2.69837,0.10212l-0.32917,8.69809z" data-paper-data="{&quot;index&quot;:null}" fill="#295962"/><path d="M138.27158,396.24829l0.32917,-8.69809l2.69839,0.10212l-0.32917,8.69809z" data-paper-data="{&quot;index&quot;:null}" fill="#295962"/><path d="M227.08221,409.4607l0.53903,-14.24344l6.77613,0.25644l-0.53904,14.24346z" fill="url(#color-24)"/><path d="M234.93208,381.3444l-0.53903,14.24344l-6.77615,-0.25644l0.53904,-14.24344z" fill="url(#color-25)"/></g></g><g stroke="none" stroke-linecap="butt"><path d="M224.0979,279.70008l-8.81637,-181.246l57.39748,2.31473l-23.38265,179.94749z" fill="url(#color-26)" fill-rule="nonzero" stroke-width="0"/><path d="M221.64951,277.25509c0.15729,-3.90049 3.78938,-6.9211 8.11252,-6.74675l14.62882,0.58995c4.32309,0.17434 7.70018,3.47764 7.54288,7.37811l-0.05603,1.38934l-0.47626,11.80929l-0.61632,15.2826l-0.38754,9.60953l-0.12139,3.01021c-0.15729,3.90043 -3.78944,6.92109 -8.11252,6.74675l-14.62882,-0.58995c-4.32313,-0.17434 -7.70018,-3.47766 -7.54288,-7.37811l0.12139,-3.01021l0.38754,-9.60953l0.61632,-15.2826l0.47626,-11.80929z" fill="url(#color-27)" fill-rule="evenodd" stroke-width="1"/><path d="M224.07356,278.86647c0.14573,-3.61367 3.19332,-6.42496 6.80697,-6.27922l12.22809,0.49313c3.61361,0.14573 6.42496,3.19332 6.27922,6.80697l-0.05191,1.28717l-0.44122,10.94093l-0.571,14.15884l-0.35904,8.90292l-0.11247,2.78886c-0.14573,3.61361 -3.19336,6.42496 -6.80697,6.27922l-12.22809,-0.49313c-3.61367,-0.14573 -6.42496,-3.19336 -6.27922,-6.80697l0.11247,-2.78886l0.35904,-8.90292l0.571,-14.15884l0.44122,-10.94093z" fill="url(#color-28)" fill-rule="evenodd" stroke-width="1"/><path d="M224.0736,278.8665c0.14573,-3.61367 3.1933,-6.42496 6.80697,-6.27922c0,0 -0.4874,3.33039 -2.53663,4.93268c-1.55687,1.21733 -4.27033,1.34654 -4.27033,1.34654z" fill="url(#color-29)" fill-rule="evenodd" stroke-width="1"/><path d="M245.23981,278.20126c-1.91356,-1.7621 -2.13119,-5.12092 -2.13119,-5.12092c3.61367,0.14573 6.42496,3.1933 6.27922,6.80697c0,0 -2.69422,-0.34731 -4.14804,-1.68605z" data-paper-data="{&quot;index&quot;:null}" fill="url(#color-30)" fill-rule="evenodd" stroke-width="1"/><path d="M224.0736,278.8665c0.14573,-3.61367 3.1933,-6.42496 6.80697,-6.27922c0,0 -0.4874,3.33039 -2.53663,4.93268c-1.55687,1.21733 -4.27033,1.34654 -4.27033,1.34654z" fill="url(#color-31)" fill-rule="evenodd" stroke-width="1"/><path d="M224.0736,278.8665c0.14573,-3.61367 3.1933,-6.42496 6.80697,-6.27922c0,0 -0.4874,3.33039 -2.53663,4.93268c-1.55687,1.21733 -4.27033,1.34654 -4.27033,1.34654z" fill="url(#color-32)" fill-rule="evenodd" stroke-width="1"/><path d="M245.23981,278.20126c-1.91356,-1.7621 -2.13119,-5.12092 -2.13119,-5.12092c3.61367,0.14573 6.42496,3.1933 6.27922,6.80697c0,0 -2.69422,-0.34731 -4.14804,-1.68605z" data-paper-data="{&quot;index&quot;:null}" fill="url(#color-33)" fill-rule="evenodd" stroke-width="1"/><path d="M236.73071,279.37681c4.02066,0.16214 7.16763,3.08065 7.02897,6.51864l-1.2846,31.85369l-14.56003,-0.58718l1.2846,-31.85369c0.13865,-3.438 3.51044,-6.0936 7.53105,-5.93145z" fill-opacity="0.34166" fill="#ffffff" fill-rule="evenodd" stroke-width="1"/><path d="M236.66156,281.09199c3.12831,0.12617 5.56202,2.76442 5.43585,5.8927l-1.16887,28.98423l-11.32856,-0.45686l1.16887,-28.98423c0.12617,-3.12829 2.76442,-5.56202 5.8927,-5.43585z" fill="#062832" fill-rule="evenodd" stroke-width="1"/><g fill-rule="nonzero" stroke-width="0"><g><path d="M224.20582,301.35868l0.48508,-12.02826l3.08116,0.12427l-0.48508,12.02826z" fill="url(#color-34)"/><path d="M227.28694,301.48294l-0.48508,12.02826l-3.08116,-0.12427l0.48508,-12.02826z" data-paper-data="{&quot;index&quot;:null}" fill="url(#color-35)"/></g><g><path d="M244.36371,302.17163l0.48508,-12.02826l3.08116,0.12427l-0.48508,12.02826z" fill="url(#color-36)"/><path d="M247.44486,302.29589l-0.48508,12.02826l-3.08116,-0.12427l0.48508,-12.02826z" data-paper-data="{&quot;index&quot;:null}" fill="url(#color-37)"/></g></g><path d="M213.09847,330.31093l9.33873,-231.56829l43.08627,1.73759l-9.33873,231.56829z" fill="none" fill-rule="nonzero" stroke-width="0"/></g><path d="M165.88716,101.1446c0,-9.74196 7.89742,-17.63938 17.63938,-17.63938c9.74196,0 17.63938,7.89742 17.63938,17.63938c0,9.74196 -7.89742,17.63938 -17.63938,17.63938c-9.74196,0 -17.63938,-7.89742 -17.63938,-17.63938z" fill="url(#color-38)" fill-rule="nonzero" stroke="none" stroke-width="0" stroke-linecap="butt"/><path d="M172.26487,101.1446c0,-6.21966 5.04204,-11.26167 11.26167,-11.26167c6.21966,0 11.26167,5.04204 11.26167,11.26167c0,6.21966 -5.04204,11.26167 -11.26167,11.26167c-6.21966,0 -11.26167,-5.04204 -11.26167,-11.26167z" fill="#ffa800" fill-rule="nonzero" stroke="none" stroke-width="0" stroke-linecap="butt"/><path d="M174.94029,101.1446c0,-4.74204 3.84419,-8.58625 8.58624,-8.58625c4.74204,0 8.58625,3.84419 8.58625,8.58625c0,4.74204 -3.84419,8.58624 -8.58625,8.58624c-4.74204,0 -8.58624,-3.84419 -8.58624,-8.58624z" fill="#ffe600" fill-rule="nonzero" stroke="none" stroke-width="0" stroke-linecap="butt"/><path d="M183.52653,105.06442v-7.83962" fill="none" fill-rule="nonzero" stroke="#ffa800" stroke-width="3" stroke-linecap="round"/><g stroke="none" stroke-linecap="butt"><path d="M277.38552,82.30963c0.16052,-3.81537 3.71874,-6.76411 7.94755,-6.58621l14.30965,0.60202c4.22876,0.17791 7.52679,3.4151 7.36628,7.23047l-0.05717,1.35901l-0.48598,11.55164l-0.62892,14.94917l-0.39546,9.39987l-0.12387,2.94455c-0.16052,3.81532 -3.71881,6.76412 -7.94755,6.58621l-14.30965,-0.60202c-4.22882,-0.17791 -7.5268,-3.41514 -7.36628,-7.23047l0.12387,-2.94455l0.39546,-9.39986l0.62892,-14.94917l0.48598,-11.55164z" fill="url(#color-39)" fill-rule="evenodd" stroke-width="1"/><path d="M279.75408,83.89013c0.14871,-3.53482 3.1348,-6.27979 6.66961,-6.13108l11.96131,0.50322c3.53476,0.14871 6.27978,3.13479 6.13107,6.6696l-0.05297,1.25909l-0.45025,10.70222l-0.58266,13.84992l-0.36638,8.70867l-0.11477,2.72801c-0.14871,3.53476 -3.13485,6.27978 -6.66961,6.13107l-11.96131,-0.50321c-3.53482,-0.14871 -6.27978,-3.13485 -6.13107,-6.66961l0.11477,-2.72801l0.36638,-8.70867l0.58266,-13.84992l0.45025,-10.70222z" fill="url(#color-40)" fill-rule="evenodd" stroke-width="1"/><path d="M279.75412,83.89015c0.14871,-3.53482 3.13479,-6.27979 6.66961,-6.13108c0,0 -0.48247,3.25713 -2.48985,4.82108c-1.52509,1.18819 -4.17975,1.31001 -4.17975,1.31001z" fill="url(#color-41)" fill-rule="evenodd" stroke-width="1"/><path d="M300.4611,83.27541c-1.86894,-1.72704 -2.07612,-5.01318 -2.07612,-5.01318c3.53482,0.14871 6.27978,3.13479 6.13107,6.66961c0,0 -2.63504,-0.34433 -4.05495,-1.65643z" data-paper-data="{&quot;index&quot;:null}" fill="url(#color-42)" fill-rule="evenodd" stroke-width="1"/><path d="M279.75412,83.89015c0.14871,-3.53482 3.13479,-6.27979 6.66961,-6.13108c0,0 -0.48247,3.25713 -2.48985,4.82108c-1.52509,1.18819 -4.17975,1.31001 -4.17975,1.31001z" fill="url(#color-43)" fill-rule="evenodd" stroke-width="1"/><path d="M279.75412,83.89015c0.14871,-3.53482 3.13479,-6.27979 6.66961,-6.13108c0,0 -0.48247,3.25713 -2.48985,4.82108c-1.52509,1.18819 -4.17975,1.31001 -4.17975,1.31001z" fill="url(#color-44)" fill-rule="evenodd" stroke-width="1"/><path d="M300.4611,83.27541c-1.86894,-1.72704 -2.07612,-5.01318 -2.07612,-5.01318c3.53482,0.14871 6.27978,3.13479 6.13107,6.66961c0,0 -2.63504,-0.34433 -4.05495,-1.65643z" data-paper-data="{&quot;index&quot;:null}" fill="url(#color-45)" fill-rule="evenodd" stroke-width="1"/><path d="M292.13509,84.411c3.93294,0.16546 7.00649,3.02584 6.865,6.38883l-1.31086,31.15871l-14.24236,-0.59919l1.31086,-31.1587c0.14148,-3.36299 3.44444,-5.95511 7.37736,-5.78965z" fill-opacity="0.34166" fill="#ffffff" fill-rule="evenodd" stroke-width="1"/><path d="M292.06451,86.08864c3.06007,0.12874 5.43634,2.71376 5.3076,5.7738l-1.19277,28.35185l-11.0814,-0.4662l1.19278,-28.35186c0.12874,-3.06004 2.71376,-5.43634 5.7738,-5.3076z" fill="#06332c" fill-rule="evenodd" stroke-width="1"/><g fill-rule="nonzero" stroke-width="0"><path d="M279.8452,105.89337l0.49499,-11.76582l3.01392,0.1268l-0.49499,11.76582z" fill="url(#color-46)"/><path d="M282.8591,106.02017l-0.49499,11.76582l-3.01392,-0.1268l0.49499,-11.76582z" data-paper-data="{&quot;index&quot;:null}" fill="url(#color-47)"/></g><g fill-rule="nonzero" stroke-width="0"><path d="M299.56329,106.72292l0.49499,-11.76582l3.01392,0.1268l-0.49499,11.76582z" fill="url(#color-48)"/><path d="M302.57721,106.84972l-0.49499,11.76582l-3.01392,-0.1268l0.49499,-11.76582z" data-paper-data="{&quot;index&quot;:null}" fill="url(#color-49)"/></g></g><g stroke="none" stroke-linecap="butt"><path d="M169.80294,202.14399c0.19787,-3.80361 3.77582,-6.70928 7.99159,-6.48996l14.26557,0.74211c4.21573,0.21931 7.47292,3.48054 7.27504,7.28415l-0.07048,1.35484l-0.59907,11.51605l-0.77528,14.90311l-0.48748,9.3709l-0.1527,2.93547c-0.19787,3.80357 -3.77589,6.70926 -7.99159,6.48996l-14.26557,-0.74211c-4.21577,-0.21931 -7.47292,-3.48056 -7.27504,-7.28415l0.1527,-2.93547l0.48749,-9.3709l0.77528,-14.90311l0.59907,-11.51605z" fill="url(#color-50)" fill-rule="evenodd" stroke-width="1"/><path d="M172.14955,203.74373c0.18332,-3.52393 3.18864,-6.23201 6.71254,-6.04869l11.92445,0.62032c3.52387,0.18332 6.23202,3.18864 6.04869,6.71254l-0.0653,1.2552l-0.55503,10.66925l-0.71827,13.80725l-0.45165,8.68184l-0.14148,2.71961c-0.18332,3.52387 -3.18867,6.23201 -6.71254,6.04869l-11.92444,-0.62032c-3.52393,-0.18332 -6.23201,-3.18867 -6.04869,-6.71254l0.14148,-2.71961l0.45163,-8.68184l0.71827,-13.80725l0.55502,-10.66925z" fill="url(#color-51)" fill-rule="evenodd" stroke-width="1"/><path d="M172.14959,203.74375c0.18332,-3.52393 3.18862,-6.23201 6.71254,-6.04869c0,0 -0.51343,3.24367 -2.53096,4.78358c-1.5328,1.16993 -4.18158,1.26511 -4.18158,1.26511z" fill="url(#color-52)" fill-rule="evenodd" stroke-width="1"/><path d="M192.80749,203.3357c-1.84686,-1.74094 -2.02095,-5.02037 -2.02095,-5.02037c3.52393,0.18332 6.23202,3.18862 6.04869,6.71254c0,0 -2.62461,-0.36951 -4.02775,-1.69217z" data-paper-data="{&quot;index&quot;:null}" fill="url(#color-53)" fill-rule="evenodd" stroke-width="1"/><path d="M172.14959,203.74375c0.18332,-3.52393 3.18862,-6.23201 6.71254,-6.04869c0,0 -0.51343,3.24367 -2.53096,4.78358c-1.5328,1.16993 -4.18158,1.26511 -4.18158,1.26511z" fill="url(#color-54)" fill-rule="evenodd" stroke-width="1"/><path d="M172.14959,203.74375c0.18332,-3.52393 3.18862,-6.23201 6.71254,-6.04869c0,0 -0.51343,3.24367 -2.53096,4.78358c-1.5328,1.16993 -4.18158,1.26511 -4.18158,1.26511z" fill="url(#color-55)" fill-rule="evenodd" stroke-width="1"/><path d="M192.80749,203.3357c-1.84686,-1.74094 -2.02095,-5.02037 -2.02095,-5.02037c3.52393,0.18332 6.23202,3.18862 6.04869,6.71254c0,0 -2.62461,-0.36951 -4.02775,-1.69217z" data-paper-data="{&quot;index&quot;:null}" fill="url(#color-56)" fill-rule="evenodd" stroke-width="1"/><path d="M184.49239,204.38583c3.92083,0.20397 6.95785,3.08716 6.78344,6.43978l-1.61593,31.0627l-14.19848,-0.73861l1.61593,-31.06271c0.17441,-3.35262 3.49425,-5.90512 7.41504,-5.70116z" fill-opacity="0.34166" fill="#ffffff" fill-rule="evenodd" stroke-width="1"/><path d="M184.40538,206.0583c3.05064,0.1587 5.39498,2.76035 5.23628,5.81098l-1.47036,28.2645l-11.04726,-0.5747l1.47036,-28.2645c0.1587,-3.05061 2.76035,-5.39498 5.81098,-5.23628z" fill="#333333" fill-rule="evenodd" stroke-width="1"/><g fill-rule="nonzero" stroke-width="0"><path d="M172.02251,225.68925l0.61019,-11.72957l3.00464,0.15631l-0.61019,11.72957z" fill="url(#color-57)"/><path d="M175.02715,225.84556l-0.61019,11.72957l-3.00464,-0.15631l0.61019,-11.72957z" data-paper-data="{&quot;index&quot;:null}" fill="url(#color-58)"/></g><g fill-rule="nonzero" stroke-width="0"><path d="M191.67985,226.71185l0.61019,-11.72957l3.00464,0.15631l-0.61019,11.72957z" fill="url(#color-59)"/><path d="M194.68449,226.86815l-0.61019,11.72957l-3.00464,-0.15631l0.61019,-11.72957z" data-paper-data="{&quot;index&quot;:null}" fill="url(#color-60)"/></g></g><g stroke="none" stroke-linecap="butt"><path d="M277.42377,248.28483c0.16412,-3.81041 3.72081,-6.7519 7.94413,-6.57001l14.29106,0.61554c4.22326,0.1819 7.51392,3.41831 7.34979,7.22872l-0.05846,1.35725l-0.4969,11.53663l-0.64304,14.92974l-0.40434,9.38765l-0.12666,2.94072c-0.16412,3.81037 -3.72088,6.7519 -7.94413,6.57001l-14.29106,-0.61554c-4.22331,-0.1819 -7.51391,-3.41835 -7.34979,-7.22872l0.12666,-2.94072l0.40434,-9.38765l0.64304,-14.92974l0.4969,-11.53663z" fill="url(#color-61)" fill-rule="evenodd" stroke-width="1"/><path d="M279.78782,249.8657c0.15205,-3.53022 3.13713,-6.26876 6.66733,-6.11671l11.94576,0.51451c3.53017,0.15205 6.26876,3.13713 6.11671,6.66733l-0.05416,1.25744l-0.46036,10.68831l-0.59575,13.83192l-0.3746,8.69736l-0.11735,2.72447c-0.15205,3.53017 -3.13717,6.26876 -6.66733,6.11671l-11.94576,-0.51451c-3.53022,-0.15205 -6.26876,-3.13717 -6.11671,-6.66733l0.11735,-2.72447l0.3746,-8.69736l0.59575,-13.83192l0.46036,-10.68831z" fill="url(#color-62)" fill-rule="evenodd" stroke-width="1"/><path d="M279.78785,249.86571c0.15205,-3.53022 3.13711,-6.26876 6.66733,-6.11671c0,0 -0.48511,3.25255 -2.49154,4.81254c-1.52437,1.18518 -4.1758,1.30418 -4.1758,1.30418z" fill="url(#color-63)" fill-rule="evenodd" stroke-width="1"/><path d="M300.46942,249.2724c-1.86486,-1.72672 -2.06851,-5.00894 -2.06851,-5.00894c3.53022,0.15205 6.26876,3.13711 6.11671,6.66733c0,0 -2.63139,-0.34653 -4.0482,-1.65839z" data-paper-data="{&quot;index&quot;:null}" fill="url(#color-64)" fill-rule="evenodd" stroke-width="1"/><path d="M279.78785,249.86571c0.15205,-3.53022 3.13711,-6.26876 6.66733,-6.11671c0,0 -0.48511,3.25255 -2.49154,4.81254c-1.52437,1.18518 -4.1758,1.30418 -4.1758,1.30418z" fill="url(#color-65)" fill-rule="evenodd" stroke-width="1"/><path d="M279.78785,249.86571c0.15205,-3.53022 3.13711,-6.26876 6.66733,-6.11671c0,0 -0.48511,3.25255 -2.49154,4.81254c-1.52437,1.18518 -4.1758,1.30418 -4.1758,1.30418z" fill="url(#color-66)" fill-rule="evenodd" stroke-width="1"/><path d="M300.46942,249.2724c-1.86486,-1.72672 -2.06851,-5.00894 -2.06851,-5.00894c3.53022,0.15205 6.26876,3.13711 6.11671,6.66733c0,0 -2.63139,-0.34653 -4.0482,-1.65839z" data-paper-data="{&quot;index&quot;:null}" fill="url(#color-67)" fill-rule="evenodd" stroke-width="1"/><path d="M292.15263,250.39826c3.92783,0.16917 6.99465,3.02902 6.85,6.38764l-1.3403,31.11821l-14.22385,-0.61264l1.3403,-31.11821c0.14466,-3.35861 3.44606,-5.94417 7.37385,-5.775z" fill-opacity="0.19657" fill="#ffffff" fill-rule="evenodd" stroke-width="1"/><path d="M292.08047,252.07373c3.05608,0.13162 5.42679,2.71577 5.29517,5.77183l-1.21957,28.31501l-11.06699,-0.47667l1.21957,-28.31501c0.13162,-3.05607 2.71577,-5.42679 5.77183,-5.29517z" fill="#0d0d0d" fill-rule="evenodd" stroke-width="1"/><g fill-rule="nonzero" stroke-width="0"><path d="M279.85677,271.84135l0.50611,-11.75053l3.01001,0.12964l-0.50611,11.75053z" fill="url(#color-68)"/><path d="M282.86685,271.971l-0.50611,11.75053l-3.01001,-0.12964l0.50611,-11.75053z" data-paper-data="{&quot;index&quot;:null}" fill="url(#color-69)"/></g><g fill-rule="nonzero" stroke-width="0"><path d="M299.54926,272.68953l0.50611,-11.75053l3.01001,0.12964l-0.50611,11.75053z" fill="url(#color-70)"/><path d="M302.55924,272.81917l-0.50611,11.75053l-3.01001,-0.12964l0.50611,-11.75053z" data-paper-data="{&quot;index&quot;:null}" fill="url(#color-71)"/></g></g><g fill-rule="nonzero" stroke-linecap="butt"><path d="M-6.27927,271.01199z" fill="#9966ff" stroke="#000000" stroke-width="2"/><path d="M19.04091,251.27716c0,-123.38781 100.02559,-223.41339 223.41339,-223.41339c123.38782,0 223.41339,100.02559 223.41339,223.41339c0,123.38782 -100.02557,223.41339 -223.41339,223.41339c-123.38781,0 -223.41339,-100.02559 -223.41339,-223.41339z" fill="url(#color-72)" stroke="none" stroke-width="0"/><path d="M-73.30327,474.69055v-458.74218h94.3301c0,0 -7.19993,132.47044 -1.39608,224.29762c1.24043,19.62588 0.31104,37.3952 3.25787,51.61791c30.40905,146.7691 209.76036,182.82664 209.76036,182.82664z" fill="url(#color-73)" stroke="none" stroke-width="0"/><path d="M253.12853,474.69055c0,0 179.35131,-36.05754 209.76036,-182.82664c2.94681,-14.22273 2.01743,-31.99206 3.25788,-51.61791c5.80383,-91.82718 -1.3961,-224.29762 -1.3961,-224.29762h94.3301v458.7422z" data-paper-data="{&quot;index&quot;:null}" fill="url(#color-74)" stroke="none" stroke-width="0"/><path d="M241.29695,15.94837c0,0 -179.35131,36.05755 -209.76036,182.82664c-2.94681,14.22271 -2.01743,31.99206 -3.25787,51.61792c-5.80383,91.82718 1.39608,224.29764 1.39608,224.29764h-94.3301v-458.74218z" data-paper-data="{&quot;index&quot;:null}" fill="url(#color-75)" stroke="none" stroke-width="0"/><path d="M550.43278,15.94838v458.7422h-94.3301c0,0 7.19994,-132.47044 1.39608,-224.29764c-1.24042,-19.62587 -0.31107,-37.39522 -3.25787,-51.61794c-30.40904,-146.76909 -209.76036,-182.82664 -209.76036,-182.82664z" data-paper-data="{&quot;index&quot;:null}" fill="url(#color-76)" stroke="none" stroke-width="0"/><path d="M-73.30327,39.28117v-94.04685h632.38404v94.04685z" fill="url(#color-77)" stroke="none" stroke-width="0"/><path d="M-73.30327,-54.76567v-94.04686h632.38404v94.04686z" fill="url(#color-78)" stroke="none" stroke-width="0"/></g></g></g></svg>