<svg version="1.1" xmlns="http://www.w3.org/2000/svg" xmlns:xlink="http://www.w3.org/1999/xlink" width="192.41667" height="36.65079" viewBox="0,0,192.41667,36.65079"><g transform="translate(-143.79166,-161.67464)"><g data-paper-data="{&quot;isPaintingLayer&quot;:true}" fill-rule="nonzero" stroke="none" stroke-linejoin="miter" stroke-miterlimit="10" stroke-dasharray="" stroke-dashoffset="0" style="mix-blend-mode: normal"><path d="M143.79166,198.32544v-36.65079h192.41667v36.65079z" fill="none" stroke-width="0" stroke-linecap="butt"/><path d="M199.08633,186.12245v-10.1589h-3.49854v-2.1024h9.38693v2.1024h-3.61351v10.15891z" fill="#60838a" stroke-width="1" stroke-linecap="square"/><path d="M208.28596,186.12245v-2.01207h2.01207v-8.23716h-2.01207v-2.01207h6.30722v2.01207h-2.02028v8.23718h2.02028v2.01207z" fill="#60838a" stroke-width="1" stroke-linecap="square"/><path d="M218.93784,186.12245v-12.26131h2.04493l7.11205,9.58402l-0.38599,0.0657c-0.0438,-0.3285 -0.08487,-0.66248 -0.12318,-1.00192c-0.03286,-0.34492 -0.0657,-0.70354 -0.09855,-1.07583c-0.02737,-0.37778 -0.04928,-0.76924 -0.0657,-1.17439c-0.01642,-0.41062 -0.03286,-0.84041 -0.04928,-1.28936c-0.01095,-0.44895 -0.01642,-0.92528 -0.01642,-1.42898v-3.67921h2.26665v12.26131h-2.08598l-7.1449,-9.44441l0.45169,-0.12318c0.06022,0.657 0.1095,1.21545 0.14783,1.67536c0.0438,0.4599 0.07664,0.85685 0.09855,1.19082c0.02191,0.33397 0.04107,0.6132 0.05749,0.83767c0.02191,0.219 0.03559,0.41884 0.04107,0.59952c0.00547,0.18067 0.00821,0.35315 0.00821,0.5174v4.74685z" fill="#60838a" stroke-width="1" stroke-linecap="square"/><path d="M237.6049,186.12245v-6.11013l0.12318,0.85411l-4.95215,-7.00529h2.66087l3.77776,5.42848l-0.82125,-0.04928l3.41641,-5.37921h2.56231l-4.74685,7.2024l0.2628,-1.19082v6.24974z" fill="#60838a" stroke-width="1" stroke-linecap="square"/><path d="M252.72391,186.29491c-0.88695,0 -1.69999,-0.15057 -2.43911,-0.45169c-0.73365,-0.30659 -1.36876,-0.74187 -1.90531,-1.30579c-0.53655,-0.56392 -0.9554,-1.23462 -1.25652,-2.01207c-0.29565,-0.77745 -0.44348,-1.62882 -0.44348,-2.55409c0,-0.88695 0.15604,-1.7082 0.46812,-2.46376c0.31755,-0.76103 0.75556,-1.42624 1.31401,-1.99564c0.56392,-0.57487 1.21819,-1.01836 1.9628,-1.33043c0.75008,-0.31755 1.56312,-0.47633 2.43913,-0.47633c0.59678,0 1.1744,0.08761 1.73285,0.2628c0.56392,0.1752 1.07858,0.41884 1.54395,0.73092c0.46538,0.30659 0.85683,0.66248 1.17437,1.06762l-1.4536,1.60144c-0.30659,-0.31755 -0.62141,-0.58308 -0.94444,-0.79661c-0.31755,-0.219 -0.64879,-0.38325 -0.99371,-0.49275c-0.34492,-0.11497 -0.69807,-0.17246 -1.05941,-0.17246c-0.53655,0 -1.04299,0.10129 -1.51932,0.30387c-0.47084,0.19711 -0.87874,0.47633 -1.22366,0.83767c-0.34492,0.36136 -0.61594,0.79115 -0.81304,1.28937c-0.19711,0.49823 -0.29565,1.04846 -0.29565,1.65072c0,0.62415 0.09582,1.18808 0.28744,1.69178c0.19162,0.49823 0.46538,0.92802 0.82125,1.28937c0.35587,0.36136 0.78292,0.64058 1.28115,0.83767c0.49823,0.19162 1.04299,0.28744 1.6343,0.28744c0.38873,0 0.76377,-0.05201 1.12512,-0.15604c0.36136,-0.1095 0.69533,-0.26007 1.00192,-0.45169c0.31208,-0.19162 0.59678,-0.41611 0.85411,-0.67342l1.1251,1.80676c-0.2847,0.31208 -0.65973,0.59678 -1.1251,0.85411c-0.46538,0.25733 -0.98824,0.4599 -1.56858,0.60773c-0.57487,0.14234 -1.14975,0.21353 -1.72463,0.21353z" fill="#60838a" stroke-width="1" stroke-linecap="square"/><path d="M259.57181,186.12245l4.77969,-12.26131h2.14347l4.74685,12.26131h-2.36521l-2.62801,-6.97244c-0.06022,-0.14234 -0.13961,-0.36409 -0.23816,-0.66521c-0.09855,-0.30113 -0.20805,-0.62963 -0.3285,-0.9855c-0.11497,-0.36136 -0.219,-0.69533 -0.31208,-1.00192c-0.09308,-0.31208 -0.16151,-0.53655 -0.20532,-0.67342l0.43526,-0.01642c-0.07117,0.22995 -0.1533,0.49275 -0.24637,0.7884c-0.09308,0.29017 -0.19162,0.59404 -0.29565,0.9116c-0.10403,0.31208 -0.20805,0.61594 -0.31208,0.9116c-0.09855,0.29017 -0.18888,0.55024 -0.27101,0.78019l-2.62801,6.92317zM261.74812,183.32199l0.7884,-1.97922h5.58452l0.83767,1.97922z" fill="#60838a" stroke-width="1" stroke-linecap="square"/><path d="M274.60644,186.12245v-12.26131h5.32172c0.73365,0 1.40435,0.17246 2.01207,0.5174c0.60773,0.34492 1.08953,0.81304 1.4454,1.40435c0.35587,0.58583 0.53382,1.24831 0.53382,1.98743c0,0.70081 -0.17793,1.34686 -0.53382,1.93815c-0.35587,0.58583 -0.83494,1.0512 -1.43719,1.39612c-0.60225,0.34492 -1.27568,0.5174 -2.02028,0.5174h-3.10434v4.50047zM281.71029,186.12245l-3.11255,-5.53525l2.34879,-0.43526l3.46568,5.98694zM276.82384,179.64277h3.12076c0.33945,0 0.63509,-0.07938 0.88695,-0.23816c0.25186,-0.15878 0.44621,-0.37778 0.58309,-0.657c0.14234,-0.27922 0.21353,-0.58857 0.21353,-0.92802c0,-0.38325 -0.08761,-0.71449 -0.2628,-0.99371c-0.1752,-0.2847 -0.42158,-0.50917 -0.73912,-0.67342c-0.31208,-0.16425 -0.67342,-0.24637 -1.08406,-0.24637h-2.71834z" fill="#60838a" stroke-width="1" stroke-linecap="square"/></g></g></svg>