<svg version="1.1" xmlns="http://www.w3.org/2000/svg" xmlns:xlink="http://www.w3.org/1999/xlink" width="142.50849" height="104.83383" viewBox="0,0,142.50849,104.83383"><g transform="translate(-168.74575,-127.58308)"><g data-paper-data="{&quot;isPaintingLayer&quot;:true}" fill-rule="nonzero" stroke="none" stroke-linejoin="miter" stroke-miterlimit="10" stroke-dasharray="" stroke-dashoffset="0" style="mix-blend-mode: normal"><path d="M183.76777,176.83646c-0.62926,0 -1.21011,-0.10798 -1.74255,-0.32394c-0.53244,-0.21968 -0.99601,-0.52314 -1.39069,-0.91037c-0.39096,-0.39096 -0.69441,-0.84522 -0.91037,-1.36276c-0.21223,-0.52127 -0.31836,-1.0891 -0.31836,-1.70346c0,-0.60319 0.10798,-1.16356 0.32394,-1.68112c0.21968,-0.52127 0.52873,-0.97367 0.92713,-1.35718c0.39841,-0.38723 0.86569,-0.68696 1.40186,-0.89921c0.53617,-0.21595 1.1133,-0.32394 1.73139,-0.32394c0.43564,0 0.85638,0.05957 1.26223,0.17872c0.40585,0.11915 0.77075,0.2867 1.09468,0.50266c0.32766,0.21223 0.5976,0.45239 0.80984,0.72048l-0.97181,1.02766c-0.2234,-0.21595 -0.45239,-0.39468 -0.68696,-0.53617c-0.23457,-0.14521 -0.48032,-0.25691 -0.73723,-0.33511c-0.2532,-0.07819 -0.51383,-0.11728 -0.78192,-0.11728c-0.39841,0 -0.76702,0.07261 -1.10585,0.21782c-0.33511,0.14148 -0.62739,0.33883 -0.87686,0.59202c-0.24947,0.2532 -0.44681,0.55106 -0.59202,0.89362c-0.14148,0.34255 -0.21223,0.7149 -0.21223,1.11702c0,0.39096 0.07261,0.76144 0.21782,1.11143c0.14894,0.35 0.35373,0.65532 0.61436,0.91596c0.26437,0.26064 0.56782,0.46543 0.91037,0.61436c0.34628,0.14521 0.7149,0.21782 1.10585,0.21782c0.29415,0 0.56782,-0.04282 0.82101,-0.12846c0.2532,-0.08936 0.47846,-0.21037 0.67579,-0.36303c0.20106,-0.15638 0.35373,-0.33697 0.45798,-0.54175c0.10798,-0.20851 0.16196,-0.43191 0.16196,-0.67021v-0.2625l0.21782,0.25133h-2.46861v-1.37953h3.77553c0.01862,0.08564 0.03165,0.18244 0.0391,0.29043c0.00745,0.10798 0.01304,0.21223 0.01675,0.31277c0.00373,0.0968 0.00558,0.18058 0.00558,0.25133c0,0.54734 -0.09495,1.04627 -0.28484,1.49681c-0.18989,0.44681 -0.45798,0.83405 -0.80426,1.1617c-0.34628,0.32394 -0.74841,0.57527 -1.20639,0.754c-0.45426,0.17872 -0.9476,0.26809 -1.48006,0.26809z" fill="#dcf9ff" stroke-width="1" stroke-linecap="square"/><path d="M190.14263,176.71917v-8.33857h1.54707v6.90878h3.84814v1.42979z" fill="#dcf9ff" stroke-width="1" stroke-linecap="square"/><path d="M197.35819,176.71917l3.25053,-8.33857h1.45771l3.22819,8.33857h-1.6085l-1.78723,-4.74175c-0.04096,-0.0968 -0.09495,-0.2476 -0.16196,-0.45239c-0.06702,-0.20479 -0.14148,-0.4282 -0.2234,-0.67021c-0.07819,-0.24575 -0.14894,-0.47287 -0.21223,-0.68138c-0.0633,-0.21223 -0.10984,-0.3649 -0.13963,-0.45798l0.29601,-0.01117c-0.04841,0.15638 -0.10426,0.33511 -0.16755,0.53617c-0.0633,0.19734 -0.13032,0.40399 -0.20106,0.61995c-0.07074,0.21223 -0.14148,0.41889 -0.21223,0.61995c-0.06702,0.19734 -0.12846,0.37421 -0.18431,0.53058l-1.78723,4.70825h-1.54707zM198.83824,174.81466l0.53617,-1.34601h3.79787l0.56968,1.34601z" fill="#dcf9ff" stroke-width="1" stroke-linecap="square"/><path d="M210.22457,176.83646c-0.48405,0 -0.92899,-0.06143 -1.33484,-0.18431c-0.40585,-0.12288 -0.77261,-0.30718 -1.10027,-0.55292c-0.32394,-0.24575 -0.61249,-0.54362 -0.86569,-0.89362l1.0109,-1.14495c0.39096,0.53989 0.77261,0.9141 1.14495,1.1226c0.37606,0.20479 0.79681,0.30718 1.26223,0.30718c0.27181,0 0.51755,-0.04096 0.73723,-0.12288c0.2234,-0.08191 0.39841,-0.19548 0.525,-0.34069c0.13032,-0.14894 0.19548,-0.32022 0.19548,-0.51383c0,-0.13404 -0.02606,-0.25878 -0.07819,-0.37421c-0.05212,-0.11542 -0.13032,-0.21782 -0.23457,-0.30718c-0.10426,-0.09309 -0.23271,-0.17872 -0.38537,-0.25691c-0.14894,-0.07819 -0.31836,-0.14521 -0.50825,-0.20106c-0.18989,-0.05585 -0.40027,-0.10798 -0.63111,-0.15638c-0.43564,-0.08936 -0.81729,-0.20664 -1.14495,-0.35186c-0.32394,-0.14521 -0.5976,-0.32766 -0.82101,-0.54734c-0.2234,-0.21968 -0.38723,-0.46543 -0.49149,-0.73723c-0.10053,-0.27553 -0.15079,-0.5883 -0.15079,-0.9383c0,-0.35 0.07633,-0.67207 0.22899,-0.96622c0.15638,-0.29415 0.36862,-0.54734 0.6367,-0.75958c0.27181,-0.21595 0.58643,-0.38352 0.94389,-0.50266c0.35744,-0.11915 0.74282,-0.17872 1.15611,-0.17872c0.46915,0 0.88803,0.05585 1.25665,0.16755c0.36862,0.1117 0.69441,0.27739 0.97739,0.49707c0.28298,0.21595 0.51569,0.48032 0.69814,0.79308l-1.02766,1.0109c-0.15638,-0.24575 -0.33511,-0.45053 -0.53617,-0.61436c-0.19734,-0.16383 -0.41144,-0.2867 -0.64228,-0.36862c-0.23085,-0.08564 -0.47287,-0.12846 -0.72607,-0.12846c-0.2867,0 -0.53617,0.04096 -0.74841,0.12288c-0.20851,0.07819 -0.37234,0.19175 -0.49149,0.34069c-0.11915,0.14521 -0.17872,0.32207 -0.17872,0.53058c0,0.15638 0.03537,0.29601 0.10611,0.41889c0.07447,0.12288 0.17686,0.23271 0.30718,0.32952c0.13032,0.09309 0.29787,0.17686 0.50266,0.25133c0.20851,0.07074 0.44309,0.13404 0.70372,0.18989c0.43936,0.08564 0.83218,0.20293 1.17846,0.35186c0.35,0.14521 0.64787,0.32022 0.89362,0.525c0.24947,0.20106 0.4375,0.43191 0.5641,0.69255c0.12659,0.25691 0.18989,0.54362 0.18989,0.86011c0,0.54734 -0.13032,1.01835 -0.39096,1.41303c-0.25691,0.39096 -0.61995,0.69255 -1.0891,0.90479c-0.46543,0.20851 -1.01276,0.31277 -1.64202,0.31277z" fill="#dcf9ff" stroke-width="1" stroke-linecap="square"/><path d="M218.67067,176.83646c-0.48405,0 -0.92899,-0.06143 -1.33484,-0.18431c-0.40585,-0.12288 -0.77261,-0.30718 -1.10027,-0.55292c-0.32394,-0.24575 -0.61249,-0.54362 -0.86569,-0.89362l1.0109,-1.14495c0.39096,0.53989 0.77261,0.9141 1.14495,1.1226c0.37606,0.20479 0.79681,0.30718 1.26223,0.30718c0.27181,0 0.51755,-0.04096 0.73723,-0.12288c0.2234,-0.08191 0.39841,-0.19548 0.525,-0.34069c0.13032,-0.14894 0.19548,-0.32022 0.19548,-0.51383c0,-0.13404 -0.02606,-0.25878 -0.07819,-0.37421c-0.05212,-0.11542 -0.13032,-0.21782 -0.23457,-0.30718c-0.10426,-0.09309 -0.23271,-0.17872 -0.38537,-0.25691c-0.14894,-0.07819 -0.31836,-0.14521 -0.50825,-0.20106c-0.18989,-0.05585 -0.40027,-0.10798 -0.63111,-0.15638c-0.43564,-0.08936 -0.81729,-0.20664 -1.14495,-0.35186c-0.32394,-0.14521 -0.5976,-0.32766 -0.82101,-0.54734c-0.2234,-0.21968 -0.38723,-0.46543 -0.49149,-0.73723c-0.10053,-0.27553 -0.15079,-0.5883 -0.15079,-0.9383c0,-0.35 0.07633,-0.67207 0.22899,-0.96622c0.15638,-0.29415 0.36862,-0.54734 0.6367,-0.75958c0.27181,-0.21595 0.58643,-0.38352 0.94389,-0.50266c0.35744,-0.11915 0.74282,-0.17872 1.15611,-0.17872c0.46915,0 0.88803,0.05585 1.25665,0.16755c0.36862,0.1117 0.69441,0.27739 0.97739,0.49707c0.28298,0.21595 0.51569,0.48032 0.69814,0.79308l-1.02766,1.0109c-0.15638,-0.24575 -0.33511,-0.45053 -0.53617,-0.61436c-0.19734,-0.16383 -0.41144,-0.2867 -0.64228,-0.36862c-0.23085,-0.08564 -0.47287,-0.12846 -0.72607,-0.12846c-0.2867,0 -0.53617,0.04096 -0.74841,0.12288c-0.20851,0.07819 -0.37234,0.19175 -0.49149,0.34069c-0.11915,0.14521 -0.17872,0.32207 -0.17872,0.53058c0,0.15638 0.03537,0.29601 0.10611,0.41889c0.07447,0.12288 0.17686,0.23271 0.30718,0.32952c0.13032,0.09309 0.29787,0.17686 0.50266,0.25133c0.20851,0.07074 0.44309,0.13404 0.70372,0.18989c0.43936,0.08564 0.83218,0.20293 1.17846,0.35186c0.35,0.14521 0.64787,0.32022 0.89362,0.525c0.24947,0.20106 0.4375,0.43191 0.5641,0.69255c0.12659,0.25691 0.18989,0.54362 0.18989,0.86011c0,0.54734 -0.13032,1.01835 -0.39096,1.41303c-0.25691,0.39096 -0.61995,0.69255 -1.0891,0.90479c-0.46543,0.20851 -1.01276,0.31277 -1.64202,0.31277z" fill="#dcf9ff" stroke-width="1" stroke-linecap="square"/><path d="M228.02135,176.71917l3.25053,-8.33857h1.45771l3.22819,8.33857h-1.6085l-1.78723,-4.74175c-0.04096,-0.0968 -0.09495,-0.2476 -0.16196,-0.45239c-0.06702,-0.20479 -0.14148,-0.4282 -0.2234,-0.67021c-0.07819,-0.24575 -0.14894,-0.47287 -0.21223,-0.68138c-0.0633,-0.21223 -0.10984,-0.3649 -0.13963,-0.45798l0.29601,-0.01117c-0.04841,0.15638 -0.10426,0.33511 -0.16755,0.53617c-0.0633,0.19734 -0.13032,0.40399 -0.20106,0.61995c-0.07074,0.21223 -0.14148,0.41889 -0.21223,0.61995c-0.06702,0.19734 -0.12846,0.37421 -0.18431,0.53058l-1.78723,4.70825zM229.5014,174.81466l0.53617,-1.34601h3.79787l0.56968,1.34601z" fill="#dcf9ff" stroke-width="1" stroke-linecap="square"/><path d="M238.24598,176.71917v-8.33857h1.39069l4.8367,6.51782l-0.2625,0.04468c-0.02979,-0.2234 -0.05771,-0.45053 -0.08378,-0.68138c-0.02234,-0.23457 -0.04468,-0.47846 -0.06702,-0.73165c-0.01862,-0.25691 -0.03351,-0.52314 -0.04468,-0.79868c-0.01117,-0.27926 -0.02234,-0.57154 -0.03351,-0.87686c-0.00745,-0.30532 -0.01117,-0.62926 -0.01117,-0.97181v-2.50213h1.54149v8.33857h-1.41861l-4.85904,-6.42287l0.30718,-0.08378c0.04096,0.44681 0.07447,0.8266 0.10053,1.13936c0.02979,0.31277 0.05212,0.58271 0.06702,0.80984c0.01489,0.22712 0.02793,0.41702 0.0391,0.56968c0.01489,0.14894 0.0242,0.28484 0.02793,0.40771c0.00373,0.12288 0.00558,0.24016 0.00558,0.35186v3.22819z" fill="#dcf9ff" stroke-width="1" stroke-linecap="square"/><path d="M248.47787,176.71917v-1.36835h1.36835v-5.60186h-1.36835v-1.36835h4.28936v1.36835h-1.37394v5.60186h1.37394v1.36835z" fill="#dcf9ff" stroke-width="1" stroke-linecap="square"/><path d="M255.72192,176.71917v-8.33857h1.46329l3.03829,4.94282l-0.86011,-0.01117l3.07739,-4.93164h1.39069v8.33857h-1.5359v-3.13325c0,-0.7149 0.01675,-1.35718 0.05026,-1.92686c0.03723,-0.57341 0.10053,-1.14308 0.18989,-1.70904l0.18989,0.51383l-2.5859,3.99335h-0.7875l-2.50213,-3.95425l0.16755,-0.55292c0.08564,0.53244 0.14707,1.07979 0.18431,1.64202c0.03723,0.55851 0.05585,1.22314 0.05585,1.99388v3.13325z" fill="#dcf9ff" stroke-width="1" stroke-linecap="square"/><path d="M266.11825,176.71917l3.25053,-8.33857h1.45771l3.22819,8.33857h-1.6085l-1.78723,-4.74175c-0.04096,-0.0968 -0.09495,-0.2476 -0.16196,-0.45239c-0.06702,-0.20479 -0.14148,-0.4282 -0.2234,-0.67021c-0.07819,-0.24575 -0.14894,-0.47287 -0.21223,-0.68138c-0.0633,-0.21223 -0.10984,-0.3649 -0.13963,-0.45798l0.29601,-0.01117c-0.04841,0.15638 -0.10426,0.33511 -0.16755,0.53617c-0.0633,0.19734 -0.13032,0.40399 -0.20106,0.61995c-0.07074,0.21223 -0.14148,0.41889 -0.21223,0.61995c-0.06702,0.19734 -0.12846,0.37421 -0.18431,0.53058l-1.78723,4.70825zM267.5983,174.81466l0.53617,-1.34601h3.79787l0.56968,1.34601z" fill="#dcf9ff" stroke-width="1" stroke-linecap="square"/><path d="M276.34286,176.71917v-8.33857h1.54707v6.90878h3.84814v1.42979z" fill="#dcf9ff" stroke-width="1" stroke-linecap="square"/><path d="M287.13287,176.83646c-0.48405,0 -0.92899,-0.06143 -1.33484,-0.18431c-0.40585,-0.12288 -0.77261,-0.30718 -1.10027,-0.55292c-0.32394,-0.24575 -0.61249,-0.54362 -0.86569,-0.89362l1.0109,-1.14495c0.39096,0.53989 0.77261,0.9141 1.14495,1.1226c0.37606,0.20479 0.79681,0.30718 1.26223,0.30718c0.27181,0 0.51755,-0.04096 0.73723,-0.12288c0.2234,-0.08191 0.39841,-0.19548 0.525,-0.34069c0.13032,-0.14894 0.19548,-0.32022 0.19548,-0.51383c0,-0.13404 -0.02606,-0.25878 -0.07819,-0.37421c-0.05212,-0.11542 -0.13032,-0.21782 -0.23457,-0.30718c-0.10426,-0.09309 -0.23271,-0.17872 -0.38537,-0.25691c-0.14894,-0.07819 -0.31836,-0.14521 -0.50825,-0.20106c-0.18989,-0.05585 -0.40027,-0.10798 -0.63111,-0.15638c-0.43564,-0.08936 -0.81729,-0.20664 -1.14495,-0.35186c-0.32394,-0.14521 -0.5976,-0.32766 -0.82101,-0.54734c-0.2234,-0.21968 -0.38723,-0.46543 -0.49149,-0.73723c-0.10053,-0.27553 -0.15079,-0.5883 -0.15079,-0.9383c0,-0.35 0.07633,-0.67207 0.22899,-0.96622c0.15638,-0.29415 0.36862,-0.54734 0.6367,-0.75958c0.27181,-0.21595 0.58643,-0.38352 0.94389,-0.50266c0.35744,-0.11915 0.74282,-0.17872 1.15611,-0.17872c0.46915,0 0.88803,0.05585 1.25665,0.16755c0.36862,0.1117 0.69441,0.27739 0.97739,0.49707c0.28298,0.21595 0.51569,0.48032 0.69814,0.79308l-1.02766,1.0109c-0.15638,-0.24575 -0.33511,-0.45053 -0.53617,-0.61436c-0.19734,-0.16383 -0.41144,-0.2867 -0.64228,-0.36862c-0.23085,-0.08564 -0.47287,-0.12846 -0.72607,-0.12846c-0.2867,0 -0.53617,0.04096 -0.74841,0.12288c-0.20851,0.07819 -0.37234,0.19175 -0.49149,0.34069c-0.11915,0.14521 -0.17872,0.32207 -0.17872,0.53058c0,0.15638 0.03537,0.29601 0.10611,0.41889c0.07447,0.12288 0.17686,0.23271 0.30718,0.32952c0.13032,0.09309 0.29787,0.17686 0.50266,0.25133c0.20851,0.07074 0.44309,0.13404 0.70372,0.18989c0.43936,0.08564 0.83218,0.20293 1.17846,0.35186c0.35,0.14521 0.64787,0.32022 0.89362,0.525c0.24947,0.20106 0.4375,0.43191 0.5641,0.69255c0.12659,0.25691 0.18989,0.54362 0.18989,0.86011c0,0.54734 -0.13032,1.01835 -0.39096,1.41303c-0.25691,0.39096 -0.61995,0.69255 -1.0891,0.90479c-0.46543,0.20851 -1.01276,0.31277 -1.64202,0.31277z" fill="#dcf9ff" stroke-width="1" stroke-linecap="square"/><path d="M296.91361,174.01598v-1.40745h3.68058v1.40745z" fill="#dcf9ff" stroke-width="1" stroke-linecap="square"/><path d="M202.69241,191.64731v-8.33857h1.55266v8.33857zM197.34746,191.64731v-8.33857h1.54707v8.33857zM197.98974,188.21804v-1.45771h5.45664v1.45771z" fill="#dcf9ff" stroke-width="1" stroke-linecap="square"/><path d="M207.47328,191.64731v-8.33857h5.45106v1.40745h-3.92633v5.52368h3.9766v1.40745zM208.18258,188.07283v-1.37953h4.13857v1.37953z" fill="#dcf9ff" stroke-width="1" stroke-linecap="square"/><path d="M214.96281,191.64731l3.25053,-8.33857h1.45771l3.22819,8.33857h-1.6085l-1.78723,-4.74175c-0.04096,-0.0968 -0.09495,-0.2476 -0.16196,-0.45239c-0.06702,-0.20479 -0.14148,-0.4282 -0.2234,-0.67021c-0.07819,-0.24575 -0.14894,-0.47287 -0.21223,-0.68138c-0.0633,-0.21223 -0.10984,-0.3649 -0.13963,-0.45798l0.29601,-0.01117c-0.04841,0.15638 -0.10426,0.33511 -0.16755,0.53617c-0.0633,0.19734 -0.13032,0.40399 -0.20106,0.61995c-0.07074,0.21223 -0.14148,0.41889 -0.21223,0.61995c-0.06702,0.19734 -0.12846,0.37421 -0.18431,0.53058l-1.78723,4.70825zM216.44286,189.74279l0.53617,-1.34601h3.79787l0.56968,1.34601z" fill="#dcf9ff" stroke-width="1" stroke-linecap="square"/><path d="M226.85181,191.64731v-6.90878h-2.37925v-1.42979h6.38378v1.42979h-2.45745v6.90878z" fill="#dcf9ff" stroke-width="1" stroke-linecap="square"/><path d="M238.53749,191.64731l-2.59707,-8.33857h1.61968l1.48006,4.92048c0.04841,0.14894 0.09122,0.31463 0.12846,0.49707c0.04096,0.18244 0.07633,0.36303 0.10611,0.54175c0.03351,0.17872 0.06143,0.34442 0.08378,0.49707c0.02606,0.15266 0.05026,0.27926 0.07261,0.37979l-0.31836,-0.01117c0.09309,-0.37234 0.16755,-0.67394 0.2234,-0.90479c0.05585,-0.23085 0.10611,-0.4226 0.15079,-0.57527c0.04468,-0.15638 0.08936,-0.3016 0.13404,-0.43564l1.40745,-3.59682h1.32367l1.36835,3.59682c0.07819,0.21968 0.14894,0.43191 0.21223,0.6367c0.06702,0.20106 0.12101,0.40027 0.16196,0.5976c0.04468,0.19362 0.0875,0.39282 0.12846,0.5976l-0.28484,0.06143c0.02979,-0.18989 0.05212,-0.34442 0.06702,-0.46357c0.01862,-0.11915 0.03537,-0.22712 0.05026,-0.32394c0.01489,-0.0968 0.02979,-0.18989 0.04468,-0.27926c0.01862,-0.09309 0.04468,-0.20479 0.07819,-0.33511c0.03723,-0.13032 0.08378,-0.29787 0.13963,-0.50266l1.46329,-4.89814h1.6085l-2.60824,8.33857h-1.1226l-2.11675,-5.07686l0.13963,0.05026l-2.01064,5.0266z" fill="#dcf9ff" stroke-width="1" stroke-linecap="square"/><path d="M248.75933,191.64731l3.25053,-8.33857h1.45771l3.22819,8.33857h-1.6085l-1.78723,-4.74175c-0.04096,-0.0968 -0.09495,-0.2476 -0.16196,-0.45239c-0.06702,-0.20479 -0.14148,-0.4282 -0.2234,-0.67021c-0.07819,-0.24575 -0.14894,-0.47287 -0.21223,-0.68138c-0.0633,-0.21223 -0.10984,-0.3649 -0.13963,-0.45798l0.29601,-0.01117c-0.04841,0.15638 -0.10426,0.33511 -0.16755,0.53617c-0.0633,0.19734 -0.13032,0.40399 -0.20106,0.61995c-0.07074,0.21223 -0.14148,0.41889 -0.21223,0.61995c-0.06702,0.19734 -0.12846,0.37421 -0.18431,0.53058l-1.78723,4.70825zM250.23939,189.74279l0.53617,-1.34601h3.79787l0.56968,1.34601z" fill="#dcf9ff" stroke-width="1" stroke-linecap="square"/><path d="M261.39673,191.64731l-3.33431,-8.33857h1.69229l1.85985,4.77526c0.09309,0.24575 0.175,0.46728 0.24575,0.66463c0.07447,0.19362 0.13963,0.37048 0.19548,0.53058c0.05585,0.15638 0.10426,0.31091 0.14521,0.46357c0.04468,0.14894 0.09495,0.30718 0.15079,0.47474h-0.33511c0.05585,-0.21595 0.11542,-0.4282 0.17872,-0.6367c0.0633,-0.21223 0.1359,-0.4375 0.21782,-0.67579c0.08564,-0.2383 0.18803,-0.51196 0.30718,-0.82101l1.74255,-4.77526h1.70346l-3.36224,8.33857z" fill="#dcf9ff" stroke-width="1" stroke-linecap="square"/><path d="M268.46646,191.64731v-8.33857h5.45106v1.40745h-3.92633v5.52368h3.9766v1.40745zM269.17577,188.07283v-1.37953h4.13857v1.37953z" fill="#dcf9ff" stroke-width="1" stroke-linecap="square"/><path d="M279.53047,191.76459c-0.48405,0 -0.92899,-0.06143 -1.33484,-0.18431c-0.40585,-0.12288 -0.77261,-0.30718 -1.10027,-0.55292c-0.32394,-0.24575 -0.61249,-0.54362 -0.86569,-0.89362l1.0109,-1.14495c0.39096,0.53989 0.77261,0.9141 1.14495,1.1226c0.37606,0.20479 0.79681,0.30718 1.26223,0.30718c0.27181,0 0.51755,-0.04096 0.73723,-0.12288c0.2234,-0.08191 0.39841,-0.19548 0.525,-0.34069c0.13032,-0.14894 0.19548,-0.32022 0.19548,-0.51383c0,-0.13404 -0.02606,-0.25878 -0.07819,-0.37421c-0.05212,-0.11542 -0.13032,-0.21782 -0.23457,-0.30718c-0.10426,-0.09309 -0.23271,-0.17872 -0.38537,-0.25691c-0.14894,-0.07819 -0.31836,-0.14521 -0.50825,-0.20106c-0.18989,-0.05585 -0.40027,-0.10798 -0.63111,-0.15638c-0.43564,-0.08936 -0.81729,-0.20664 -1.14495,-0.35186c-0.32394,-0.14521 -0.5976,-0.32766 -0.82101,-0.54734c-0.2234,-0.21968 -0.38723,-0.46543 -0.49149,-0.73723c-0.10053,-0.27553 -0.15079,-0.5883 -0.15079,-0.9383c0,-0.35 0.07633,-0.67207 0.22899,-0.96622c0.15638,-0.29415 0.36862,-0.54734 0.6367,-0.75958c0.27181,-0.21595 0.58643,-0.38352 0.94389,-0.50266c0.35744,-0.11915 0.74282,-0.17872 1.15611,-0.17872c0.46915,0 0.88803,0.05585 1.25665,0.16755c0.36862,0.1117 0.69441,0.27739 0.97739,0.49707c0.28298,0.21595 0.51569,0.48032 0.69814,0.79308l-1.02766,1.0109c-0.15638,-0.24575 -0.33511,-0.45053 -0.53617,-0.61436c-0.19734,-0.16383 -0.41144,-0.2867 -0.64228,-0.36862c-0.23085,-0.08564 -0.47287,-0.12846 -0.72607,-0.12846c-0.2867,0 -0.53617,0.04096 -0.74841,0.12288c-0.20851,0.07819 -0.37234,0.19175 -0.49149,0.34069c-0.11915,0.14521 -0.17872,0.32207 -0.17872,0.53058c0,0.15638 0.03537,0.29601 0.10611,0.41889c0.07447,0.12288 0.17686,0.23271 0.30718,0.32952c0.13032,0.09309 0.29787,0.17686 0.50266,0.25133c0.20851,0.07074 0.44309,0.13404 0.70372,0.18989c0.43936,0.08564 0.83218,0.20293 1.17846,0.35186c0.35,0.14521 0.64787,0.32022 0.89362,0.525c0.24947,0.20106 0.4375,0.43191 0.5641,0.69255c0.12659,0.25691 0.18989,0.54362 0.18989,0.86011c0,0.54734 -0.13032,1.01835 -0.39096,1.41303c-0.25691,0.39096 -0.61995,0.69255 -1.0891,0.90479c-0.46543,0.20851 -1.01276,0.31277 -1.64202,0.31277z" fill="#dcf9ff" stroke-width="1" stroke-linecap="square"/><path d="M168.74576,196.38029v-32.76057h142.50849v32.76057z" fill="none" stroke-width="0" stroke-linecap="butt"/><path d="M227.57828,232.41692v-104.83383h24.84343v104.83383z" fill="none" stroke-width="0" stroke-linecap="butt"/></g></g></svg>