<svg version="1.1" xmlns="http://www.w3.org/2000/svg" xmlns:xlink="http://www.w3.org/1999/xlink" width="244" height="49" viewBox="0,0,244,49"><g transform="translate(-118,-155.49999)"><g data-paper-data="{&quot;isPaintingLayer&quot;:true}" fill-rule="nonzero" stroke="none" stroke-linejoin="miter" stroke-miterlimit="10" stroke-dasharray="" stroke-dashoffset="0" style="mix-blend-mode: normal"><path d="M185.25,180c0,-7.99195 6.47876,-14.47071 14.47071,-14.47071c7.99195,0 14.47071,6.47876 14.47071,14.47071c0,7.99195 -6.47876,14.47071 -14.47071,14.47071c-7.99195,0 -14.47071,-6.47876 -14.47071,-14.47071z" fill="#60838a" stroke-width="0" stroke-linecap="butt"/><path d="M199.72071,194.47071v-28.94142h80.55858v28.94142z" fill="#60838a" stroke-width="0" stroke-linecap="butt"/><path d="M265.80858,180c0,-7.99195 6.47876,-14.47071 14.47071,-14.47071c7.99195,0 14.47071,6.47876 14.47071,14.47071c0,7.99195 -6.47876,14.47071 -14.47071,14.47071c-7.99195,0 -14.47071,-6.47876 -14.47071,-14.47071z" fill="#60838a" stroke-width="0" stroke-linecap="butt"/><g fill="#ffffff" stroke-width="1" stroke-linecap="square"><path d="M214.53528,186.27279c-0.70603,0 -1.35503,-0.08961 -1.94701,-0.26883c-0.59198,-0.17922 -1.12693,-0.44806 -1.60486,-0.8065c-0.47249,-0.35845 -0.8934,-0.79292 -1.26271,-1.30344l1.47451,-1.67003c0.57025,0.78749 1.12693,1.33331 1.67003,1.63744c0.54853,0.29871 1.16223,0.44806 1.8411,0.44806c0.39646,0 0.75491,-0.05974 1.07534,-0.17922c0.32586,-0.11948 0.58112,-0.28513 0.76577,-0.49694c0.19009,-0.21724 0.28512,-0.46707 0.28512,-0.74948c0,-0.19551 -0.03802,-0.37746 -0.11405,-0.54581c-0.07603,-0.16836 -0.19008,-0.31771 -0.34215,-0.44806c-0.15207,-0.13577 -0.33944,-0.26069 -0.56211,-0.37474c-0.21724,-0.11405 -0.46435,-0.21181 -0.74133,-0.29327c-0.27698,-0.08147 -0.58383,-0.1575 -0.92055,-0.2281c-0.63543,-0.13034 -1.19211,-0.30142 -1.67003,-0.51323c-0.47249,-0.21181 -0.87167,-0.47793 -1.19753,-0.79836c-0.32586,-0.32043 -0.56482,-0.67888 -0.71689,-1.07534c-0.14664,-0.4019 -0.21995,-0.8581 -0.21995,-1.36861c0,-0.51051 0.11134,-0.98029 0.33401,-1.40934c0.2281,-0.42905 0.53767,-0.79836 0.9287,-1.10792c0.39646,-0.315 0.85538,-0.55939 1.37675,-0.73318c0.52138,-0.17379 1.08348,-0.26069 1.68633,-0.26069c0.68431,0 1.29529,0.08146 1.83296,0.24439c0.53767,0.16293 1.01288,0.40461 1.42564,0.72504c0.41275,0.315 0.75219,0.7006 1.01831,1.1568l-1.49895,1.47451c-0.2281,-0.35845 -0.48879,-0.65715 -0.78206,-0.89612c-0.28784,-0.23896 -0.60012,-0.41819 -0.93685,-0.53767c-0.33672,-0.12492 -0.68973,-0.18737 -1.05904,-0.18737c-0.41819,0 -0.78206,0.05974 -1.09163,0.17922c-0.30414,0.11405 -0.5431,0.2797 -0.71689,0.49694c-0.17379,0.21181 -0.26069,0.46978 -0.26069,0.77392c0,0.2281 0.0516,0.43176 0.15479,0.61099c0.10862,0.17922 0.25797,0.33944 0.44806,0.48064c0.19009,0.13577 0.43448,0.25797 0.73318,0.36659c0.30414,0.10319 0.64629,0.19551 1.02646,0.27698c0.64086,0.12492 1.21382,0.29599 1.71891,0.51323c0.51051,0.21181 0.94499,0.46706 1.30344,0.76577c0.36388,0.29327 0.63815,0.62999 0.8228,1.01016c0.18465,0.37474 0.27698,0.79293 0.27698,1.25456c0,0.79836 -0.19008,1.48538 -0.57025,2.06106c-0.37474,0.57025 -0.90426,1.01016 -1.58857,1.31973c-0.67888,0.30414 -1.47723,0.4562 -2.39507,0.4562z"/><path d="M225.42919,186.10172v-10.07721h-3.4704v-2.0855h9.31144v2.0855h-3.58445v10.07721z"/><path d="M233.56097,186.10172l4.74126,-12.16271h2.12623l4.70867,12.16271h-2.34619l-2.60688,-6.91637c-0.05974,-0.14121 -0.13849,-0.36116 -0.23625,-0.65986c-0.09776,-0.29871 -0.20638,-0.62457 -0.32586,-0.97758c-0.11405,-0.35845 -0.21724,-0.68973 -0.30957,-0.99387c-0.09233,-0.30957 -0.16021,-0.53224 -0.20366,-0.66801l0.43177,-0.01629c-0.0706,0.2281 -0.15207,0.48879 -0.2444,0.78206c-0.09233,0.28784 -0.19009,0.58927 -0.29327,0.90426c-0.10319,0.30957 -0.20638,0.61099 -0.30956,0.90426c-0.09776,0.28784 -0.18737,0.54581 -0.26883,0.77392l-2.60688,6.86749zM235.71979,183.32377l0.78206,-1.96331h5.53961l0.83094,1.96331z"/><path d="M248.47471,186.10172v-12.16271h5.27892c0.72775,0 1.39305,0.17108 1.99589,0.51323c0.60284,0.34215 1.08077,0.8065 1.43378,1.39305c0.35301,0.58112 0.52952,1.23827 0.52952,1.97145c0,0.69517 -0.17651,1.33602 -0.52952,1.92257c-0.35301,0.58112 -0.82823,1.04275 -1.42564,1.3849c-0.59741,0.34215 -1.26542,0.51323 -2.00403,0.51323h-3.07937v4.46427zM255.52142,186.10172l-3.08752,-5.49073l2.3299,-0.43177l3.43782,5.93879zM250.67426,179.67414h3.09566c0.33672,0 0.63,-0.07875 0.87982,-0.23625c0.24982,-0.1575 0.44263,-0.37474 0.5784,-0.65172c0.14121,-0.27698 0.21181,-0.58383 0.21181,-0.92055c0,-0.38017 -0.08689,-0.70875 -0.26069,-0.98573c-0.17379,-0.28241 -0.41819,-0.50508 -0.73318,-0.66801c-0.30957,-0.16293 -0.66802,-0.24439 -1.07534,-0.24439h-2.69649z"/><path d="M264.43826,186.10172v-10.07721h-3.4704v-2.0855h9.31144v2.0855h-3.58446v10.07721z"/></g><path d="M118,204.5v-49h244v49z" fill="none" stroke-width="0" stroke-linecap="butt"/></g></g></svg>