<svg version="1.1" xmlns="http://www.w3.org/2000/svg" xmlns:xlink="http://www.w3.org/1999/xlink" width="21.55556" height="21.55556" viewBox="0,0,21.55556,21.55556"><g transform="translate(-229.22229,-169.22222)"><g data-paper-data="{&quot;isPaintingLayer&quot;:true}" fill-rule="nonzero" stroke="none" stroke-linejoin="miter" stroke-miterlimit="10" stroke-dasharray="" stroke-dashoffset="0" style="mix-blend-mode: normal"><path d="M229.22229,190.77778v-21.55556h21.55556v21.55556z" fill="none" stroke-width="0" stroke-linecap="butt"/><path d="M239.97911,187.90246c-0.99916,0 -1.91448,-0.20263 -2.74595,-0.60788c-0.82448,-0.41224 -1.48477,-0.96423 -1.98085,-1.65595c-0.4891,-0.69173 -0.73365,-1.4638 -0.73365,-2.31624c0,-0.50307 0.06987,-0.97121 0.20961,-1.40442c0.14673,-0.4332 0.35634,-0.82099 0.62884,-1.16336c0.27948,-0.34237 0.61487,-0.6498 1.00615,-0.9223c0.39827,-0.27948 0.84894,-0.52404 1.35201,-0.73365l-0.17817,0.62884c-0.38429,-0.16769 -0.73714,-0.36333 -1.05855,-0.58692c-0.32141,-0.22359 -0.5974,-0.47862 -0.82798,-0.76509c-0.23058,-0.29346 -0.40525,-0.60788 -0.52404,-0.94326c-0.11878,-0.33538 -0.17817,-0.68823 -0.17817,-1.05855c0,-0.80352 0.22708,-1.52669 0.68125,-2.16951c0.45417,-0.64282 1.06205,-1.15288 1.82364,-1.53018c0.7616,-0.38429 1.60355,-0.57644 2.52585,-0.57644c0.93628,0 1.78522,0.19215 2.54681,0.57644c0.7616,0.37731 1.36948,0.88737 1.82364,1.53018c0.45417,0.64282 0.68125,1.36599 0.68125,2.16951c0,0.37032 -0.05939,0.72317 -0.17817,1.05855c-0.11878,0.33538 -0.28647,0.64282 -0.50307,0.9223c-0.2166,0.2725 -0.4891,0.52404 -0.8175,0.75461c-0.3284,0.23058 -0.70919,0.4367 -1.1424,0.61836l-0.10481,-0.53452c0.47513,0.16071 0.90484,0.37731 1.28913,0.6498c0.39128,0.26551 0.72666,0.57644 1.00615,0.93278c0.28647,0.35634 0.50657,0.75112 0.66028,1.18432c0.16071,0.4332 0.24106,0.88737 0.24106,1.36249c0,0.8664 -0.24804,1.64547 -0.74413,2.3372c-0.4891,0.69173 -1.14938,1.24022 -1.98085,1.64547c-0.82448,0.39827 -1.75028,0.5974 -2.77739,0.5974zM239.97911,185.40805c0.50307,0 0.95724,-0.09782 1.36249,-0.29346c0.40525,-0.19564 0.72317,-0.45766 0.95374,-0.78605c0.23058,-0.3284 0.34586,-0.70919 0.34586,-1.1424c0,-0.46115 -0.11529,-0.8664 -0.34586,-1.21576c-0.23058,-0.34936 -0.54849,-0.62535 -0.95374,-0.82798c-0.40525,-0.20263 -0.85942,-0.30394 -1.36249,-0.30394c-0.49609,0 -0.94326,0.10131 -1.34153,0.30394c-0.39128,0.20263 -0.7057,0.47862 -0.94326,0.82798c-0.23756,0.34936 -0.35634,0.75461 -0.35634,1.21576c0,0.41923 0.11878,0.79304 0.35634,1.12144c0.23756,0.3284 0.55198,0.59391 0.94326,0.79653c0.39827,0.20263 0.84544,0.30394 1.34153,0.30394zM239.97911,178.38597c0.44718,0 0.84544,-0.08035 1.1948,-0.24106c0.34936,-0.16769 0.62186,-0.39128 0.8175,-0.67077c0.19564,-0.28647 0.29346,-0.61836 0.29346,-0.99567c0,-0.38429 -0.09782,-0.71967 -0.29346,-1.00615c-0.19564,-0.29346 -0.46814,-0.52404 -0.8175,-0.69173c-0.34936,-0.17468 -0.74763,-0.26202 -1.1948,-0.26202c-0.4332,0 -0.82448,0.08734 -1.17384,0.26202c-0.34936,0.16769 -0.62186,0.39827 -0.8175,0.69173c-0.19564,0.28647 -0.29346,0.62186 -0.29346,1.00615c0,0.37731 0.09782,0.70919 0.29346,0.99567c0.19564,0.27948 0.46814,0.50307 0.8175,0.67077c0.34936,0.16071 0.74064,0.24106 1.17384,0.24106z" fill="#60838a" stroke-width="1" stroke-linecap="square"/></g></g></svg>