<svg version="1.1" xmlns="http://www.w3.org/2000/svg" xmlns:xlink="http://www.w3.org/1999/xlink" width="142.50849" height="104.83383" viewBox="0,0,142.50849,104.83383"><g transform="translate(-168.74576,-127.58308)"><g data-paper-data="{&quot;isPaintingLayer&quot;:true}" fill-rule="nonzero" stroke="none" stroke-linejoin="miter" stroke-miterlimit="10" stroke-dasharray="" stroke-dashoffset="0" style="mix-blend-mode: normal"><path d="M182.9952,184.30055c-0.28298,0 -0.55293,-0.03537 -0.80984,-0.10611c-0.2532,-0.07074 -0.48776,-0.17128 -0.70372,-0.3016c-0.21223,-0.13032 -0.40213,-0.28857 -0.56968,-0.47474c-0.16755,-0.18989 -0.31463,-0.40026 -0.44122,-0.63111l0.94388,-0.96063c0.14149,0.20478 0.27553,0.37606 0.40213,0.51383c0.1266,0.13404 0.24761,0.23643 0.36303,0.30718c0.11542,0.07074 0.23458,0.12287 0.35745,0.15638c0.12287,0.02979 0.24761,0.04468 0.3742,0.04468c0.25691,0 0.48032,-0.05771 0.67021,-0.17314c0.18989,-0.11542 0.33883,-0.27553 0.44681,-0.48032c0.10798,-0.20851 0.16197,-0.44308 0.16197,-0.70372v-4.25585h-1.54149v-1.39069h4.3508v1.39069h-1.28457v4.41223c0,0.38724 -0.06888,0.74283 -0.20665,1.06676c-0.13404,0.32021 -0.32208,0.59947 -0.5641,0.83777c-0.24203,0.2383 -0.52872,0.4226 -0.86011,0.55292c-0.32766,0.13032 -0.69069,0.19548 -1.08909,0.19548z" fill="#dcf9ff" stroke-width="1" stroke-linecap="square"/><path d="M195.11102,184.18325v-8.33856h1.55266v8.33856zM189.76608,184.18325v-8.33856h1.54707v8.33856zM190.40836,180.754v-1.45771h5.45664v1.45771z" fill="#dcf9ff" stroke-width="1" stroke-linecap="square"/><path d="M198.95919,184.18325l3.25053,-8.33856h1.45771l3.22819,8.33856h-1.60851l-1.78723,-4.74175c-0.04095,-0.0968 -0.09495,-0.24761 -0.16197,-0.45239c-0.06702,-0.20478 -0.14148,-0.42819 -0.2234,-0.67021c-0.07819,-0.24574 -0.14893,-0.47287 -0.21223,-0.68138c-0.0633,-0.21223 -0.10984,-0.3649 -0.13963,-0.45798l0.29601,-0.01117c-0.04841,0.15638 -0.10425,0.33511 -0.16755,0.53617c-0.0633,0.19734 -0.13032,0.40399 -0.20106,0.61995c-0.07074,0.21223 -0.14149,0.41888 -0.21223,0.61995c-0.06702,0.19734 -0.12846,0.3742 -0.1843,0.53059l-1.78724,4.70824zM200.43924,182.27873l0.53617,-1.34601h3.79787l0.56968,1.34601z" fill="#dcf9ff" stroke-width="1" stroke-linecap="square"/><path d="M209.1838,184.18325v-8.33856h3.61915c0.49893,0 0.95505,0.11729 1.36835,0.35187c0.4133,0.23457 0.74096,0.55292 0.98298,0.95505c0.24203,0.3984 0.36303,0.84894 0.36303,1.3516c0,0.4766 -0.12101,0.91595 -0.36303,1.31808c-0.24203,0.3984 -0.56782,0.7149 -0.97739,0.94947c-0.40957,0.23457 -0.86755,0.35187 -1.37393,0.35187h-2.11117v3.06063zM214.01491,184.18325l-2.11675,-3.76436l1.59734,-0.29601l2.35691,4.07154zM210.69178,179.77661h2.12233c0.23085,0 0.43192,-0.05399 0.60319,-0.16196c0.17128,-0.10798 0.30346,-0.25692 0.39655,-0.44681c0.0968,-0.18989 0.14521,-0.40027 0.14521,-0.63112c0,-0.26064 -0.05957,-0.48591 -0.17872,-0.67579c-0.11915,-0.19361 -0.2867,-0.34627 -0.50266,-0.45798c-0.21223,-0.1117 -0.45798,-0.16755 -0.73723,-0.16755h-1.84867z" fill="#dcf9ff" stroke-width="1" stroke-linecap="square"/><path d="M218.4638,184.18325v-8.33856h5.45106v1.40745h-3.92633v5.52367h3.97659v1.40744zM219.17311,180.60879v-1.37953h4.13857v1.37953z" fill="#dcf9ff" stroke-width="1" stroke-linecap="square"/><path d="M226.88607,184.18325v-8.33856h5.45106v1.40745h-3.92633v5.52367h3.97659v1.40744zM227.59538,180.60879v-1.37953h4.13857v1.37953z" fill="#dcf9ff" stroke-width="1" stroke-linecap="square"/><path d="M239.28472,181.48006v-1.40744h3.68059v1.40744z" fill="#dcf9ff" stroke-width="1" stroke-linecap="square"/><path d="M250.16315,184.18325v-8.33856h1.39069l4.83669,6.51782l-0.2625,0.04468c-0.02979,-0.2234 -0.05771,-0.45053 -0.08378,-0.68138c-0.02234,-0.23457 -0.04468,-0.47845 -0.06702,-0.73165c-0.01862,-0.25691 -0.03351,-0.52314 -0.04468,-0.79867c-0.01117,-0.27926 -0.02234,-0.57154 -0.03351,-0.87686c-0.00744,-0.30532 -0.01117,-0.62926 -0.01117,-0.97181v-2.50213h1.54148v8.33856h-1.41861l-4.85904,-6.42287l0.30719,-0.08378c0.04095,0.44681 0.07447,0.8266 0.10053,1.13936c0.02979,0.31277 0.05212,0.58271 0.06702,0.80984c0.01489,0.22713 0.02793,0.41702 0.0391,0.56968c0.01489,0.14893 0.0242,0.28484 0.02793,0.40771c0.00373,0.12287 0.00558,0.24016 0.00558,0.35186v3.22819z" fill="#dcf9ff" stroke-width="1" stroke-linecap="square"/><path d="M264.24316,184.30055c-0.59574,0 -1.14867,-0.10612 -1.65877,-0.31835c-0.50638,-0.21596 -0.94946,-0.51569 -1.32925,-0.8992c-0.37607,-0.38724 -0.66835,-0.84149 -0.87686,-1.36277c-0.20478,-0.525 -0.30719,-1.0984 -0.30719,-1.72021c0,-0.61809 0.1024,-1.18963 0.30719,-1.71463c0.20851,-0.525 0.50079,-0.97925 0.87686,-1.36276c0.37979,-0.38724 0.82287,-0.68697 1.32925,-0.8992c0.51011,-0.21596 1.06303,-0.32394 1.65877,-0.32394c0.60319,0 1.15797,0.10798 1.66436,0.32394c0.51011,0.21223 0.95133,0.51383 1.32367,0.90479c0.37234,0.39096 0.6609,0.84707 0.86569,1.36835c0.20851,0.51755 0.31277,1.08537 0.31277,1.70346c0,0.61436 -0.10426,1.18403 -0.31277,1.70904c-0.20478,0.52128 -0.49335,0.9774 -0.86569,1.36836c-0.37234,0.38724 -0.81356,0.68883 -1.32367,0.90479c-0.50638,0.21223 -1.06117,0.31835 -1.66436,0.31835zM264.24316,182.82607c0.37979,0 0.72607,-0.06888 1.03883,-0.20664c0.31649,-0.14149 0.58829,-0.3407 0.81542,-0.59761c0.23085,-0.25691 0.41144,-0.55664 0.54176,-0.8992c0.13404,-0.34256 0.20106,-0.71676 0.20106,-1.12261c0,-0.40213 -0.06702,-0.77447 -0.20106,-1.11702c-0.13032,-0.34256 -0.31091,-0.64229 -0.54176,-0.8992c-0.22713,-0.26064 -0.49893,-0.45984 -0.81542,-0.5976c-0.31277,-0.13777 -0.65904,-0.20665 -1.03883,-0.20665c-0.37607,0 -0.72235,0.06888 -1.03883,0.20665c-0.31649,0.13777 -0.59016,0.33511 -0.82101,0.59202c-0.23085,0.2532 -0.40958,0.55106 -0.53617,0.89362c-0.1266,0.33883 -0.18989,0.71489 -0.18989,1.12819c0,0.40585 0.06329,0.78192 0.18989,1.12819c0.1266,0.34628 0.30532,0.646 0.53617,0.8992c0.23085,0.2532 0.50452,0.45053 0.82101,0.59202c0.31649,0.13777 0.66276,0.20664 1.03883,0.20664z" fill="#dcf9ff" stroke-width="1" stroke-linecap="square"/><path d="M275.79555,181.6923l-0.23457,-1.5359l4.28377,-4.3117h1.94362zM274.57241,184.18325v-8.33856h1.54707v8.33856zM280.04022,184.18325l-3.16117,-4.20558l1.10026,-0.9383l3.94308,5.14388z" fill="#dcf9ff" stroke-width="1" stroke-linecap="square"/><path d="M284.29319,184.18325v-8.33856h5.45106v1.40745h-3.92632v5.52367h3.97659v1.40744zM285.0025,180.60879v-1.37953h4.13857v1.37953z" fill="#dcf9ff" stroke-width="1" stroke-linecap="square"/><path d="M294.92715,184.18325v-4.15531l0.08378,0.58085l-3.36782,-4.7641h1.80957l2.56915,3.69176l-0.55851,-0.03351l2.3234,-3.65825h1.74255l-3.22819,4.89814l0.17872,-0.80985v4.25027z" fill="#dcf9ff" stroke-width="1" stroke-linecap="square"/><path d="M168.74577,196.38029v-32.76057h142.50849v32.76057z" fill="none" stroke-width="0" stroke-linecap="butt"/><path d="M227.57829,232.41692v-104.83383h24.84343v104.83383z" fill="none" stroke-width="0" stroke-linecap="butt"/></g></g></svg>