<svg version="1.1" xmlns="http://www.w3.org/2000/svg" xmlns:xlink="http://www.w3.org/1999/xlink" width="188" height="188" viewBox="0,0,188,188"><defs><radialGradient cx="240" cy="180" r="14.83653" gradientUnits="userSpaceOnUse" id="color-1"><stop offset="0" stop-color="#0085ff"/><stop offset="1" stop-color="#0085ff" stop-opacity="0"/></radialGradient></defs><g transform="translate(-146.00001,-86)"><g data-paper-data="{&quot;isPaintingLayer&quot;:true}" fill-rule="nonzero" stroke="none" stroke-linecap="butt" stroke-linejoin="miter" stroke-miterlimit="10" stroke-dasharray="" stroke-dashoffset="0" style="mix-blend-mode: normal"><g stroke-width="0"><path d="M225.16347,180c0,-8.19399 6.64254,-14.83653 14.83653,-14.83653c8.19399,0 14.83653,6.64254 14.83653,14.83653c0,8.19399 -6.64254,14.83653 -14.83653,14.83653c-8.19399,0 -14.83653,-6.64254 -14.83653,-14.83653z" fill="url(#color-1)"/><path d="M230.52778,179.99999c0,-5.23137 4.24087,-9.47222 9.47222,-9.47222c5.23137,0 9.47222,4.24087 9.47222,9.47222c0,5.23137 -4.24087,9.47222 -9.47222,9.47222c-5.23137,0 -9.47222,-4.24087 -9.47222,-9.47222z" fill="#001aff"/><path d="M232.77809,179.99999c0,-3.98854 3.23336,-7.22192 7.22191,-7.22192c3.98854,0 7.22192,3.23336 7.22192,7.22192c0,3.98854 -3.23336,7.22191 -7.22192,7.22191c-3.98854,0 -7.22191,-3.23336 -7.22191,-7.22191z" fill="#0085ff"/></g><path d="M146.00001,274v-188h188v188z" fill="none" stroke-width="NaN"/><g fill="#001aff" stroke-width="0"><path d="M236.04259,176.94344c-0.00133,-0.018 1.09203,-0.04726 2.35082,-0.56494c1.35008,-0.50174 1.61905,-1.21452 1.61905,-1.21452l0.00005,9.67204c0,0 -3.6093,-3.02544 -3.96992,-7.89257z"/><path d="M239.98749,184.83602l0.00005,-9.67204c0,0 0.26898,0.71278 1.61905,1.21452c1.25878,0.51768 2.35216,0.54693 2.35082,0.56494c-0.36063,4.86715 -3.96992,7.89257 -3.96992,7.89257z" data-paper-data="{&quot;index&quot;:null}"/></g></g></g></svg>