<svg version="1.1" xmlns="http://www.w3.org/2000/svg" xmlns:xlink="http://www.w3.org/1999/xlink" width="16.87354" height="9.50089" viewBox="0,0,16.87354,9.50089"><g transform="translate(-231.56323,-175.24955)"><g data-paper-data="{&quot;isPaintingLayer&quot;:true}" fill="#60838a" fill-rule="nonzero" stroke="none" stroke-width="1" stroke-linecap="square" stroke-linejoin="miter" stroke-miterlimit="10" stroke-dasharray="" stroke-dashoffset="0" style="mix-blend-mode: normal"><g><path d="M232.08237,184.75043l-0.44408,-1.09457l2.80211,-3.1336c0.16262,-0.16262 0.32732,-0.34819 0.49411,-0.55667c0.17097,-0.20849 0.33358,-0.42532 0.48787,-0.65049c0.15429,-0.22934 0.27937,-0.45243 0.37528,-0.66925c0.10008,-0.21684 0.15011,-0.41907 0.15011,-0.6067c0,-0.23767 -0.05212,-0.44616 -0.15638,-0.62546c-0.10008,-0.17931 -0.24394,-0.3169 -0.43156,-0.41281c-0.18347,-0.10008 -0.41281,-0.15011 -0.68801,-0.15011c-0.24185,0 -0.47745,0.06879 -0.70678,0.2064c-0.22517,0.13761 -0.43366,0.33358 -0.62546,0.58795c-0.1918,0.25435 -0.34819,0.55458 -0.46911,0.90068l-1.30723,-0.77557c0.15846,-0.51289 0.40029,-0.95904 0.72556,-1.3385c0.32523,-0.37946 0.70678,-0.67132 1.1446,-0.87566c0.44201,-0.20432 0.92153,-0.30649 1.43858,-0.30649c0.53373,0 1.00909,0.11259 1.42606,0.33776c0.41697,0.22099 0.74639,0.52748 0.98824,0.91943c0.24602,0.39196 0.36902,0.85063 0.36902,1.37603c0,0.1918 -0.02292,0.39405 -0.06879,0.6067c-0.0417,0.20849 -0.1105,0.42532 -0.2064,0.65049c-0.09174,0.22517 -0.21265,0.46076 -0.36278,0.70678c-0.15011,0.24602 -0.3315,0.50246 -0.54416,0.76933c-0.20849,0.26687 -0.44616,0.54625 -0.71304,0.83811l-2.12034,2.30798l-0.2627,-0.61296h4.61595v1.6012z"/><path d="M246.27266,184.75043l-2.88967,-4.19062l-3.70903,-5.14761h2.15788l2.82711,4.13435l3.77783,5.2039zM239.60517,184.75043l3.56516,-5.08506l1.22592,1.05704l-2.76456,4.02802zM244.87787,180.41592l-1.21967,-1.01327l2.61446,-3.99049h2.03278z"/></g></g></g></svg>