<svg version="1.1" xmlns="http://www.w3.org/2000/svg" xmlns:xlink="http://www.w3.org/1999/xlink" width="24.02777" height="9.50089" viewBox="0,0,24.02777,9.50089"><g transform="translate(-227.98611,-175.24955)"><g data-paper-data="{&quot;isPaintingLayer&quot;:true}" fill="#60838a" fill-rule="nonzero" stroke="none" stroke-width="1" stroke-linecap="square" stroke-linejoin="miter" stroke-miterlimit="10" stroke-dasharray="" stroke-dashoffset="0" style="mix-blend-mode: normal"><path d="M227.98611,181.59999v-1.37407h6.61658v1.37407zM230.51143,184.08198v-6.40614h1.55357v6.40614z"/><path d="M239.13175,183.97057v-7.49549l0.48897,0.63133l-1.87542,0.95318l-0.38375,-1.50405l2.51913,-1.30599h0.95318v8.72101zM237.58437,184.62047v-1.58451h4.834v1.58451z"/><path d="M248.42397,184.75045c-0.74687,0 -1.38851,-0.18981 -1.92494,-0.56943c-0.5323,-0.38375 -0.9408,-0.93049 -1.22552,-1.64022c-0.28472,-0.70973 -0.42708,-1.55769 -0.42708,-2.54389c0,-0.98207 0.14236,-1.82797 0.42708,-2.5377c0.28472,-0.70973 0.69322,-1.25441 1.22552,-1.63403c0.53642,-0.38375 1.17807,-0.57562 1.92494,-0.57562c0.74687,0 1.38851,0.19187 1.92494,0.57562c0.53642,0.37962 0.94699,0.9243 1.23171,1.63403c0.28884,0.70973 0.43327,1.55563 0.43327,2.5377c0,0.9862 -0.14442,1.83416 -0.43327,2.54389c-0.28472,0.70973 -0.69529,1.25647 -1.23171,1.64022c-0.53642,0.37962 -1.17807,0.56943 -1.92494,0.56943zM248.42397,183.2464c0.61482,0 1.09142,-0.28265 1.42978,-0.84796c0.33836,-0.56943 0.50754,-1.36994 0.50754,-2.40153c0,-1.03571 -0.16918,-1.84035 -0.50754,-2.41391c-0.33836,-0.57356 -0.81495,-0.86034 -1.42978,-0.86034c-0.61482,0 -1.09348,0.28678 -1.43597,0.86034c-0.33836,0.57356 -0.50754,1.3782 -0.50754,2.41391c0,1.03158 0.16918,1.83209 0.50754,2.40153c0.34249,0.56531 0.82114,0.84796 1.43597,0.84796z"/></g></g></svg>