<svg version="1.1" xmlns="http://www.w3.org/2000/svg" xmlns:xlink="http://www.w3.org/1999/xlink" width="187" height="209" viewBox="0,0,187,209"><g transform="translate(-146.5,-75.50001)"><g data-paper-data="{&quot;isPaintingLayer&quot;:true}" fill-rule="nonzero" stroke="none" stroke-linejoin="miter" stroke-miterlimit="10" stroke-dasharray="" stroke-dashoffset="0" style="mix-blend-mode: normal"><path d="M318.95766,152.32983l0.42376,55.734l-158.42372,-0.13753l-0.33911,-55.9901z" fill-opacity="0.00392" fill="#ffffff" stroke-width="0" stroke-linecap="butt"/><g fill="#60838a" stroke-width="1" stroke-linecap="square"><path d="M163.28525,174.12263v-16.41693h2.73799l9.52248,12.83226l-0.5168,0.08796c-0.05864,-0.43984 -0.11362,-0.88701 -0.16493,-1.3415c-0.04399,-0.46183 -0.08796,-0.94199 -0.13195,-1.44046c-0.03666,-0.50581 -0.06597,-1.02995 -0.08796,-1.57241c-0.02199,-0.54979 -0.04399,-1.12525 -0.06597,-1.72636c-0.01465,-0.60112 -0.02199,-1.23888 -0.02199,-1.91329v-4.92618h3.03488v16.41694h-2.79297l-9.56647,-12.64533l0.60478,-0.16493c0.08063,0.87967 0.1466,1.6274 0.19792,2.24318c0.05864,0.61577 0.10263,1.14724 0.13195,1.59441c0.02932,0.44717 0.05498,0.82103 0.07698,1.12158c0.02932,0.29323 0.04765,0.5608 0.05498,0.80271c0.00733,0.24191 0.01101,0.47283 0.01101,0.69275v6.35565z"/><path d="M183.42976,174.12263v-2.694h2.69401v-11.02893h-2.694v-2.694h8.44489v2.69401h-2.705v11.02893h2.705v2.69401z"/><path d="M205.14705,174.35353c-1.23888,0 -2.38246,-0.21259 -3.43073,-0.63776c-1.04828,-0.43251 -1.96095,-1.02995 -2.73799,-1.79233c-0.76972,-0.76972 -1.36716,-1.66405 -1.79233,-2.68301c-0.41784,-1.02628 -0.62677,-2.14421 -0.62677,-3.35376c0,-1.18757 0.21259,-2.29082 0.63776,-3.30977c0.43251,-1.02628 1.04095,-1.91696 1.82532,-2.67201c0.78438,-0.76238 1.70437,-1.3525 2.75999,-1.77034c1.05561,-0.42518 2.19186,-0.63776 3.40874,-0.63776c0.85768,0 1.68604,0.1173 2.48508,0.35187c0.79904,0.23458 1.51744,0.56446 2.1552,0.98963c0.6451,0.41784 1.17657,0.89068 1.59441,1.41848l-1.91329,2.02325c-0.43984,-0.42518 -0.89067,-0.77705 -1.3525,-1.05561c-0.46183,-0.28589 -0.94565,-0.50581 -1.45147,-0.65976c-0.49848,-0.15394 -1.01163,-0.23091 -1.53943,-0.23091c-0.78438,0 -1.51011,0.14296 -2.1772,0.42884c-0.65976,0.27856 -1.23521,0.66709 -1.72636,1.16557c-0.49115,0.49848 -0.87967,1.08493 -1.16557,1.75935c-0.27856,0.67441 -0.41784,1.40748 -0.41784,2.19919c0,0.76972 0.14296,1.49911 0.42884,2.18819c0.29323,0.68908 0.69641,1.29018 1.20955,1.80334c0.52048,0.51315 1.11792,0.91633 1.79234,1.20955c0.68174,0.28589 1.40748,0.42884 2.1772,0.42884c0.57912,0 1.11792,-0.0843 1.61641,-0.2529c0.49848,-0.17594 0.94199,-0.41418 1.33051,-0.71473c0.39586,-0.30789 0.69641,-0.66342 0.90167,-1.06661c0.21259,-0.41051 0.31889,-0.85035 0.31889,-1.31952v-0.5168l0.42884,0.49483h-4.86021v-2.71599h7.43326c0.03666,0.16861 0.06231,0.3592 0.07698,0.57179c0.01465,0.21259 0.02566,0.41784 0.03299,0.61577c0.00733,0.19059 0.01101,0.35554 0.01101,0.49483c0,1.0776 -0.18693,2.05991 -0.56079,2.94691c-0.37386,0.87967 -0.90167,1.64206 -1.58342,2.28716c-0.68174,0.63776 -1.47345,1.13258 -2.37513,1.48446c-0.89433,0.35187 -1.86565,0.52781 -2.91391,0.52781z"/><path d="M228.22098,174.12263v-16.41693h3.05687v16.41694zM217.69787,174.12263v-16.41693h3.04587v16.41694zM218.9624,167.37112v-2.86994h10.74304v2.86995z"/><path d="M240.91033,174.12263v-13.60198h-4.68427v-2.81496h12.56836v2.81496h-4.83821v13.60199z"/><path d="M256.99952,174.12263v-13.60198h-4.68427v-2.81496h12.56836v2.81496h-4.83821v13.60199z"/><path d="M269.31714,174.12263v-2.694h2.69401v-11.02893h-2.694v-2.694h8.44489v2.69401h-2.705v11.02893h2.705v2.69401z"/><path d="M283.57916,174.12263v-16.41693h2.88093l5.98179,9.73141l-1.69337,-0.02199l6.05876,-9.70941h2.73799v16.41694h-3.02388v-6.16872c0,-1.40748 0.03299,-2.67201 0.09897,-3.7936c0.07331,-1.12892 0.19792,-2.25051 0.37386,-3.36476l0.37386,1.01163l-5.09112,7.86211h-1.55043l-4.92618,-7.78513l0.32987,-1.08859c0.16861,1.04828 0.28956,2.12588 0.36287,3.23281c0.07331,1.0996 0.10996,2.40812 0.10996,3.92555v6.16873z"/><path d="M305.88375,174.12263v-16.41693h10.73203v2.77098h-7.73015v10.87499h7.82912v2.77098zM307.28023,167.08523v-2.71599h8.14799v2.716z"/><path d="M185.98069,202.27224v-16.41693h3.05687v16.41694zM175.45757,202.27224v-16.41693h3.04587v16.41694zM176.72211,195.52074v-2.86994h10.74304v2.86995z"/><path d="M194.89845,202.27224v-2.694h2.69401v-11.02893h-2.694v-2.694h8.44489v2.69401h-2.705v11.02893h2.705v2.69401z"/><path d="M216.61573,202.50315c-1.23888,0 -2.38246,-0.21259 -3.43073,-0.63776c-1.04828,-0.43251 -1.96095,-1.02995 -2.73799,-1.79233c-0.76972,-0.76972 -1.36716,-1.66405 -1.79233,-2.68301c-0.41784,-1.02628 -0.62677,-2.14421 -0.62677,-3.35376c0,-1.18757 0.21259,-2.29082 0.63776,-3.30977c0.43251,-1.02628 1.04095,-1.91696 1.82532,-2.67201c0.78438,-0.76238 1.70437,-1.3525 2.75999,-1.77034c1.05561,-0.42518 2.19186,-0.63776 3.40874,-0.63776c0.85768,0 1.68604,0.1173 2.48508,0.35187c0.79904,0.23458 1.51744,0.56446 2.1552,0.98963c0.6451,0.41784 1.17657,0.89068 1.59441,1.41848l-1.91329,2.02325c-0.43984,-0.42518 -0.89067,-0.77705 -1.3525,-1.05561c-0.46183,-0.28589 -0.94565,-0.50581 -1.45147,-0.65976c-0.49848,-0.15394 -1.01163,-0.23091 -1.53943,-0.23091c-0.78438,0 -1.51011,0.14296 -2.1772,0.42884c-0.65976,0.27856 -1.23521,0.66709 -1.72636,1.16557c-0.49115,0.49848 -0.87967,1.08493 -1.16557,1.75935c-0.27856,0.67441 -0.41784,1.40748 -0.41784,2.19919c0,0.76972 0.14296,1.49911 0.42884,2.18819c0.29323,0.68908 0.69641,1.29018 1.20955,1.80334c0.52048,0.51315 1.11792,0.91633 1.79234,1.20955c0.68174,0.28589 1.40748,0.42884 2.1772,0.42884c0.57912,0 1.11792,-0.0843 1.61641,-0.2529c0.49848,-0.17594 0.94199,-0.41418 1.33051,-0.71473c0.39586,-0.30789 0.69641,-0.66342 0.90167,-1.06661c0.21259,-0.41051 0.31889,-0.85035 0.31889,-1.31952v-0.5168l0.42884,0.49483h-4.86021v-2.71599h7.43326c0.03666,0.16861 0.06231,0.3592 0.07698,0.57179c0.01465,0.21259 0.02566,0.41784 0.03299,0.61577c0.00733,0.19059 0.01101,0.35554 0.01101,0.49483c0,1.0776 -0.18693,2.05991 -0.56079,2.94691c-0.37386,0.87967 -0.90167,1.64206 -1.58342,2.28716c-0.68174,0.63776 -1.47345,1.13258 -2.37513,1.48446c-0.89433,0.35187 -1.86565,0.52781 -2.91391,0.52781z"/><path d="M239.68966,202.27224v-16.41693h3.05687v16.41694zM229.16654,202.27224v-16.41693h3.04587v16.41694zM230.43108,195.52074v-2.86994h10.74304v2.86995z"/><path d="M252.40103,202.27224l-5.11311,-16.41693h3.18882l2.91392,9.68743c0.0953,0.29323 0.1796,0.61944 0.25291,0.97865c0.08063,0.3592 0.15028,0.71474 0.20893,1.06661c0.06597,0.35187 0.12095,0.67809 0.16494,0.97865c0.05132,0.30056 0.09897,0.54979 0.14296,0.74772l-0.62677,-0.02199c0.18327,-0.73307 0.32987,-1.32685 0.43984,-1.78134c0.10996,-0.4545 0.20893,-0.83202 0.29689,-1.13258c0.08796,-0.30789 0.17594,-0.59378 0.2639,-0.85768l2.77098,-7.08138h2.60604l2.694,7.08138c0.15394,0.43251 0.29323,0.85035 0.41784,1.25354c0.13195,0.39586 0.23824,0.78803 0.31889,1.17657c0.08796,0.3812 0.17226,0.77338 0.25291,1.17657l-0.56079,0.12095c0.05864,-0.37386 0.10263,-0.67809 0.13195,-0.91266c0.03666,-0.23458 0.06965,-0.44717 0.09897,-0.63776c0.02932,-0.19059 0.05864,-0.37386 0.08796,-0.54979c0.03666,-0.18327 0.08796,-0.40319 0.15394,-0.65976c0.07331,-0.25657 0.16494,-0.58645 0.27491,-0.98963l2.88093,-9.64343h3.16683l-5.1351,16.41694h-2.21018l-4.16746,-9.99531l0.27491,0.09897l-3.95853,9.89635z"/><path d="M272.52575,202.27224l6.39964,-16.41693h2.86995l6.35565,16.41694h-3.16683l-3.5187,-9.33555c-0.08063,-0.19059 -0.18693,-0.48749 -0.31888,-0.89067c-0.13195,-0.40319 -0.27856,-0.84303 -0.43984,-1.31952c-0.15394,-0.48382 -0.29323,-0.93099 -0.41784,-1.3415c-0.12462,-0.41784 -0.21625,-0.7184 -0.2749,-0.90167l0.58279,-0.02199c-0.0953,0.30789 -0.20526,0.65976 -0.32987,1.05561c-0.12462,0.38852 -0.25657,0.79537 -0.39586,1.22055c-0.13928,0.41784 -0.27856,0.8247 -0.41784,1.22055c-0.13195,0.38852 -0.2529,0.73674 -0.36287,1.04462l-3.5187,9.26959zM275.43967,198.52262l1.05561,-2.65001h7.47724l1.12158,2.65002z"/><path d="M297.01037,202.27224v-8.18098l0.16494,1.14358l-6.63055,-9.37953h3.56268l5.05813,7.26833l-1.0996,-0.06597l4.57431,-7.20234h3.43073l-6.35565,9.64344l0.35187,-1.59441v8.36791z"/></g><path d="M146.5,284.50001v-209h187v209z" fill="none" stroke-width="0" stroke-linecap="butt"/></g></g></svg>