<svg version="1.1" xmlns="http://www.w3.org/2000/svg" xmlns:xlink="http://www.w3.org/1999/xlink" width="131.81481" height="104.83383" viewBox="0,0,131.81481,104.83383"><g transform="translate(-174.0926,-127.58309)"><g data-paper-data="{&quot;isPaintingLayer&quot;:true}" fill-rule="nonzero" stroke="none" stroke-linejoin="miter" stroke-miterlimit="10" stroke-dasharray="" stroke-dashoffset="0" style="mix-blend-mode: normal"><path d="M227.57828,232.41692v-104.83383h24.84343v104.83383z" fill="none" stroke-width="0" stroke-linecap="butt"/><g fill="#dcf9ff" stroke-width="1" stroke-linecap="square"><path d="M174.0926,176.68176v-7.83731h1.3071l4.54596,6.12602l-0.24672,0.04199c-0.028,-0.20997 -0.05424,-0.42345 -0.07873,-0.64042c-0.02099,-0.22047 -0.042,-0.4497 -0.063,-0.68767c-0.01749,-0.24147 -0.0315,-0.49169 -0.042,-0.75066c-0.0105,-0.26247 -0.02099,-0.53718 -0.0315,-0.82415c-0.007,-0.28697 -0.0105,-0.59143 -0.0105,-0.91339v-2.35172h1.44883v7.83732h-1.33334l-4.56695,-6.03678l0.28871,-0.07874c0.0385,0.41995 0.06999,0.77691 0.09449,1.07087c0.028,0.29396 0.04899,0.54769 0.06299,0.76116c0.014,0.21347 0.02625,0.39196 0.03675,0.53544c0.014,0.13998 0.02275,0.26772 0.02625,0.38321c0.0035,0.11549 0.00525,0.22573 0.00525,0.33071v3.03414z"/><path d="M183.70942,176.68176v-1.28609h1.2861v-5.26512h-1.2861v-1.2861h4.03152v1.2861h-1.29135v5.26512h1.29135v1.2861z"/><path d="M194.07707,176.79199c-0.59143,0 -1.13736,-0.10148 -1.6378,-0.30446c-0.50044,-0.20648 -0.93614,-0.4917 -1.3071,-0.85565c-0.36746,-0.36746 -0.65267,-0.7944 -0.85565,-1.28084c-0.19948,-0.48994 -0.29922,-1.02362 -0.29922,-1.60105c0,-0.56693 0.10149,-1.09362 0.30447,-1.58006c0.20648,-0.48994 0.49694,-0.91514 0.87139,-1.2756c0.37446,-0.36396 0.81366,-0.64567 1.3176,-0.84515c0.50394,-0.20298 1.04638,-0.30447 1.62731,-0.30447c0.40945,0 0.8049,0.05599 1.18636,0.16798c0.38145,0.11199 0.72441,0.26947 1.02888,0.47245c0.30796,0.19948 0.56168,0.4252 0.76116,0.67717l-0.91339,0.96588c-0.20997,-0.20298 -0.4252,-0.37096 -0.64567,-0.50394c-0.22047,-0.13648 -0.45145,-0.24147 -0.69291,-0.31496c-0.23797,-0.07349 -0.48295,-0.11023 -0.73492,-0.11023c-0.37446,0 -0.72091,0.06824 -1.03937,0.20472c-0.31496,0.13298 -0.58968,0.31847 -0.82415,0.55643c-0.23448,0.23797 -0.41995,0.51794 -0.55643,0.8399c-0.13298,0.32196 -0.19948,0.67192 -0.19948,1.04987c0,0.36746 0.06824,0.71567 0.20473,1.04463c0.13998,0.32896 0.33246,0.61593 0.57743,0.86089c0.24847,0.24497 0.53368,0.43745 0.85565,0.57743c0.32546,0.13648 0.67192,0.20472 1.03938,0.20472c0.27647,0 0.53368,-0.04024 0.77166,-0.12073c0.23797,-0.08399 0.44969,-0.19772 0.63517,-0.34121c0.18897,-0.14698 0.33246,-0.31671 0.43045,-0.50919c0.10148,-0.19598 0.15223,-0.40595 0.15223,-0.62993v-0.24671l0.20473,0.23622h-2.32023v-1.29659h3.54857c0.01749,0.08049 0.02975,0.17148 0.03675,0.27297c0.007,0.10148 0.01225,0.19947 0.01575,0.29396c0.0035,0.09099 0.00525,0.16973 0.00525,0.23622c0,0.51444 -0.08924,0.98338 -0.26772,1.40683c-0.17848,0.41995 -0.43045,0.78391 -0.75591,1.09187c-0.32546,0.30446 -0.70342,0.54068 -1.13387,0.70866c-0.42695,0.16798 -0.89064,0.25197 -1.39108,0.25197z"/><path d="M205.09238,176.68176v-7.83731h1.45933v7.83731zM200.06873,176.68176v-7.83731h1.45408v7.83731zM200.67241,173.45864v-1.37008h5.12864v1.37009z"/><path d="M211.15018,176.68176v-6.49347h-2.23623v-1.34384h6.00003v1.34384h-2.30972v6.49347z"/><path d="M224.79939,176.79199c-0.56693,0 -1.08662,-0.09623 -1.55907,-0.28871c-0.46894,-0.19598 -0.87489,-0.4742 -1.21785,-0.83465c-0.34296,-0.36046 -0.61068,-0.78915 -0.80315,-1.28609c-0.18897,-0.49694 -0.28347,-1.04113 -0.28347,-1.63255c0,-0.56693 0.09974,-1.09187 0.29922,-1.57481c0.20298,-0.48645 0.48295,-0.91164 0.8399,-1.2756c0.36046,-0.36746 0.77866,-0.65092 1.2546,-0.8504c0.47944,-0.20298 0.99913,-0.30447 1.55907,-0.30447c0.38145,0 0.75066,0.05599 1.10762,0.16798c0.36046,0.11199 0.68941,0.26773 0.98688,0.4672c0.29746,0.19598 0.54769,0.42344 0.75066,0.68241l-0.92914,1.02363c-0.19598,-0.20298 -0.3972,-0.3727 -0.60368,-0.50919c-0.20298,-0.13998 -0.41469,-0.24498 -0.63517,-0.31497c-0.22047,-0.07349 -0.4462,-0.11023 -0.67717,-0.11023c-0.34296,0 -0.66667,0.06475 -0.97113,0.19423c-0.30096,0.12598 -0.56168,0.30446 -0.78215,0.53543c-0.22047,0.23097 -0.3937,0.50569 -0.51969,0.82416c-0.12598,0.31847 -0.18898,0.67017 -0.18898,1.05513c0,0.39895 0.06124,0.75941 0.18373,1.08137c0.12249,0.31847 0.29746,0.59318 0.52493,0.82415c0.22747,0.23097 0.50044,0.40945 0.81891,0.53544c0.31847,0.12249 0.66667,0.18373 1.04462,0.18373c0.24847,0 0.48819,-0.03325 0.71917,-0.09974c0.23097,-0.06999 0.44445,-0.16622 0.64042,-0.28871c0.19948,-0.12249 0.38146,-0.26597 0.54594,-0.43045l0.71916,1.15486c-0.18198,0.19948 -0.4217,0.38146 -0.71916,0.54594c-0.29746,0.16448 -0.63168,0.29396 -1.00263,0.38845c-0.36746,0.09099 -0.73491,0.13648 -1.10237,0.13648z"/><path d="M229.8169,176.68176v-1.28609h1.28609v-5.26512h-1.28609v-1.2861h4.03152v1.2861h-1.29135v5.26512h1.29135v1.2861z"/><path d="M238.18979,176.68176v-6.49347h-2.23623v-1.34384h6.00003v1.34384h-2.30972v6.49347z"/><path d="M246.38509,176.68176v-3.90553l0.07874,0.54593l-3.16537,-4.47771h1.70079l2.41472,3.46983l-0.52494,-0.03149l2.18374,-3.43834h1.63781l-3.03414,4.6037l0.16798,-0.76116v3.99478z"/><path d="M258.5003,176.68176v-6.49347h-2.23623v-1.34384h6.00003v1.34384h-2.30972v6.49347z"/><path d="M267.75071,176.75c-0.61942,0 -1.17236,-0.13298 -1.6588,-0.39895c-0.48645,-0.26597 -0.86964,-0.63168 -1.14961,-1.09712c-0.27997,-0.46544 -0.41995,-0.99388 -0.41995,-1.58531v-4.83467h1.46983v4.73494c0,0.34996 0.08049,0.66143 0.24147,0.93439c0.16098,0.27296 0.37446,0.49168 0.64042,0.65617c0.26947,0.16448 0.56169,0.24672 0.87664,0.24672c0.34296,0 0.65267,-0.08224 0.92915,-0.24672c0.27647,-0.16448 0.49344,-0.38321 0.65092,-0.65617c0.16098,-0.27296 0.24147,-0.58443 0.24147,-0.93439v-4.73493h1.41208v4.83467c0,0.59143 -0.13999,1.11987 -0.41995,1.58531c-0.27997,0.46544 -0.66317,0.83115 -1.14961,1.09713c-0.48294,0.26597 -1.03762,0.39895 -1.66405,0.39895z"/><path d="M273.92122,176.68176v-7.83731h1.3071l4.54596,6.12602l-0.24672,0.04199c-0.02799,-0.20997 -0.05424,-0.42345 -0.07874,-0.64042c-0.021,-0.22047 -0.04199,-0.4497 -0.06299,-0.68767c-0.01749,-0.24147 -0.0315,-0.49169 -0.04199,-0.75066c-0.0105,-0.26247 -0.021,-0.53718 -0.0315,-0.82415c-0.007,-0.28697 -0.01049,-0.59143 -0.01049,-0.91339v-2.35172h1.44882v7.83732h-1.33334l-4.56696,-6.03678l0.28871,-0.07874c0.0385,0.41995 0.06999,0.77691 0.09449,1.07087c0.02799,0.29396 0.04899,0.54769 0.063,0.76116c0.014,0.21347 0.02625,0.39196 0.03674,0.53544c0.014,0.13998 0.02275,0.26772 0.02625,0.38321c0.0035,0.11549 0.00525,0.22573 0.00525,0.33071v3.03414z"/><path d="M283.77428,176.68176v-7.83731h5.12338v1.32284h-3.6903v5.19163h3.73755v1.32284zM284.44095,173.32216v-1.29659h3.88979v1.29659z"/><path d="M294.17321,176.79199c-0.45495,0 -0.87315,-0.05774 -1.2546,-0.17323c-0.38146,-0.11549 -0.72617,-0.28871 -1.03413,-0.51968c-0.30446,-0.23097 -0.57568,-0.51094 -0.81365,-0.8399l0.95014,-1.07612c0.36746,0.50744 0.72616,0.85915 1.07612,1.05513c0.35345,0.19248 0.74892,0.28871 1.18636,0.28871c0.25547,0 0.48644,-0.0385 0.69291,-0.11549c0.20997,-0.07699 0.37446,-0.18373 0.49345,-0.32021c0.12248,-0.13998 0.18373,-0.30096 0.18373,-0.48294c0,-0.12599 -0.0245,-0.24322 -0.0735,-0.35171c-0.04899,-0.10849 -0.12248,-0.20472 -0.22047,-0.28871c-0.09799,-0.08749 -0.21873,-0.16799 -0.36221,-0.24148c-0.13999,-0.07349 -0.29922,-0.13648 -0.47769,-0.18897c-0.17848,-0.05249 -0.3762,-0.10149 -0.59318,-0.14699c-0.40945,-0.08399 -0.76816,-0.19422 -1.07612,-0.3307c-0.30446,-0.13648 -0.56168,-0.30796 -0.77165,-0.51444c-0.20997,-0.20648 -0.36396,-0.43745 -0.46195,-0.69292c-0.09449,-0.25897 -0.14173,-0.55293 -0.14173,-0.88189c0,-0.32896 0.07174,-0.63168 0.21522,-0.90814c0.14698,-0.27647 0.34646,-0.51444 0.59843,-0.71392c0.25547,-0.20298 0.55119,-0.36046 0.88715,-0.47244c0.33596,-0.11199 0.69816,-0.16798 1.08662,-0.16798c0.44094,0 0.83465,0.05249 1.18111,0.15748c0.34646,0.10498 0.65267,0.26072 0.91864,0.4672c0.26597,0.20298 0.4847,0.45145 0.65618,0.74542l-0.96589,0.95013c-0.14698,-0.23097 -0.31496,-0.42345 -0.50394,-0.57743c-0.18547,-0.15398 -0.3867,-0.26947 -0.60368,-0.34646c-0.21697,-0.08049 -0.44445,-0.12073 -0.68242,-0.12073c-0.26947,0 -0.50394,0.0385 -0.70342,0.11549c-0.19597,0.07349 -0.34996,0.18023 -0.46195,0.32021c-0.11199,0.13648 -0.16798,0.30272 -0.16798,0.49869c0,0.14698 0.03325,0.27822 0.09974,0.39371c0.06999,0.11549 0.16623,0.21873 0.28872,0.30972c0.12248,0.08749 0.27996,0.16622 0.47244,0.23622c0.19597,0.0665 0.41645,0.12599 0.66142,0.17848c0.41295,0.08049 0.78216,0.19073 1.10762,0.33071c0.32896,0.13648 0.60893,0.30096 0.8399,0.49344c0.23447,0.18897 0.4112,0.40595 0.53019,0.65092c0.11899,0.24147 0.17848,0.51094 0.17848,0.8084c0,0.51444 -0.12249,0.95713 -0.36746,1.32809c-0.24147,0.36746 -0.58268,0.65093 -1.02362,0.8504c-0.43745,0.19598 -0.95189,0.29396 -1.54332,0.29396z"/><path d="M302.44807,174.14106v-1.32284h3.45934v1.32284z"/><path d="M220.68205,191.29199c-0.45495,0 -0.87314,-0.05774 -1.25459,-0.17323c-0.38145,-0.11548 -0.72616,-0.28871 -1.03412,-0.51968c-0.30446,-0.23097 -0.57569,-0.51094 -0.81366,-0.8399l0.95014,-1.07612c0.36746,0.50744 0.72616,0.85914 1.07612,1.05512c0.35345,0.19248 0.74891,0.28872 1.18635,0.28872c0.25547,0 0.48645,-0.03849 0.69292,-0.11548c0.20997,-0.07699 0.37445,-0.18373 0.49344,-0.32021c0.12249,-0.13999 0.18373,-0.30096 0.18373,-0.48294c0,-0.12599 -0.0245,-0.24323 -0.07349,-0.35171c-0.04899,-0.10849 -0.12248,-0.20472 -0.22047,-0.28871c-0.09799,-0.08749 -0.21873,-0.16798 -0.36221,-0.24147c-0.13998,-0.07349 -0.29921,-0.13648 -0.47769,-0.18898c-0.17848,-0.0525 -0.3762,-0.10149 -0.59318,-0.14698c-0.40945,-0.08399 -0.76816,-0.19422 -1.07612,-0.33071c-0.30446,-0.13648 -0.56168,-0.30796 -0.77166,-0.51444c-0.20997,-0.20648 -0.36395,-0.43745 -0.46194,-0.69292c-0.09449,-0.25897 -0.14173,-0.55293 -0.14173,-0.88189c0,-0.32896 0.07174,-0.63168 0.21522,-0.90814c0.14698,-0.27647 0.34646,-0.51444 0.59843,-0.71391c0.25547,-0.20297 0.55119,-0.36046 0.88715,-0.47244c0.33596,-0.11199 0.69817,-0.16798 1.08662,-0.16798c0.44094,0 0.83465,0.05249 1.18111,0.15748c0.34646,0.10498 0.65267,0.26072 0.91864,0.4672c0.26597,0.20297 0.48469,0.45145 0.65617,0.74541l-0.96588,0.95014c-0.14698,-0.23097 -0.31497,-0.42345 -0.50394,-0.57743c-0.18547,-0.15398 -0.3867,-0.26947 -0.60368,-0.34646c-0.21697,-0.08049 -0.44445,-0.12073 -0.68242,-0.12073c-0.26946,0 -0.50394,0.0385 -0.70342,0.11549c-0.19598,0.07349 -0.34996,0.18023 -0.46194,0.32021c-0.11199,0.13648 -0.16798,0.30271 -0.16798,0.49869c0,0.14698 0.03324,0.27822 0.09974,0.3937c0.06999,0.11548 0.16623,0.21873 0.28872,0.30972c0.12249,0.08749 0.27996,0.16622 0.47244,0.23622c0.19598,0.06649 0.41646,0.12598 0.66143,0.17848c0.41295,0.08049 0.78216,0.19073 1.10762,0.33071c0.32896,0.13648 0.60893,0.30096 0.8399,0.49344c0.23448,0.18898 0.4112,0.40595 0.53019,0.65092c0.11899,0.24147 0.17848,0.51094 0.17848,0.8084c0,0.51444 -0.12248,0.95714 -0.36745,1.32809c-0.24147,0.36746 -0.58269,0.65092 -1.02363,0.8504c-0.43744,0.19597 -0.95188,0.29397 -1.54331,0.29397z"/><path d="M225.90126,191.18176v-1.28609h1.2861v-5.26512h-1.2861v-1.28609h4.03152v1.28609h-1.29135v5.26513h1.29135v1.28609z"/><path d="M232.70983,191.18176v-7.83731h1.45408v6.49347h3.61682v1.34384z"/><path d="M240.36829,191.18176v-7.83731h5.12339v1.32284h-3.69031v5.19164h3.73756v1.32284zM241.03495,187.82216v-1.29659h3.88979v1.29659z"/><path d="M248.28426,191.18176v-7.83731h1.3071l4.54595,6.12602l-0.24672,0.042c-0.028,-0.20997 -0.05424,-0.42345 -0.07874,-0.64043c-0.02099,-0.22048 -0.042,-0.44969 -0.06299,-0.68766c-0.01749,-0.24147 -0.0315,-0.49169 -0.042,-0.75066c-0.0105,-0.26247 -0.02099,-0.53719 -0.03149,-0.82415c-0.007,-0.28697 -0.0105,-0.59143 -0.0105,-0.91339v-2.35172h1.44882v7.83731h-1.33334l-4.56696,-6.03677l0.28872,-0.07874c0.0385,0.41995 0.06999,0.7769 0.09449,1.07087c0.028,0.29397 0.04899,0.54769 0.06299,0.76116c0.014,0.21348 0.02625,0.39196 0.03675,0.53544c0.014,0.13999 0.02275,0.26772 0.02625,0.38321c0.0035,0.11548 0.00525,0.22572 0.00525,0.33071v3.03414z"/><path d="M259.7016,191.18176v-6.49347h-2.23623v-1.34384h6.00003v1.34384h-2.30972v6.49347z"/></g></g></g></svg>